<?xml version="1.0" encoding="UTF-8"?>
<svg width="25px" height="25px" viewBox="0 0 25 25" version="1.1" xmlns="http://www.w3.org/2000/svg" xmlns:xlink="http://www.w3.org/1999/xlink">
    <!-- Generator: sketchtool 52.5 (67469) - http://www.bohemiancoding.com/sketch -->
    <title>84194388-8371-4D68-B643-0C8B84A23340</title>
    <desc>Created with sketchtool.</desc>
    <g id="Symbols" stroke="none" stroke-width="1" fill="none" fill-rule="evenodd">
        <g id="Currency-convertor-EURO" transform="translate(-12.000000, -23.000000)" fill="#D0D0D0">
            <g id="Currency-convertor">
                <g id="Group">
                    <g transform="translate(12.000000, 23.000000)">
                        <g id="right-arrow" transform="translate(12.500000, 12.500000) rotate(-360.000000) translate(-12.500000, -12.500000) ">
                            <g id="Group-2">
                                <g id="Group-3">
                                    <path d="M17.4879327,10.2255894 C17.1745951,9.92480354 16.6530962,9.92480354 16.3288028,10.2255894 C16.0154652,10.5162135 16.0154652,10.9999097 16.3288028,11.2898564 L22.206256,16.741261 L2.81146396,16.741261 C2.35935218,16.7419384 2,17.0752416 2,17.4945804 C2,17.9139192 2.35935218,18.2580616 2.81146396,18.2580616 L22.206256,18.2580616 L16.3288028,23.6993045 C16.0154652,24.0000903 16.0154652,24.4844639 16.3288028,24.7744106 C16.6530962,25.0751965 17.1753255,25.0751965 17.4879327,24.7744106 L24.7567799,18.0324722 C25.0810734,17.7418481 25.0810734,17.2581519 24.7567799,16.9682052 L17.4879327,10.2255894 Z" id="Path"></path>
                                    <path d="M15.4879327,0.225589378 C15.1745951,-0.0751964592 14.6530962,-0.0751964592 14.3288028,0.225589378 C14.0154652,0.516213531 14.0154652,0.999909674 14.3288028,1.28985638 L20.206256,6.74126095 L0.811463957,6.74126095 C0.359352175,6.7419384 0,7.07524162 0,7.49458044 C0,7.91391925 0.359352175,8.2580616 0.811463957,8.2580616 L20.206256,8.2580616 L14.3288028,13.6993045 C14.0154652,14.0000903 14.0154652,14.4844639 14.3288028,14.7744106 C14.6530962,15.0751965 15.1753255,15.0751965 15.4879327,14.7744106 L22.7567799,8.03247222 C23.0810734,7.74184807 23.0810734,7.25815193 22.7567799,6.96820522 L15.4879327,0.225589378 Z" id="Path-Copy" transform="translate(11.500000, 7.500000) rotate(-180.000000) translate(-11.500000, -7.500000) "></path>
                                </g>
                            </g>
                        </g>
                    </g>
                </g>
            </g>
        </g>
    </g>
</svg>