<svg xmlns="http://www.w3.org/2000/svg" viewBox="0 0 1357.84 176.23"><defs><style>.cls-1{fill:#888888;}</style></defs><title>Asset 1</title><g id="Layer_2" data-name="Layer 2"><g id="svg2"><g id="g10"><g id="g12"><path id="path14" class="cls-1" d="M28.87,114.45v27.84H50.53c8.24.52,15.46-5.15,16-13.4v-.52c0-8.76-7.22-14.43-18.05-14.43Zm0-40.73V98.47H49C56.2,99,62.9,93.83,63.41,86.61v-1c0-6.7-6.7-11.86-16-11.86ZM0,57.23H39.18c17.53,0,23.72.51,28.87,2.57A26.67,26.67,0,0,1,83.52,84.55c0,10.31-3.09,15.47-13.4,20.62a24.51,24.51,0,0,1,17,25.27c0,17-13.4,28.35-33,28.35H0v-16.5H7.73V73.72H0V57.23H0"/><path id="path16" class="cls-1" d="M153.12,110.85a15.51,15.51,0,0,0-15.47-15.47h-.51c-8.76,0-16,6.7-17.53,15Zm19.59,22.68c-3.61,17-17.53,27.32-36.09,27.32-21.65,0-37.63-17-37.63-40.72S115,79.4,136.62,79.4a35.43,35.43,0,0,1,29.91,16c5.15,8.76,8.25,18.56,7.73,28.87H118.58c2.06,20.11,15,21.14,18.56,21.14,7.22.51,13.92-4.64,16-11.34l19.59-.52h0"/><path id="path18" class="cls-1" d="M237.16,108.27h35.57v50.52H261.39v-16a46.38,46.38,0,0,1-7.73,9.8,36.14,36.14,0,0,1-23.2,8.76c-23.72,0-42.28-23.2-42.28-53.1s18.56-53.62,41.76-53.62c12.89-.52,24.23,6.7,30.42,17.53v-16h10.83V88.68H259.84a34,34,0,0,0-5.67-12.38A30.1,30.1,0,0,0,232.52,65c-12.37,0-30.93,10.83-30.93,42.28C201.59,132,215,150,232.52,150a29.68,29.68,0,0,0,27.84-24.23,44.84,44.84,0,0,0,.51-8.25H236.64l.52-9.28h0"/><path id="path20" class="cls-1" d="M337.18,119.09l-7.22,1c-23.72,3.09-31.45,7.21-31.45,17a15.86,15.86,0,0,0,16,15c11.34-.52,21.14-8.76,22.69-20.11Zm22.17,40.22H337.18V145.39a29.54,29.54,0,0,1-26.3,15.46c-12.89,1-24.23-9.28-25.26-22.16v-1.55c0-14.95,12.89-22.17,43.82-25.26l7.22-.52v-7.73c0-8.77-6.7-14.44-17.53-14.44s-16.5,3.61-18.56,13.92H288.71a27.48,27.48,0,0,1,8.77-16c5.67-4.64,13.4-6.7,20.62-6.7,16,0,29.39,7.22,29.39,26.81V150h10.83l1,9.28h0"/><path id="path22" class="cls-1" d="M391.83,95.89c3.61-5.15,10.31-16,24.74-16,10.32,0,16,5.16,18.05,16a43.48,43.48,0,0,1,7.22-9.79,24.79,24.79,0,0,1,16.49-6.7c11.86,0,18.56,7.73,18.56,21.13v49h10.83v9.28H466.07V104.66c0-10.83-3.61-16-11.34-16-13.41,0-20.63,16-20.63,21.65v39.18h11.35v9.28H422.76V103.11c0-9.79-3.61-13.92-11.34-13.92-11.86,0-20.62,15-20.62,22.17V150h11.34v9.28H368.63V150H380V90.22H368.63V80.94h22.68l.52,15h0"/><path id="path24" class="cls-1" d="M521.23,126.31a24.2,24.2,0,0,0,22.17,24.23c13.41,0,21.66-11.85,21.66-30.93s-8.77-30.42-21.66-30.42c-11.34,0-22.68,12.37-22.68,23.72ZM499.58,52.59h21.65V97.44c3.1-5.67,11.86-17,25.27-17,17.53,0,30.93,18,30.93,40.73,0,21.13-14.44,39.18-30.93,39.18-13.92,0-20.63-9.28-25.27-15.47v14.44H499.06V150h10.83V61.87H499.58V52.59h0"/><path id="path26" class="cls-1" d="M584,52.59h22.17V150h10.31v9.28h-33V150h11.34V61.35H584V52.59h0"/><path id="path28" class="cls-1" d="M681,113.94a28.58,28.58,0,0,0-7.73-19.59c-3.61-3.1-8.25-5.16-12.89-4.64a22.59,22.59,0,0,0-20.62,16.49c-.52,2.58-1.55,5.16-1.55,7.74Zm11.34,23.71a26.32,26.32,0,0,1-6.18,11.86,32.15,32.15,0,0,1-24.75,11.34c-21.14,0-36.09-16.49-36.09-40.21,0-22.68,15-40.21,34-40.21s34.54,14.95,34.54,42.27h-56.2c1,11.35,3.61,18,8.77,23.2a22.14,22.14,0,0,0,14.43,5.67c8.77,0,14.44-4.12,18.56-13.4l12.89-.52h0"/><path id="path30" class="cls-1" d="M753.66,76.3l-13.4,45.37h26.81ZM741.29,57.23H766l28.35,85.58h7.74v16.5h-23.2l-6.71-22.17H736.13l-6.7,22.17H705.72v-16.5h7.73l27.84-85.58"/><path id="path32" class="cls-1" d="M801.1,81.46H832v15H824.3l10.82,45.88L848,81.46h20.11L881,141.26l10.31-44.85h-7.73v-15h30.93v15h-6.7l-16.5,62.38H870.7l-12.89-53.62-12.38,53.62H824.81l-17-62.38h-6.7v-15h0"/><path id="path34" class="cls-1" d="M969.17,122.7c-18,1.55-29.9,3.1-29.9,13.92,0,6.19,5.15,10.31,12.88,10.31a17.51,17.51,0,0,0,17.53-16.49V122.7Zm18.56,21.66h6.7v14.95H970.2V150c-5.67,7.22-14.44,10.82-23.72,10.82-15.46,0-27.32-10.31-27.32-24.23,0-22.68,25.78-25.26,50.52-27.32,0-11.86-4.12-15.47-13.92-15.47s-13.4,4.64-13.92,11.86v.51l-18.56-.51c1-15.47,13.41-25.26,32-25.26,21.65,0,33,9.79,33,27.32l-.51,36.61h0"/><path id="path36" class="cls-1" d="M1031,93.83c5.15-9.79,10.82-13.92,19.59-13.92a51.29,51.29,0,0,1,8.76,1V99a56.2,56.2,0,0,0-9.28-1c-9.79-.52-18,6.7-18.56,16v29.9h9.28v14.95h-36.09V143.84h7.74V96.41h-7.74v-15H1031V93.83"/><path id="path38" class="cls-1" d="M1117.09,110.85a15.51,15.51,0,0,0-15.47-15.47h-.52c-8.76,0-16,6.7-17.53,15Zm20.1,22.68c-3.61,17-17.53,27.32-36.09,27.32-21.65,0-37.63-17-37.63-40.72s16-40.73,37.63-40.73a35.43,35.43,0,0,1,29.91,16c5.15,8.76,8.24,18.56,7.73,28.87h-55.68c2.06,20.11,15,21.14,18.56,21.14,7.22.51,13.92-4.64,16-11.34l19.59-.52h0"/><path id="path40" class="cls-1" d="M1335.83,23.15a5.25,5.25,0,0,0,1.92-.72,4.1,4.1,0,0,0,1.32-1.42,4.9,4.9,0,0,0,.49-2.32,4.61,4.61,0,0,0-1.11-3.21,4.45,4.45,0,0,0-3.53-1.24h-8.62v9.09h7.23a14.11,14.11,0,0,0,2.3-.18Zm-.72-11.83a8.54,8.54,0,0,1,5.81,1.82,6.29,6.29,0,0,1,2.09,5A7.85,7.85,0,0,1,1342,22.3a5.53,5.53,0,0,1-3.46,2.45v.07a4.8,4.8,0,0,1,1.86.73,4.19,4.19,0,0,1,1.12,1.22,5.55,5.55,0,0,1,.62,1.59,14.85,14.85,0,0,1,.31,1.83c0,.63.08,1.28.11,1.93a17.47,17.47,0,0,0,.18,1.94,11.27,11.27,0,0,0,.43,1.8,4.28,4.28,0,0,0,.81,1.52h-3.86a2.21,2.21,0,0,1-.5-1.09,10.26,10.26,0,0,1-.16-1.56c0-.57-.05-1.18-.08-1.84a12.51,12.51,0,0,0-.21-1.94c-.11-.63-.23-1.23-.37-1.8a4.32,4.32,0,0,0-.7-1.5,3.29,3.29,0,0,0-1.24-1,4.47,4.47,0,0,0-2-.38h-8.47V37.38h-3.46V11.32h12.27"/><path id="path42" class="cls-1" d="M1332.58,4.12a21.14,21.14,0,1,0,21.14,21.14A21.17,21.17,0,0,0,1332.58,4.12Zm0,46.4a25.26,25.26,0,1,1,25.26-25.26,25.29,25.29,0,0,1-25.26,25.26"/><path id="path44" class="cls-1" d="M1148,149.1h9.63v9.42H1148V149.1"/><path id="path46" class="cls-1" d="M1191.49,152.83c10.57,0,16.89-8.5,16.89-22.48,0-13.15-6.63-21.55-16.89-21.55-10,0-16.26,8.4-16.26,22C1175.23,144.64,1181.34,152.83,1191.49,152.83Zm-25.27-22.27c0-17,10.46-28.69,25.58-28.69,14.82,0,25.59,12.11,25.59,28.69,0,17.29-10.57,29.21-25.79,29.21s-25.38-11.81-25.38-29.21"/><path id="path48" class="cls-1" d="M1239.14,115.54c2.69-5.8,4.14-7.56,6.63-9.94a15.66,15.66,0,0,1,10.15-3.84,45.43,45.43,0,0,1,6,.62v8.19a32.73,32.73,0,0,0-5.91-.73c-15.12,0-16.88,15.64-16.88,16.47V152h9.53v6.52h-25.48V152h8V109.32h-8.29v-6.63h16.26v12.85"/><path id="path50" class="cls-1" d="M1305.64,123.31c0-6.11-7.46-14.81-16-14.81-9.12,0-14.71,7.45-14.71,19.57,0,12.33,5.69,19.78,15.22,19.78,8.19,0,15.44-8,15.44-14.5Zm0,21.54c-5.08,7.15-10.67,9.53-16.78,9.53-13.36,0-22.58-11-22.58-26.83,0-15,9-25.68,21.65-25.68,10.25,0,14.81,6.52,17.71,10.77v-10h15.74v6.63h-7.77V155.1c0,13.47-8.59,21.13-23.72,21.13-9.22,0-17.09-4-20.82-10.56a31.7,31.7,0,0,1-2.27-5.49h9c3.31,6.73,7.25,9.22,14.7,9.22,9.43,0,15.13-4.87,15.13-13v-11.6"/></g></g></g></g></svg>