<svg xmlns="http://www.w3.org/2000/svg" width="136" height="40" viewBox="0 0 136 40">
    <defs>
        <linearGradient id="a" x1="49.998%" x2="49.998%" y1="100.266%" y2="-260.383%">
            <stop offset="0%" stop-color="#1A1A1A" stop-opacity=".1"/>
            <stop offset="12.3%" stop-color="#212121" stop-opacity=".151"/>
            <stop offset="30.8%" stop-color="#353535" stop-opacity=".227"/>
            <stop offset="53.2%" stop-color="#575757" stop-opacity=".318"/>
            <stop offset="78.3%" stop-color="#858585" stop-opacity=".421"/>
            <stop offset="100%" stop-color="#B3B3B3" stop-opacity=".51"/>
        </linearGradient>
    </defs>
    <g fill="none" fill-rule="evenodd">
        <path fill="#FFF" d="M135.098 35.278a3.816 3.816 0 0 1-1.132 2.71 3.876 3.876 0 0 1-2.733 1.12H4.767c-2.135.003-3.867-1.712-3.87-3.83V4.726C.9 2.607 2.631.891 4.767.89h126.465a3.88 3.88 0 0 1 2.733 1.124 3.82 3.82 0 0 1 1.132 2.712v30.552z"/>
        <path fill="#A6A6A6" d="M131.233 40H4.767C2.137 40 .005 37.887 0 35.278V4.728C.004 2.116 2.136.001 4.767 0h126.465c2.63.003 4.762 2.117 4.767 4.727v30.55C136 37.883 133.859 40 131.233 40z"/>
        <path fill="#000" d="M135.098 35.278a3.816 3.816 0 0 1-1.132 2.71 3.876 3.876 0 0 1-2.733 1.12H4.767c-2.135.003-3.867-1.712-3.87-3.83V4.726C.9 2.607 2.631.891 4.767.89h126.465a3.88 3.88 0 0 1 2.733 1.124 3.82 3.82 0 0 1 1.132 2.712v30.552z"/>
        <path fill="#FFF" fill-rule="nonzero" d="M30.368 19.79c-.03-3.224 2.66-4.793 2.783-4.866-1.524-2.204-3.884-2.505-4.714-2.529-1.982-.207-3.905 1.178-4.915 1.178-1.03 0-2.586-1.158-4.262-1.124-2.157.033-4.175 1.273-5.282 3.197-2.284 3.924-.58 9.691 1.608 12.863 1.095 1.554 2.374 3.288 4.048 3.227 1.638-.066 2.25-1.036 4.226-1.036 1.959 0 2.533 1.036 4.24.997 1.759-.027 2.865-1.56 3.922-3.128 1.265-1.78 1.773-3.534 1.793-3.624-.04-.014-3.413-1.292-3.447-5.156zm-3.226-9.481c.881-1.093 1.484-2.58 1.317-4.09-1.276.056-2.87.875-3.788 1.944-.813.943-1.539 2.487-1.351 3.94 1.432.105 2.903-.718 3.822-1.794z"/>
        <path fill="url(#a)" d="M131.233 0h-67.74l26.533 40h41.207c2.63-.002 4.762-2.116 4.767-4.725V4.727c-.005-2.61-2.137-4.724-4.767-4.727z"/>
        <path fill="#FFF" fill-rule="nonzero" d="M54.092 31.513h-2.29l-1.253-3.91H46.19l-1.194 3.91h-2.229l4.32-13.312h2.666l4.339 13.312zm-3.921-5.55l-1.134-3.477c-.12-.355-.346-1.191-.676-2.508h-.04c-.134.567-.347 1.403-.638 2.508l-1.115 3.476h3.603zm15.006.632c0 1.633-.446 2.923-1.34 3.87-.8.844-1.796 1.265-2.982 1.265-1.281 0-2.202-.453-2.762-1.362v5.037h-2.149V25.069c0-1.025-.027-2.077-.08-3.155h1.89l.12 1.521h.04c.718-1.146 1.805-1.719 3.265-1.719 1.14 0 2.093.447 2.855 1.342.761.898 1.143 2.076 1.143 3.537zm-2.19.078c0-.934-.21-1.704-.636-2.311-.465-.631-1.089-.948-1.87-.948-.531 0-1.013.176-1.443.524-.432.35-.714.807-.846 1.373-.059.212-.092.43-.1.65v1.6c0 .698.216 1.287.647 1.77.432.48.992.72 1.682.72.809 0 1.439-.31 1.89-.928.451-.62.677-1.435.677-2.45zm13.315-.078c0 1.633-.447 2.923-1.34 3.87-.802.844-1.796 1.265-2.983 1.265-1.281 0-2.203-.453-2.762-1.362v5.037h-2.149V25.069c0-1.025-.027-2.077-.08-3.155h1.89l.12 1.521h.04c.716-1.146 1.804-1.719 3.264-1.719 1.14 0 2.093.447 2.857 1.342.76.898 1.143 2.076 1.143 3.537zm-2.19.078c0-.934-.213-1.704-.638-2.311-.465-.631-1.087-.948-1.87-.948-.53 0-1.011.176-1.444.524-.43.35-.712.807-.844 1.373-.066.264-.101.48-.101.65v1.6c0 .698.217 1.287.646 1.77.432.478.992.72 1.683.72.81 0 1.44-.31 1.89-.928.452-.62.678-1.435.678-2.45zM88.74 27.78c0 1.133-.4 2.054-1.192 2.765-.873.777-2.092 1.166-3.654 1.166-1.444 0-2.6-.276-3.474-.83l.497-1.777c.943.554 1.978.83 3.105.83.81 0 1.44-.182 1.89-.543.45-.362.678-.846.678-1.45 0-.541-.188-.995-.558-1.364-.372-.368-.987-.71-1.85-1.026-2.35-.87-3.525-2.14-3.525-3.813 0-1.092.416-1.987 1.244-2.686.829-.698 1.927-1.047 3.294-1.047 1.22 0 2.238.211 3.045.632l-.54 1.739c-.76-.409-1.617-.613-2.576-.613-.758 0-1.353.185-1.779.554-.357.329-.539.73-.539 1.206 0 .525.207.961.618 1.303.357.315 1.008.658 1.95 1.027 1.155.462 2.003 1 2.547 1.618.547.618.819 1.39.819 2.309zm7.123-4.265h-2.368v4.66c0 1.186.417 1.777 1.253 1.777.384 0 .703-.032.955-.099l.06 1.62c-.424.157-.981.236-1.672.236-.848 0-1.512-.257-1.99-.771-.477-.515-.717-1.376-.717-2.588V23.51h-1.411v-1.6h1.41v-1.757l2.112-.633v2.39h2.368v1.604zm10.666 3.12c0 1.476-.425 2.687-1.274 3.634-.888.976-2.069 1.462-3.542 1.462-1.42 0-2.55-.467-3.393-1.4-.843-.936-1.264-2.114-1.264-3.536 0-1.487.435-2.705 1.303-3.653.87-.948 2.041-1.422 3.514-1.422 1.419 0 2.559.468 3.422 1.402.824.907 1.234 2.077 1.234 3.513zm-2.227.05c0-.88-.192-1.634-.576-2.265-.45-.762-1.095-1.144-1.931-1.144-.86 0-1.521.382-1.97 1.144-.386.63-.577 1.398-.577 2.304 0 .88.191 1.637.576 2.266.465.762 1.113 1.143 1.953 1.143.821 0 1.465-.389 1.931-1.162.395-.646.594-1.405.594-2.287zm9.216-2.894c-.224-.04-.45-.06-.678-.06-.756 0-1.34.283-1.752.85-.356.5-.536 1.133-.536 1.896v5.037h-2.149v-6.576a66.936 66.936 0 0 0-.062-3.022h1.871l.08 1.837h.059c.227-.632.584-1.14 1.074-1.522a2.612 2.612 0 0 1 1.553-.514c.199 0 .378.014.537.039l.003 2.035zm9.61 2.47c.006.323-.02.647-.078.966h-6.447c.024.949.336 1.675.935 2.175.544.446 1.246.67 2.109.67.954 0 1.825-.15 2.608-.453l.337 1.48c-.915.396-1.996.593-3.242.593-1.5 0-2.678-.438-3.534-1.313-.855-.875-1.283-2.051-1.283-3.525 0-1.446.398-2.651 1.195-3.613.835-1.026 1.962-1.539 3.382-1.539 1.394 0 2.449.513 3.166 1.54.567.813.852 1.82.852 3.018zm-2.049-.554c.015-.633-.126-1.178-.417-1.64-.372-.594-.945-.89-1.712-.89-.702 0-1.275.29-1.71.87-.358.46-.57 1.015-.636 1.658l4.475.002zM45.57 13.495c-.597 0-1.114-.03-1.545-.078V6.98c.602-.092 1.21-.138 1.82-.136 2.464 0 3.599 1.203 3.599 3.165 0 2.262-1.34 3.485-3.874 3.485zm.361-5.825c-.332 0-.616.02-.85.068v4.892c.127.02.37.03.713.03 1.615 0 2.534-.913 2.534-2.621 0-1.524-.831-2.369-2.397-2.369zm7.05 5.874c-1.389 0-2.29-1.03-2.29-2.427 0-1.456.92-2.495 2.369-2.495 1.368 0 2.289.98 2.289 2.418 0 1.474-.949 2.504-2.368 2.504zm.04-4.155c-.763 0-1.252.708-1.252 1.698 0 .971.5 1.68 1.242 1.68.743 0 1.242-.758 1.242-1.7 0-.96-.489-1.678-1.232-1.678zm10.248-.67l-1.487 4.718h-.968l-.616-2.049c-.153-.501-.28-1.01-.382-1.523h-.02c-.078.514-.225 1.029-.381 1.523l-.655 2.049h-.98l-1.398-4.718h1.085l.539 2.243c.127.534.233 1.038.322 1.514h.02c.078-.397.205-.893.391-1.504l.676-2.252h.86l.647 2.204c.156.534.283 1.058.382 1.553h.028c.068-.485.176-1 .322-1.553l.578-2.204h1.037zm5.473 4.718h-1.056v-2.71c0-.833-.323-1.251-.959-1.251-.626 0-1.056.534-1.056 1.155v2.806h-1.056v-3.37c0-.416-.01-.863-.04-1.349h.93l.05.729h.028c.285-.505.861-.825 1.507-.825.998 0 1.653.758 1.653 1.99v2.825zm2.913 0h-1.057V6.555h1.057v6.882zm3.852.107c-1.388 0-2.29-1.03-2.29-2.427 0-1.456.92-2.495 2.367-2.495 1.37 0 2.29.98 2.29 2.418 0 1.474-.95 2.504-2.367 2.504zm.039-4.155c-.763 0-1.252.708-1.252 1.698 0 .971.5 1.68 1.24 1.68.745 0 1.243-.758 1.243-1.7 0-.96-.487-1.678-1.231-1.678zm6.492 4.048l-.076-.543h-.029c-.322.437-.793.65-1.39.65-.851 0-1.456-.592-1.456-1.389 0-1.164 1.017-1.766 2.778-1.766v-.087c0-.621-.332-.932-.987-.932-.469 0-.88.117-1.242.35l-.214-.69c.439-.272.987-.408 1.631-.408 1.242 0 1.87.65 1.87 1.952v1.737c0 .477.02.846.068 1.127l-.953-.001zm-.145-2.35c-1.173 0-1.762.282-1.762.951 0 .495.304.738.725.738.537 0 1.037-.408 1.037-.96v-.729zm6.159 2.35l-.05-.758h-.029c-.303.573-.813.865-1.526.865-1.146 0-1.995-1-1.995-2.408 0-1.475.88-2.515 2.082-2.515.636 0 1.086.213 1.34.642h.021V6.555h1.058v5.61c0 .456.01.884.039 1.272h-.94zm-.157-2.776c0-.66-.44-1.223-1.112-1.223-.784 0-1.262.689-1.262 1.66 0 .95.497 1.601 1.24 1.601.665 0 1.134-.573 1.134-1.252v-.786zm7.762 2.883c-1.388 0-2.288-1.03-2.288-2.427 0-1.456.919-2.495 2.366-2.495 1.37 0 2.29.98 2.29 2.418 0 1.474-.948 2.504-2.368 2.504zm.039-4.155c-.762 0-1.251.708-1.251 1.698 0 .971.499 1.68 1.24 1.68.745 0 1.243-.758 1.243-1.7.002-.96-.487-1.678-1.232-1.678zm8.01 4.048h-1.058v-2.71c0-.833-.323-1.251-.959-1.251-.626 0-1.055.534-1.055 1.155v2.806h-1.057v-3.37c0-.416-.01-.863-.04-1.349h.93l.049.729h.03c.282-.505.86-.826 1.505-.826.998 0 1.654.758 1.654 1.99v2.826zm7.106-3.931h-1.162v2.29c0 .583.204.874.615.874.186 0 .343-.02.469-.049l.029.797c-.205.078-.479.117-.82.117-.832 0-1.33-.456-1.33-1.65v-2.38h-.694V8.72h.694v-.864l1.037-.31v1.173h1.162v.788zm5.592 3.93h-1.055v-2.688c0-.844-.322-1.271-.959-1.271-.547 0-1.057.369-1.057 1.116v2.844h-1.055V6.555h1.055v2.834h.021c.333-.515.815-.768 1.43-.768 1.005 0 1.62.777 1.62 2.01v2.806zm5.73-2.106h-3.17c.02.893.615 1.397 1.497 1.397.469 0 .9-.078 1.281-.223l.165.729c-.45.194-.979.29-1.595.29-1.487 0-2.367-.932-2.367-2.377 0-1.446.902-2.534 2.248-2.534 1.215 0 1.977.894 1.977 2.243.007.16-.006.319-.037.475zm-.97-.747c0-.728-.37-1.242-1.044-1.242-.607 0-1.087.524-1.156 1.242h2.2z"/>
    </g>
</svg>
