<?xml version="1.0" encoding="utf-8"?>
<!-- Generator: Adobe Illustrator 23.0.4, SVG Export Plug-In . SVG Version: 6.00 Build 0)  -->
<svg version="1.1" id="Layer_1" xmlns="http://www.w3.org/2000/svg" xmlns:xlink="http://www.w3.org/1999/xlink" x="0px" y="0px"
	 viewBox="0 0 30 30" style="enable-background:new 0 0 30 30;" xml:space="preserve">
<style type="text/css">
	.st0{fill:#1F1D14;}
	.st1{fill:#FF8D00;}
</style>
<title>FullScreen-Button</title>
<desc>Created with Sketch.</desc>
<g>
	<polygon class="st0" points="20.7,10.4 24.8,6.4 23.6,5.2 19.6,9.3 17.8,7.5 17.8,12.3 22.5,12.2 	"/>
	<path class="st1" d="M17.7,13h6.6l-2.5-2.5l4.1-4.1l-2.2-2.2l-4.1,4.1L17,5.7v6.6C17,12.7,17.3,13,17.7,13z M17.8,7.5l1.8,1.8
		l4.1-4.1l1.2,1.1l-4.1,4.1l1.8,1.8l-4.7,0.1V7.5z"/>
	<polygon class="st0" points="8.5,12.2 13.2,12.2 13.2,7.5 11.4,9.3 7.3,5.2 6.2,6.4 10.2,10.4 	"/>
	<path class="st1" d="M6.7,13h6.6c0.4,0,0.7-0.3,0.7-0.7V5.7l-2.5,2.5L7.3,4.2L5.1,6.4l4.1,4.1L6.7,13z M6.2,6.4l1.1-1.2l4.1,4.1
		l1.8-1.8l0.1,4.7H8.5l1.8-1.8L6.2,6.4z"/>
	<polygon class="st0" points="23.6,23.8 24.8,22.6 20.7,18.6 22.5,16.8 17.7,16.8 17.8,21.5 19.6,19.7 	"/>
	<path class="st1" d="M23.6,24.9l2.2-2.2l-4.1-4.1l2.5-2.5h-6.6c-0.4,0-0.7,0.3-0.7,0.7v6.6l2.5-2.5L23.6,24.9z M17.7,16.8h4.8
		l-1.8,1.8l4.1,4.1l-1.2,1.1l-4.1-4.1l-1.8,1.8L17.7,16.8z"/>
	<polygon class="st0" points="7.3,23.8 11.4,19.7 13.2,21.5 13.2,16.7 8.5,16.8 10.2,18.6 6.2,22.6 	"/>
	<path class="st1" d="M7.3,24.9l4.1-4.1l2.5,2.5v-6.6c0-0.4-0.3-0.7-0.7-0.7H6.7l2.5,2.5l-4.1,4.1L7.3,24.9z M8.5,16.8l4.7-0.1v4.8
		l-1.8-1.8l-4.1,4.1l-1.1-1.2l4.1-4.1L8.5,16.8z"/>
</g>
</svg>
