<svg xmlns="http://www.w3.org/2000/svg" width="23.109" height="25.643" viewBox="0 0 23.109 25.643"><path d="M1927.734-677.321c.057-.226.1-.455.165-.68.259-.953.523-1.9.782-2.857.067-.247.136-.494.184-.744a.844.844,0,0,0-.548-.993,2.277,2.277,0,0,0-.412-.122,5.21,5.21,0,0,0-1.086-.078c-.978.005-1.957.018-2.935.018-.462,0-.924-.02-1.386-.036a8.735,8.735,0,0,0-1.425.04,2.094,2.094,0,0,0-.746.214.681.681,0,0,0-.187,1.11,1.244,1.244,0,0,0,.671.374,4.245,4.245,0,0,0,1.1.066c.484-.019.968-.043,1.453-.058.145,0,.291.014.437.022l.01.031c-.037.028-.074.057-.112.084a7.262,7.262,0,0,1-2.024.958,13.089,13.089,0,0,1-4.965.5c-.057,0-.113-.014-.166-.021-.029-.223-.018-10.606.014-10.714.242-.017.487-.039.734-.049a12.907,12.907,0,0,1,3.527.327,8.948,8.948,0,0,1,2.593.987,1.849,1.849,0,0,0,1.116.231,1.353,1.353,0,0,0,.556-.146.519.519,0,0,0,.141-.865,1.414,1.414,0,0,0-.451-.313c-.314-.143-.635-.273-.951-.411a12.623,12.623,0,0,0-3.087-.921,17.278,17.278,0,0,0-3.771-.174l-.433.025v-.166q0-1.5,0-3c0-.051,0-.1-.007-.159h-8.811a1.83,1.83,0,0,0-.295.023,1.923,1.923,0,0,0-1.6,1.859q.011,8.225,0,16.45a1.425,1.425,0,0,0,.011.242,1.9,1.9,0,0,0,1.07,1.445,1.989,1.989,0,0,0,.913.191q4.113,0,8.227,0c.126,0,.251,0,.377,0,.034,0,.068-.007.113-.013v-2.871a15.325,15.325,0,0,0,8.939-1.878c-.024.089-.037.145-.055.2-.117.349-.237.7-.351,1.047a3.285,3.285,0,0,0-.106.4.825.825,0,0,0,.263.806,1.369,1.369,0,0,0,.189.151,1.936,1.936,0,0,0,1.366.288A1.056,1.056,0,0,0,1927.734-677.321Zm-11.225-.208c-.162-.016-.326-.029-.489-.048a15.57,15.57,0,0,1-2.932-.619,11.209,11.209,0,0,1-3.281-1.619,7.522,7.522,0,0,1-1.858-1.931,4.953,4.953,0,0,1-.825-3.213,5.041,5.041,0,0,1,1.234-2.914,9.424,9.424,0,0,1,3.477-2.525,13.365,13.365,0,0,1,3.331-.945c.4-.06.8-.1,1.2-.151.044-.006.089-.007.151-.011v1.3c-.176.025-.349.047-.521.074a10.926,10.926,0,0,0-3.144.953,7.269,7.269,0,0,0-2.316,1.75,3.877,3.877,0,0,0-.944,1.95,3.76,3.76,0,0,0,.609,2.772,5.985,5.985,0,0,0,1.494,1.5,8.715,8.715,0,0,0,2.394,1.208,10.83,10.83,0,0,0,2.257.493c.045,0,.089.012.133.019a.106.106,0,0,1,.024.01C1916.534-679.375,1916.538-677.684,1916.51-677.529Zm9.285,7.03.1-.042a1.048,1.048,0,0,0,.605-.649,1.46,1.46,0,0,0,.06-.665,1.068,1.068,0,0,0-.906-.965,2.659,2.659,0,0,0-.362-.028c-.391,0-.781,0-1.171,0-.035,0-.07,0-.111.008-.031.23-.019,3.469.011,3.562h.849c.007-.364,0-.719.005-1.074l.03-.006.643,1.079a6.1,6.1,0,0,0,1.069-.016l-.836-1.176C1925.79-670.492,1925.792-670.5,1925.795-670.5Zm-.288-.788a.533.533,0,0,1-.189.066c-.141.016-.284.018-.441.027v-.844a1.314,1.314,0,0,1,.6.053.331.331,0,0,1,.207.319A.366.366,0,0,1,1925.507-671.287Zm-4.955.737a1.735,1.735,0,0,1-1.4,1.316,1.815,1.815,0,0,1-2.166-1.475,1.844,1.844,0,0,1,1.127-2.083,1.826,1.826,0,0,1,2.447,1.216c.006.021.009.043.017.084-.055,0-.095.006-.134.006-.224,0-.448,0-.673,0a.2.2,0,0,1-.2-.1.877.877,0,0,0-.531-.409.941.941,0,0,0-1.165,1.106.966.966,0,0,0,.8.791.842.842,0,0,0,.835-.355.322.322,0,0,1,.311-.148c.2.011.394,0,.592,0h.134C1920.549-670.574,1920.556-670.561,1920.552-670.55Zm-4.8-2.293h.755v3.568h-.476c-.007-.5.005-1,.009-1.505s.013-1,.02-1.507c-.06.031-.062.084-.078.125q-.447,1.191-.892,2.383l-.19.5h-.372l-1.122-3.005-.029,0c-.007.2.005.391.007.587s0,.4.005.606,0,.4.005.593.005.4.007.606,0,.4,0,.609h-.484v-3.564h.766l1.017,2.712.029,0C1915.077-671.03,1915.408-671.94,1915.752-672.843Zm6.014,0-1.369,3.567h.956l.181-.5h1.178l.177.5h.965l-1.369-3.565Zm.008,2.307.335-1.08.031,0,.332,1.083Zm6.092-.141v.616c.348.01.7,0,1.052.007v.777H1927c-.031-.1-.036-3.432,0-3.565h1.916v.78c-.344.023-.693,0-1.05.015v.567h1.052v.8C1928.57-670.676,1928.222-670.687,1927.866-670.679Zm-18.411-.352a2,2,0,0,1-.583,1.353,1.641,1.641,0,0,1-.9.45,1.771,1.771,0,0,1-1.994-1.055,1.849,1.849,0,0,1,.911-2.469,1.772,1.772,0,0,1,1.916.221,1.419,1.419,0,0,1,.39.493.92.92,0,0,1,.036.1c-.2,0-.4,0-.589,0a.166.166,0,0,1-.094-.064,1.244,1.244,0,0,0-1.458-.265,1.275,1.275,0,0,0-.7.935,1.319,1.319,0,0,0,.423,1.307,1.247,1.247,0,0,0,1.834-.184c.06-.078.11-.164.162-.247a.791.791,0,0,0,.045-.1c-.186-.012-.358,0-.53-.006s-.359,0-.539,0h-.53v-.481c.094-.028,1.993-.037,2.192-.011C1909.447-671.054,1909.456-671.042,1909.455-671.031Zm1.287-1.815c-.093.155-1.379,3.471-1.384,3.569h.524l.357-.921c.044-.112.044-.113.163-.113h1.157c.035,0,.07.005.11.009l.391,1.027h.569l-1.4-3.571Zm-.242,2.024a10.15,10.15,0,0,1,.474-1.3,11.757,11.757,0,0,1,.486,1.3Z" transform="translate(-1905.811 694.841)" fill="#888"/></svg>