<svg xmlns="http://www.w3.org/2000/svg" width="92" height="85" viewBox="0 0 92 85">
    <g fill="none" fill-rule="evenodd">
        <path fill="#FF8D02" fill-rule="nonzero" d="M-.084 40.539l7.462 11.15-5.027.637c1.887 6.6 5.436 12.595 10.282 17.441C20.16 77.295 30.339 81.6 41.2 81.6c.442 0 .8.358.8.8 0 .442-.358.8-.8.8-11.29 0-21.873-4.476-29.698-12.302C6.406 65.803 2.69 59.485.746 52.53l-5.273.668 4.443-12.66zM41.2-.8c11.29 0 21.873 4.476 29.698 12.302 5.096 5.095 8.812 11.413 10.756 18.368l5.273-.668-4.443 12.66-7.462-11.15 5.027-.638c-1.887-6.6-5.436-12.595-10.282-17.441C62.24 5.105 52.061.8 41.2.8c-.442 0-.8-.358-.8-.8 0-.442.358-.8.8-.8z" transform="translate(5 1)"/>
        <g>
            <path fill="#201D14" d="M.8 0h30.4c2.21 4.149 2.011 8.513-.594 13.092C28 17.67 23.932 20.805 18.4 22.495c5.995 3.016 9.89 6.144 11.685 9.384S32.252 39.693 31.2 45.6H.8c-1.017-4.924-.335-9.543 2.045-13.857 2.38-4.315 5.966-7.429 10.755-9.343-5.77-3.563-9.514-6.85-11.235-9.862C.644 9.526.122 5.347.8 0z" transform="translate(5 1) translate(24.8 18.4)"/>
            <path fill="#FF8D02" d="M16.8 28.8c.442 0 .8.358.8.8 0 .442-.358.8-.8.8-.442 0-.8-.358-.8-.8 0-.442.358-.8.8-.8zm-2.4-3.2c.442 0 .8.358.8.8 0 .442-.358.8-.8.8-.442 0-.8-.358-.8-.8 0-.442.358-.8.8-.8zm1.6-2.4c.442 0 .8.358.8.8 0 .442-.358.8-.8.8-.442 0-.8-.358-.8-.8 0-.442.358-.8.8-.8z" transform="translate(5 1) translate(24.8 18.4)"/>
            <path fill="#50E2E4" fill-rule="nonzero" d="M32.001 0c.41 0 .748.309.795.707L32.8.8v3.312l-.005.07.005.16c.012.844-.06 1.923-.275 3.16-.36 2.065-1.048 4.107-2.147 6.021-1.973 3.436-5.076 6.124-9.474 7.76-.72.279-1.21.556-1.489.813-.166.154-.214.25-.215.295 0 .063.05.159.215.313.279.257.768.534 1.48.81 4.407 1.639 7.51 4.327 9.483 7.763 1.099 1.914 1.787 3.956 2.147 6.02.218 1.257.29 2.35.274 3.2l-.013.358v.012c.004.018.007.036.009.055l.005.093V44.8c0 .41-.309.748-.707.795l-.093.005H.801c-.411 0-.75-.31-.795-.709l-.005-.093.013-4.127-.007-.148c-.03-.865.03-2.02.253-3.366.337-2.04.984-4.06 2.016-5.954 1.857-3.404 4.781-6.07 8.928-7.694.671-.273 1.126-.544 1.383-.794.155-.151.201-.248.202-.301 0-.069-.047-.166-.202-.317-.257-.25-.712-.521-1.373-.79-4.157-1.628-7.08-4.294-8.938-7.699C1.244 11.715.596 9.696.26 7.655.056 6.422-.012 5.348.002 4.51l.01-.315L.002.803C0 .39.308.052.707.005L.8 0h31.2zm-.8 1.6H1.603l.005 2.699-.002.046c-.026.764.028 1.816.232 3.049.31 1.874.903 3.724 1.843 5.448 1.681 3.082 4.32 5.488 8.126 6.979 1.702.692 2.571 1.538 2.582 2.593-.01 1.039-.88 1.885-2.592 2.58-3.796 1.488-6.435 3.893-8.116 6.976-.94 1.724-1.533 3.574-1.843 5.448-.187 1.13-.248 2.108-.237 2.852l.011.35-.01 3.38h29.6v-2.985l.002-.058c-.007-.039-.012-.078-.014-.119l.006-.192c.028-.77-.03-1.83-.247-3.074-.329-1.89-.958-3.758-1.958-5.499-1.79-3.117-4.602-5.553-8.663-7.064-1.8-.695-2.716-1.542-2.727-2.618.011-1.058.927-1.905 2.737-2.604 4.05-1.507 6.863-3.943 8.653-7.06 1-1.741 1.63-3.608 1.958-5.499.199-1.14.264-2.126.252-2.876l-.01-.297c-.005-.068 0-.134.01-.198V1.6z" transform="translate(5 1) translate(24.8 18.4)"/>
            <path fill="#50E2E4" d="M4 41.694S6.87 34.4 16.4 34.4c8.76 0 12.4 7.294 12.4 7.294H4z" transform="translate(5 1) translate(24.8 18.4)"/>
            <path fill="#FF8D02" d="M5.6 12s5.4 7.294 10.8 7.294S27.2 12 27.2 12H5.6z" transform="translate(5 1) translate(24.8 18.4)"/>
        </g>
    </g>
</svg>
