<svg xmlns="http://www.w3.org/2000/svg" width="21.035" height="21.265" viewBox="0 0 21.035 21.265"><path d="M665.968,932.109a10.123,10.123,0,0,0-9,8.326,9.985,9.985,0,0,0,.891,6.138L656,952.042a.974.974,0,0,0,1.254,1.23l5.454-1.966a10,10,0,0,0,6.038.754,10.083,10.083,0,0,0-2.777-19.952Zm8.7,11.832a7.728,7.728,0,0,1-3.225,4.658A7.633,7.633,0,0,1,665,949.876a7.9,7.9,0,0,1-2.139-.873l-2.424.873-1.288.465a.2.2,0,0,1-.252-.248l.441-1.3.821-2.421a7.9,7.9,0,0,1-.952-2.195,7.5,7.5,0,0,1,.069-4.236,8.1,8.1,0,0,1,7.626-5.758A7.981,7.981,0,0,1,674.667,943.941Zm-3.776.04a4.245,4.245,0,0,1-.088,2.761.923.923,0,0,1-.7.254c-.059,0-.122.005-.189.005a8.246,8.246,0,0,1-4.97-2.122,3.514,3.514,0,0,1-.325-.285,3.188,3.188,0,0,1-.253-.29,8.014,8.014,0,0,1-2.117-5.158.922.922,0,0,1,.254-.7,4.243,4.243,0,0,1,2.761-.088.686.686,0,0,1,.487.554,2.8,2.8,0,0,0,.177.793c.047.143.108.33.19.6a1.139,1.139,0,0,1-.591,1.363c-.045.032-.108.075-.148.108a6.7,6.7,0,0,0,.9,1.142,7,7,0,0,0,1.2.95c.034-.041.077-.1.109-.148a1.138,1.138,0,0,1,1.362-.591c.267.082.453.143.6.19a2.826,2.826,0,0,0,.793.177A.686.686,0,0,1,670.891,943.981Z" transform="translate(-655.945 -932.067)" fill="#c7c7c7"/></svg>