<?xml version="1.0" encoding="UTF-8"?>
<svg width="217px" height="44px" viewBox="0 0 217 44" version="1.1" xmlns="http://www.w3.org/2000/svg" xmlns:xlink="http://www.w3.org/1999/xlink">
    <!-- Generator: Sketch 56.3 (81716) - https://sketch.com -->
    <title>betbaba</title>
    <desc>Created with Sketch.</desc>
    <g id="Symbols" stroke="none" stroke-width="1" fill="none" fill-rule="evenodd">
        <g id="Logo/WHITE" fill="#FFFFFF" fill-rule="nonzero">
            <g id="betbaba">
                <path d="M27.7,15.4 C26.5,14 25,12.9 23.2,12.1 C21.4,11.3 19.4,10.9 17.2,10.9 C16,10.9 14.9,11 13.9,11.1 C13,11.2 12.1,11.4 11.2,11.7 L11.2,0.3 L0.3,0.3 L0.3,40.6 C2.2,41.3 4.3,41.9 6.5,42.4 C8.7,42.9 11.2,43.1 14,43.1 C16.5,43.1 18.9,42.8 21,42.1 C23.1,41.4 25,40.4 26.5,39 C28.1,37.6 29.3,35.9 30.1,33.8 C31,31.7 31.4,29.2 31.4,26.3 C31.4,24.2 31.1,22.1 30.5,20.2 C29.9,18.4 28.9,16.8 27.7,15.4 Z M18.9,33 C17.7,34.3 16.2,35 14.3,35 C13.7,35 13.2,35 12.8,34.9 C12.4,34.8 11.9,34.7 11.4,34.6 L11.4,19.7 C11.9,19.5 12.4,19.4 12.9,19.3 C13.4,19.2 14,19.1 14.5,19.1 C16.3,19.1 17.7,19.7 18.9,21 C20.1,22.3 20.6,24.2 20.6,26.9 C20.6,29.7 20,31.7 18.9,33 Z" id="Shape"></path>
                <path d="M59.5,15.4 C56.8,12.4 53.1,10.9 48.5,10.9 C46.3,10.9 44.2,11.3 42.3,12 C40.4,12.7 38.7,13.8 37.3,15.2 C35.9,16.6 34.8,18.3 34,20.3 C33.2,22.3 32.8,24.6 32.8,27.2 C32.8,29.9 33.2,32.2 34.1,34.2 C34.9,36.2 36.1,37.9 37.5,39.2 C38.9,40.5 40.6,41.5 42.5,42.2 C44.4,42.9 46.5,43.2 48.7,43.2 C50.5,43.2 52.1,43.1 53.6,42.8 C55.1,42.5 56.3,42.1 57.5,41.5 C58.6,41 59.6,40.3 60.5,39.6 C61.4,38.9 62.1,38.1 62.8,37.3 L56,31.9 C55.2,33 54.2,33.7 53.3,34.2 C52.3,34.7 51.1,35 49.7,35 C48,35 46.6,34.5 45.4,33.5 C44.3,32.5 43.7,31 43.6,29.2 L63.6,29.2 C63.6,22.9 62.2,18.4 59.5,15.4 Z M43.7,23.3 C43.9,21.7 44.4,20.4 45.4,19.4 C46.3,18.4 47.5,17.9 48.7,17.9 C49.9,17.9 51,18.4 51.8,19.3 C52.7,20.2 53.2,21.5 53.3,23.2 L43.7,23.2 L43.7,23.3 Z" id="Shape"></path>
                <path d="M83.8,34.6 C83.1,34.9 82.4,35.1 81.6,35.1 C80.8,35.1 80.3,34.8 80.1,34.2 C79.9,33.6 79.8,32.8 79.8,31.7 L79.8,19.3 L86.9,19.3 L84.4,11.6 L79.8,11.6 L79.8,3.8 L68.6,3.8 L68.6,11.6 L64.2,11.6 L64.2,19.3 L68.6,19.3 L68.6,32.8 C68.6,34.4 68.8,35.8 69.1,37 C69.4,38.3 70,39.3 70.7,40.2 C71.5,41.1 72.5,41.8 73.7,42.3 C74.9,42.8 76.5,43 78.3,43 C80.4,43 82.3,42.7 84,42.2 C85.6,41.7 87.1,41 88.5,40 L85.7,33.3 C85.1,33.8 84.5,34.2 83.8,34.6 Z" id="Path"></path>
                <path d="M117.8,16.1 C116.6,14.7 115.1,13.6 113.3,12.8 C111.5,12 109.5,11.6 107.3,11.6 C106.1,11.6 105,11.7 104,11.8 C103.1,11.9 102.2,12.1 101.3,12.4 L101.3,1 L90.2,1 L90.2,41.3 C92.1,42 94.2,42.6 96.4,43.1 C98.6,43.6 101.1,43.8 103.9,43.8 C106.4,43.8 108.8,43.5 110.9,42.8 C113,42.1 114.9,41.1 116.4,39.7 C118,38.3 119.2,36.6 120,34.5 C120.9,32.4 121.3,29.9 121.3,27 C121.3,24.9 121,22.8 120.4,20.9 C119.9,19.1 119,17.5 117.8,16.1 Z M108.9,33.7 C107.7,35 106.2,35.7 104.3,35.7 C103.7,35.7 103.2,35.7 102.8,35.6 C102.4,35.5 101.9,35.4 101.4,35.3 L101.4,20.4 C101.9,20.2 102.4,20.1 102.9,20 C103.4,19.9 104,19.8 104.5,19.8 C106.3,19.8 107.7,20.4 108.9,21.7 C110.1,23 110.6,24.9 110.6,27.6 C110.7,30.3 110.1,32.4 108.9,33.7 Z" id="Shape"></path>
                <path d="M147.9,14.5 C145.5,12.5 142.3,11.6 138.2,11.6 C135.3,11.6 132.8,12 130.7,12.9 C128.6,13.7 126.7,14.9 125,16.4 L129.9,21.9 C130.9,21.1 132,20.5 133,20 C134.1,19.5 135.2,19.3 136.4,19.3 C137.5,19.3 138.4,19.6 139.2,20.2 C140,20.8 140.4,21.7 140.4,23 L140.4,23.8 C139.4,23.8 138.4,23.9 137.2,24 C136,24.1 134.8,24.3 133.4,24.5 C131.9,24.7 130.5,25.1 129.2,25.6 C127.9,26.1 126.7,26.8 125.8,27.6 C124.8,28.4 124,29.4 123.5,30.5 C122.9,31.6 122.6,33 122.6,34.5 C122.6,36 122.9,37.3 123.4,38.4 C123.9,39.5 124.6,40.5 125.5,41.3 C126.4,42.1 127.5,42.7 128.7,43.2 C129.9,43.6 131.2,43.8 132.7,43.8 C134.6,43.8 136.3,43.5 137.7,42.9 C139.1,42.3 140.3,41.6 141.1,40.8 L142,43.2 L151.3,43.2 L151.3,23.7 C151.5,19.6 150.3,16.5 147.9,14.5 Z M140.7,34.9 C140.2,35.3 139.6,35.7 138.9,35.9 C138.2,36.2 137.5,36.3 136.7,36.3 C135.6,36.3 134.7,36 134.1,35.4 C133.5,34.8 133.2,34.1 133.2,33.2 C133.2,32.4 133.5,31.6 134,30.9 C134.5,30.2 135.5,29.8 136.8,29.5 C137.5,29.4 138.1,29.3 138.8,29.2 C139.4,29.1 140.1,29.1 140.7,29 L140.7,34.9 L140.7,34.9 Z" id="Shape"></path>
                <path d="M183.4,16.1 C182.2,14.7 180.7,13.6 178.9,12.8 C177.1,12 175.1,11.6 172.9,11.6 C171.7,11.6 170.6,11.7 169.6,11.8 C168.7,11.9 167.8,12.1 166.9,12.4 L166.9,1 L156,1 L156,41.3 C157.9,42 160,42.6 162.2,43.1 C164.4,43.6 166.9,43.8 169.7,43.8 C172.2,43.8 174.6,43.5 176.7,42.8 C178.8,42.1 180.7,41.1 182.2,39.7 C183.8,38.3 185,36.6 185.8,34.5 C186.7,32.4 187.1,29.9 187.1,27 C187.1,24.9 186.8,22.8 186.2,20.9 C185.6,19.1 184.6,17.5 183.4,16.1 Z M174.6,33.7 C173.4,35 171.9,35.7 170,35.7 C169.4,35.7 168.9,35.7 168.5,35.6 C168.1,35.5 167.6,35.4 167.1,35.3 L167.1,20.4 C167.6,20.2 168.1,20.1 168.6,20 C169.1,19.9 169.7,19.8 170.2,19.8 C172,19.8 173.4,20.4 174.6,21.7 C175.8,23 176.3,24.9 176.3,27.6 C176.3,30.3 175.7,32.4 174.6,33.7 Z" id="Shape"></path>
                <path d="M213.6,14.5 C211.2,12.5 208,11.6 203.9,11.6 C201,11.6 198.5,12 196.4,12.9 C194.3,13.7 192.4,14.9 190.7,16.4 L195.6,21.9 C196.6,21.1 197.7,20.5 198.7,20 C199.8,19.5 200.9,19.3 202.1,19.3 C203.2,19.3 204.1,19.6 204.9,20.2 C205.7,20.8 206.1,21.7 206.1,23 L206.1,23.8 C205.1,23.8 204.1,23.9 202.9,24 C201.7,24.1 200.5,24.3 199.1,24.5 C197.6,24.7 196.2,25.1 194.9,25.6 C193.6,26.1 192.4,26.8 191.5,27.6 C190.5,28.4 189.7,29.4 189.2,30.5 C188.6,31.6 188.3,33 188.3,34.5 C188.3,36 188.6,37.3 189.1,38.4 C189.6,39.5 190.3,40.5 191.2,41.3 C192.1,42.1 193.2,42.7 194.4,43.2 C195.6,43.6 196.9,43.8 198.4,43.8 C200.3,43.8 202,43.5 203.4,42.9 C204.8,42.3 206,41.6 206.8,40.8 L207.7,43.2 L217,43.2 L217,23.7 C217.2,19.6 216,16.5 213.6,14.5 Z M206.4,34.9 C205.9,35.3 205.3,35.7 204.6,35.9 C203.9,36.2 203.2,36.3 202.4,36.3 C201.3,36.3 200.4,36 199.8,35.4 C199.2,34.8 198.9,34.1 198.9,33.2 C198.9,32.4 199.2,31.6 199.7,30.9 C200.2,30.2 201.2,29.8 202.5,29.5 C203.2,29.4 203.8,29.3 204.5,29.2 C205.1,29.1 205.8,29.1 206.4,29 L206.4,34.9 L206.4,34.9 Z" id="Shape"></path>
            </g>
        </g>
    </g>
</svg>