<?xml version="1.0" encoding="UTF-8"?>
<svg width="78px" height="112px" viewBox="0 0 78 112" version="1.1" xmlns="http://www.w3.org/2000/svg" xmlns:xlink="http://www.w3.org/1999/xlink">
    <!-- Generator: Sketch 57.1 (83088) - https://sketch.com -->
    <title>Phone</title>
    <desc>Created with Sketch.</desc>
    <defs>
        <polygon id="path-1" points="5.60443101e-05 0.0662465877 77.9038328 0.0662465877 77.9038328 111.32954 5.60443101e-05 111.32954"></polygon>
    </defs>
    <g id="Profile-Page" stroke="none" stroke-width="1" fill="none" fill-rule="evenodd">
        <g id="Profile-Security-OFF" transform="translate(-564.000000, -232.000000)">
            <g id="Group-15" transform="translate(491.000000, 232.000000)">
                <g id="Phone" transform="translate(73.038278, 0.000000)">
                    <g id="Group-3" transform="translate(0.000000, 0.209432)">
                        <mask id="mask-2" fill="white">
                            <use xlink:href="#path-1"></use>
                        </mask>
                        <g id="Clip-2"></g>
                        <path d="M77.9038888,27.7403177 L77.5166226,45.6045753 C77.5166226,47.6396463 75.828568,49.2999445 73.7557692,49.2999445 L64.0598233,49.2690809 L63.5517817,103.400865 C63.5517817,106.454987 61.0351119,108.929865 57.9294165,108.929865 C40.8672867,112.129487 22.684551,112.129487 5.62242123,108.929865 C2.51672579,108.929865 5.60443101e-05,106.454987 5.60443101e-05,103.400865 L0.508097715,7.48385276 C0.508097715,4.42973075 3.02476746,1.95485303 6.1304629,1.95485303 C23.1925927,-0.563288893 41.3750482,-0.563288893 58.4374581,1.95485303 C61.5428734,1.95485303 64.0598233,4.42973075 64.0598233,7.48385276 L64.2548575,24.1469088 L74.1430354,24.0419173 C76.215554,24.0419173 77.9038888,25.7052468 77.9038888,27.7403177" id="Fill-1" fill="#1F1D14" mask="url(#mask-2)"></path>
                    </g>
                    <path d="M71.590133,42.508567 C71.590133,44.0352146 70.3263338,45.2780271 68.7711042,45.2780271 L56.2872341,45.2780271 L56.2872341,94.7480247 C56.2872341,95.6160644 55.5670647,96.3215189 54.6871691,96.3215189 L9.14836493,96.3215189 C8.26846926,96.3215189 7.55110209,95.6160644 7.55110209,94.7480247 L7.55110209,16.3681705 C7.55110209,15.5001308 8.26846926,14.7946763 9.14836493,14.7946763 L54.6871691,14.7946763 C55.5670647,14.7946763 56.2872341,15.5001308 56.2872341,16.3681705 L56.2872341,29.0084824 L68.7711042,29.0084824 C70.3263338,29.0084824 71.590133,30.2540505 71.590133,31.7806982 L71.590133,42.508567 Z M22.4897129,9.37149472 L41.3458211,9.37149472 C42.0968148,9.37149472 42.7076978,9.97223332 42.7076978,10.710756 C42.7076978,11.4492787 42.0968148,12.0500173 41.3458211,12.0500173 L22.4897129,12.0500173 C21.7387192,12.0500173 21.1306384,11.4492787 21.1306384,10.710756 C21.1306384,9.97223332 21.7387192,9.37149472 22.4897129,9.37149472 L22.4897129,9.37149472 Z M70.797106,27.0519484 L59.6891237,27.0519484 L59.6891237,10.7438242 C59.6891237,8.02672205 57.4501536,5.82493239 54.6871691,5.82493239 C39.5075677,3.58456318 24.3279663,3.58456318 9.14836493,5.82493239 C6.38538045,5.82493239 4.14641026,8.02672205 4.14641026,10.7438242 L4.14641026,100.10507 C4.14641026,102.822172 6.38538045,105.023962 9.14836493,105.023962 C24.3279663,107.870581 39.5075677,107.870581 54.6871691,105.023962 C57.4501536,105.023962 59.6891237,102.822172 59.6891237,100.10507 L59.6891237,46.36101 L70.797106,46.36101 C72.6409638,46.36101 74.1429513,44.8839646 74.1429513,43.0734817 L74.1429513,30.3422323 C74.1429513,28.5317495 72.6409638,27.0519484 70.797106,27.0519484 L70.797106,27.0519484 Z" id="Fill-12" fill="#FF8D00"></path>
                    <path d="M38.3587154,53.076496 L25.4797329,53.076496 L25.4797329,45.8180304 C25.4797329,42.3265818 28.3688171,39.4854739 31.9192242,39.4854739 C35.4696312,39.4854739 38.3587154,42.3265818 38.3587154,45.8180304 L38.3587154,53.076496 Z M34.634571,72.0741655 L29.1506352,72.0741655 L30.5349297,62.7324046 C29.6298141,62.2556717 29.0133267,61.3159842 29.0133267,60.2330013 C29.0133267,58.6705298 30.3023458,57.4029163 31.891202,57.4029163 C33.4828604,57.4029163 34.7718795,58.6705298 34.7718795,60.2330013 C34.7718795,61.3159842 34.1553921,62.2556717 33.2474743,62.7324046 L34.634571,72.0741655 Z M43.8762777,53.076496 L42.5452253,53.076496 L42.5452253,45.8180304 C42.5452253,45.61411 42.5396209,45.4129452 42.5284121,45.2145362 L42.5256098,45.2117805 C42.4555544,43.9992805 42.1753329,42.8391385 41.7185718,41.7726897 C40.1072979,38.0139399 36.3215047,35.3684855 31.9192242,35.3684855 C26.0569893,35.3684855 21.2904208,40.0559 21.2904208,45.8180304 L21.2904208,53.076496 L19.9593684,53.076496 C18.5414473,53.076496 17.3897368,54.2090812 17.3897368,55.6034561 L17.3897368,73.4079155 C17.3897368,74.8050461 18.5414473,75.9348756 19.9593684,75.9348756 L43.8762777,75.9348756 C45.2941988,75.9348756 46.4459093,74.8050461 46.4459093,73.4079155 L46.4459093,55.6034561 C46.4459093,54.2090812 45.2941988,53.076496 43.8762777,53.076496 L43.8762777,53.076496 Z" id="Fill-14" fill="#FF8D00"></path>
                    <path d="M68.7711602,29.0084273 L47.0876167,29.0084273 C45.5323871,29.0084273 44.2685879,30.2539954 44.2685879,31.7806431 L44.2685879,42.5085119 C44.2685879,43.822972 45.2045279,44.9252447 46.454316,45.2090799 L46.454316,49.9626308 L52.6191901,45.277972 L68.7711602,45.277972 C70.3263898,45.277972 71.590189,44.0351595 71.590189,42.5085119 L71.590189,31.7806431 C71.590189,30.2539954 70.3263898,29.0084273 68.7711602,29.0084273 Z" id="Stroke-18" stroke="#FF8D00" stroke-width="0.821925867"></path>
                    <path d="M48.7360761,43 L48.7360761,41.464 L51.6800761,35.912 C51.8294102,35.6346653 51.9147426,35.392001 51.9360761,35.184 C51.9574095,34.975999 51.9680761,34.7173349 51.9680761,34.408 C51.9680761,34.2693326 51.9654094,34.1226674 51.9600761,33.968 C51.9547427,33.8133326 51.9254097,33.6773339 51.8720761,33.56 C51.8187425,33.4426661 51.7387433,33.3440004 51.6320761,33.264 C51.5254089,33.1839996 51.3707438,33.144 51.1680761,33.144 C50.9227415,33.144 50.7280768,33.2133326 50.5840761,33.352 C50.4400754,33.4906674 50.3680761,33.693332 50.3680761,33.96 L50.3680761,34.888 L48.7360761,34.888 L48.7360761,33.992 C48.7360761,33.650665 48.8000754,33.3306682 48.9280761,33.032 C49.0560767,32.7333318 49.232075,32.4720011 49.4560761,32.248 C49.6694105,32.0239989 49.9254079,31.845334 50.2240761,31.712 C50.5227442,31.578666 50.842741,31.512 51.1840761,31.512 C51.6107449,31.512 51.9760746,31.5893326 52.2800761,31.744 C52.5840776,31.8986674 52.8374084,32.109332 53.0400761,32.376 C53.232077,32.642668 53.373409,32.946665 53.4640761,33.288 C53.5547432,33.629335 53.6000761,33.9919981 53.6000761,34.376 C53.6000761,34.6533347 53.5947428,34.8853324 53.5840761,35.072 C53.5734094,35.2586676 53.5520762,35.4373325 53.5200761,35.608 C53.4880759,35.7786675 53.4347431,35.9493325 53.3600761,36.12 C53.285409,36.2906675 53.1840767,36.4986654 53.0560761,36.744 L50.6560761,41.368 L53.6000761,41.368 L53.6000761,43 L48.7360761,43 Z M55.8971737,43 L55.8971737,31.608 L60.7611737,31.608 L60.7611737,33.144 L57.5291737,33.144 L57.5291737,36.6 L60.3451737,36.6 L60.3451737,38.136 L57.5291737,38.136 L57.5291737,43 L55.8971737,43 Z M65.2982713,39.016 L64.4982713,34.888 L64.4662713,34.888 L63.6662713,39.016 L65.2982713,39.016 Z M61.2662713,43 L63.8102713,31.608 L65.1702713,31.608 L67.7142713,43 L66.0822713,43 L65.6022713,40.552 L63.3782713,40.552 L62.8982713,43 L61.2662713,43 Z" id="2FA" fill="#FF8D00" fill-rule="nonzero"></path>
                </g>
            </g>
        </g>
    </g>
</svg>