<svg xmlns="http://www.w3.org/2000/svg" xmlns:xlink="http://www.w3.org/1999/xlink" width="101" height="101" viewBox="0 0 101 101">
    <defs>
        <path id="a" d="M0 .383h94.503v59.552H0z"/>
        <path id="c" d="M.529.337H95.03V60H.53z"/>
    </defs>
    <g fill="none" fill-rule="evenodd">
        <g transform="translate(0 .417)">
            <mask id="b" fill="#fff">
                <use xlink:href="#a"/>
            </mask>
            <path fill="#FF8D00" d="M7.015 36.045c2.218-4.515 5.235-8.497 8.681-11.84 3.462-3.338 7.435-5.97 11.59-7.884a39.758 39.758 0 0 1 12.86-3.36c4.311-.328 8.581.023 12.563 1.086a33.468 33.468 0 0 1 10.881 5.005 32.43 32.43 0 0 1 5.045 4.318l-12.818 8.423 32.141 6.485 6.545-31.884-10.856 7.13a49.118 49.118 0 0 0-5.31-4.244C69.362 3.046 58.226-.32 46.257.506 19.53 2.35-.654 24.501.016 51.068a48.37 48.37 0 0 0 .922 8.286c.102.507.7.744 1.132.456a.718.718 0 0 0 .319-.643c-.495-8.215 1.188-16.277 4.626-23.122" mask="url(#b)"/>
        </g>
        <g transform="translate(4.839 39.617)">
            <mask id="d" fill="#fff">
                <use xlink:href="#c"/>
            </mask>
            <path fill="#50E2E4" d="M92.635 1.1c.519 8.248-1.164 16.36-4.62 23.238-2.216 4.513-5.233 8.497-8.68 11.84-3.462 3.337-7.435 5.97-11.59 7.884a39.764 39.764 0 0 1-12.86 3.36c-4.311.328-8.581-.023-12.563-1.087a33.855 33.855 0 0 1-10.963-5.061 32.738 32.738 0 0 1-4.963-4.269l12.819-8.415-32.141-6.493L.529 53.981l10.855-7.122a50.56 50.56 0 0 0 5.227 4.186c9.043 6.3 20.314 9.708 32.404 8.814C75.75 57.882 95.837 35.597 95.007 9.015c-.086-2.764-.401-5.47-.93-8.103-.102-.502-.694-.737-1.124-.453a.714.714 0 0 0-.318.641z" mask="url(#d)"/>
        </g>
    </g>
</svg>
