<svg xmlns="http://www.w3.org/2000/svg" width="122.541" height="51.714" viewBox="0 0 122.541 51.714"><g transform="translate(-966 -1494.199)"><path d="M98.22,459.535a.944.944,0,0,1-.943.944H90.3a.944.944,0,0,1-.944-.944.926.926,0,0,1,.012-.123h-23.4v1.166a2.28,2.28,0,0,0,2.28,2.28h50.986a2.28,2.28,0,0,0,2.28-2.28v-1.166H98.208A.925.925,0,0,1,98.22,459.535Zm-27.171,2.031a.772.772,0,1,1,.772-.772A.772.772,0,0,1,71.049,461.566Zm3.792,0a.772.772,0,1,1,.772-.772A.772.772,0,0,1,74.84,461.566Zm38.586-1.138a.2.2,0,0,1,.2-.2h3.619a.2.2,0,0,1,.2.2v.666a.2.2,0,0,1-.2.2H113.63a.2.2,0,0,1-.2-.2Z" transform="translate(900.024 1082.879)" fill="#888"/><path d="M82.953,361.887h37.618c0-.012,0-.022,0-.034a.7.7,0,0,1,.7-.7h2.751a.7.7,0,0,1,.7.7c0,.012,0,.022,0,.034h3.064a1.045,1.045,0,0,0,1.045-1.045V331.315a3.769,3.769,0,0,0-3.769-3.769H85.677a3.769,3.769,0,0,0-3.769,3.769v29.527A1.045,1.045,0,0,0,82.953,361.887Zm22.418-33.123a.891.891,0,1,1-.891.891A.891.891,0,0,1,105.37,328.764Zm-20.148,3.368a.655.655,0,0,1,.655-.655h38.985a.655.655,0,0,1,.655.655V357.34a.655.655,0,0,1-.655.655H85.878a.655.655,0,0,1-.655-.655Z" transform="translate(888.387 1179.201)" fill="#888"/><path d="M491.452,462.334h-1.487a.527.527,0,1,0,0,1.055h1.487a.527.527,0,1,0,0-1.055Z" transform="translate(590.7 1080.744)" fill="#888"/><path d="M480.314,382.454H469.331a1.641,1.641,0,0,0-1.641,1.641v21.239a1.485,1.485,0,0,0,1.485,1.485H480.47a1.485,1.485,0,0,0,1.485-1.485V384.095A1.641,1.641,0,0,0,480.314,382.454Zm-7.584,1.534h4.184a.249.249,0,0,1,0,.5h-4.184a.249.249,0,1,1,0-.5Zm2.835,21.366h-1.486a.842.842,0,1,1,0-1.683h1.486a.842.842,0,0,1,0,1.683Zm4.946-3.233a.281.281,0,0,1-.285.276H469.418a.281.281,0,0,1-.285-.276V385.988a.281.281,0,0,1,.285-.276h10.809a.281.281,0,0,1,.285.276Z" transform="translate(606.586 1139.094)" fill="#888"/><path d="M310.731,451.542l-1.2-5.3H299.2l-1.2,5.3h-2.425l-1.183,1.745h19.945l-1.183-1.745Z" transform="translate(733.173 1092.5)" fill="#888"/><path d="M222.4,285.575a.655.655,0,0,1,.656-.655h52.6a.655.655,0,0,1,.655.655v13.907h3.315V284.758a3.769,3.769,0,0,0-3.769-3.769h-53a3.769,3.769,0,0,0-3.769,3.769v7.786H222.4Zm26.955-3.368a.891.891,0,1,1-.891.891A.891.891,0,0,1,249.36,282.207Z" transform="translate(788.18 1213.21)" fill="#888"/><rect width="35.073" height="5.033" transform="translate(1018.213 1532.029)" fill="#888"/><path d="M412.5,379.888H396.658a.514.514,0,0,1-.522-.505V357.772a.514.514,0,0,1,.522-.5H416.42a.513.513,0,0,1,.522.5v2.38h2.638v-3.869a3,3,0,0,0-3-3H396.5a3,3,0,0,0-3,3V382.8a2.716,2.716,0,0,0,2.716,2.716H413a2.462,2.462,0,0,1-.5-1.485Zm-5.964-25.366a.709.709,0,1,1-.709.709A.709.709,0,0,1,406.539,354.522Zm1.275,29.59h-2.55a1.444,1.444,0,1,1,0-2.888h2.55a1.444,1.444,0,0,1,0,2.888Z" transform="translate(660.781 1160.402)" fill="#888"/><path d="M437.186,458.731h-2.452a.963.963,0,1,0,0,1.926h2.452a.963.963,0,0,0,0-1.926Z" transform="translate(631.363 1083.376)" fill="#888"/></g></svg>