<svg xmlns="http://www.w3.org/2000/svg" id="Group_936" width="21.911" height="21.912" viewBox="0 0 21.911 21.912">
    <defs>
        <style>
            .cls-1{fill:#c7c7c7}
        </style>
    </defs>
    <path id="Path_1397" d="M138.491 214.991l-4.791-1.631a.673.673 0 0 0-.44 0l-4.793 1.631a.683.683 0 0 0-.465.648v3.668c0 4.477 5 6.654 5.21 6.744a.7.7 0 0 0 .268.054.681.681 0 0 0 .268-.055c.213-.09 5.21-2.266 5.21-6.743v-3.668a.683.683 0 0 0-.465-.648zm-2.013 3.462l-2.511 3.2a.91.91 0 0 1-.628.344h-.089a.906.906 0 0 1-.593-.22l-1.6-1.369a.913.913 0 0 1 1.188-1.386l.875.75 1.922-2.446a.913.913 0 0 1 1.435 1.128z" class="cls-1" transform="translate(-122.522 -204.194)"/>
    <path id="Path_1398" d="M19.173 0H2.739A2.747 2.747 0 0 0 0 2.739v14.608a2.747 2.747 0 0 0 2.739 2.739H5.46a8.833 8.833 0 0 1-1.123-1.826h-1.6a.916.916 0 0 1-.913-.913V4.565h18.26v12.782a.916.916 0 0 1-.913.913h-1.6a9.206 9.206 0 0 1-1.114 1.826h2.712a2.747 2.747 0 0 0 2.739-2.739V2.739A2.747 2.747 0 0 0 19.173 0z" class="cls-1"/>
</svg>
