<svg xmlns="http://www.w3.org/2000/svg" xmlns:xlink="http://www.w3.org/1999/xlink" width="98" height="113" viewBox="0 0 98 113">
    <defs>
        <path id="a" d="M.314.06H47.44v65.764H.314z"/>
        <path id="c" d="M0 .147h89.523V41H0z"/>
        <path id="e" d="M0 0h97.484v112.883H0z"/>
    </defs>
    <g fill="none" fill-rule="evenodd">
        <g transform="translate(27 3)">
            <mask id="b" fill="#fff">
                <use xlink:href="#a"/>
            </mask>
            <path fill="#FF8D00" d="M1.767 32.353c-.397.209-2.54 1.605-.747 6.195 1.125 2.883 1.945 3.98 2.31 4.365h.005c.337 0 .675.07.99.217a2.34 2.34 0 0 1 1.347 1.859c.006.052.794 6.098 5.568 10.683.74.712.93 1.821.469 2.737-.098.249-.704 2.091-1.23 3.738C15 64.891 24.71 68.88 36 62.04a2.338 2.338 0 0 1-.478-.984c-.657-3.169-.794-3.829-.014-4.782.06-.073.121-.14.188-.205 2.075-2.15 4.732-5.768 5.728-10.865.322-1.645 1.378-2.064 2.014-2.163.236-.134 1.8-1.168 3.418-5.845 1.27-3.674-1.001-4.857-1.103-4.899-1.983-.834-2.039-.799-1.154-2.92.208-.501.49-1.167.828-1.908.64-1.402 1.517-3.324 1.74-4.659.402-2.409.328-5.612-.022-6.433-1.97-2.476-4.72-6.453-6.09-9.633C40.258 4.888 35.534.083 23.414.06c-.95.083-13.168 1.324-19.256 11.094C.482 17.72 1.853 24.012 2.76 28.175c.128.583.227 1.125.338 1.608.443 1.931.876 1.619-1.331 2.57" mask="url(#b)"/>
        </g>
        <g transform="translate(5 67)">
            <mask id="d" fill="#fff">
                <use xlink:href="#c"/>
            </mask>
            <path fill="#FF8D00" d="M80.652 8.834C77.823 6.81 66.664 2.417 60.533.147c-6.42 4.799-10.574 5.551-15.937 5.551-8.394 0-13.019-2.99-15.682-4.924-5.747 1.627-17.086 5.335-20.05 7.457C4.926 11.05 3.058 13.103.06 32.217c-.159.831-.005 1.417.501 2.043C2.593 36.778 11.035 41 44.758 41c32.387 0 41.949-3.423 44.266-6.296.455-.564.585-1.086.448-1.798-3.012-19.2-4.88-21.251-8.82-24.072" mask="url(#d)"/>
        </g>
        <g>
            <mask id="f" fill="#fff">
                <use xlink:href="#e"/>
            </mask>
            <path fill="#1F1D14" d="M92.318 102.044c-2.282 2.797-11.696 6.132-43.579 6.132-33.199 0-41.51-4.112-43.511-6.564-.498-.61-.65-1.18-.493-1.988 2.95-18.612 4.789-20.612 8.669-23.357 2.916-2.066 14.08-5.677 19.737-7.26 2.621 1.883 7.174 4.794 15.438 4.794 5.279 0 9.368-.733 15.69-5.407 6.033 2.212 17.021 6.49 19.807 8.46 3.878 2.746 5.717 4.744 8.681 23.44.137.693.01 1.2-.44 1.75M31.116 49.85a2.348 2.348 0 0 0-2.32-2.088h-.005c-.361-.386-1.176-1.487-2.295-4.383-1.78-4.614.349-6.016.743-6.227.397-.182.716-.47.948-.814.11.02.243.026.402.042 1.453.194 1.206 2.045 2.88 5.83 1.325 3.001 4.084 3.456 7.264 3.456 3.179 0 5.1-.444 6.442-1.546 1.344-1.107 2.41-5.28 2.714-6.47.19-.747.841-.899 1.241-.91.11-.002.43 0 .51 0 .387-.002 1.108.126 1.31.91.309 1.187 1.373 5.363 2.716 6.47 1.344 1.102 3.261 1.546 6.442 1.546s5.94-.455 7.265-3.455c1.611-3.647 1.455-5.483 2.74-5.788.21.274.475.51.8.674.097.048 2.357 1.23 1.094 4.921-1.605 4.698-3.159 5.738-3.393 5.873-.632.1-1.68.52-2 2.172-.99 5.122-3.627 8.755-5.687 10.917a2.28 2.28 0 0 0-.187.206c-.774.959-.638 1.621.016 4.804.075.372.246.704.475.99-11.21 6.872-20.852 2.865-25.343.11.522-1.656 1.124-3.509 1.222-3.757.459-.922.27-2.035-.467-2.75-4.739-4.606-5.52-10.68-5.527-10.733m15.813-13.58l-.028.938s-.39 3.594-1.809 5.474c-.872 1.156-2.028 2.016-6.36 2.016-4.33 0-5.947-1.078-7.072-4.642-1.317-4.228-.577-5.306-.577-5.306.386-.775 2.88-1.135 7.868-1.023 4.99.11 8.252.275 7.978 2.542m20.25 3.787c-1.122 3.564-2.74 4.642-7.07 4.642-4.333 0-5.49-.86-6.36-2.016-1.42-1.88-1.81-5.474-1.81-5.474l-.028-.939c-.274-2.267 2.988-2.432 7.978-2.542 4.99-.112 7.484.248 7.867 1.023 0 0 .74 1.078-.577 5.306m-37.566-24.2C35.656 6.036 47.788 4.79 48.732 4.707c12.032.023 16.723 4.851 17.514 6.713 1.361 3.196 4.093 7.192 6.047 9.68.346.827.421 4.043.023 6.464-.222 1.34-1.093 3.27-1.729 4.68-.064.142-.116.263-.177.397-1.377-.082-5.253-.297-8.85-.297-4.47 0-9.103.58-9.103.58s-.328-.028-1.014.69c-.624.656-1.818.714-2.023.719-.207-.005-1.4-.062-2.025-.719-.686-.718-1.014-.69-1.014-.69s-4.634-.58-9.103-.58c-3.87 0-8.06.247-9.117.314-.898-4.182-2.115-10.358 1.45-16.804m67.744 83.613c-3.095-19.52-5.363-22.762-10.595-26.466-4.135-2.927-17.3-7.713-21.69-9.27-.018-.096-.034-.19-.053-.28 2.223-2.526 4.772-6.358 5.974-11.521 1.56-.922 3.638-3.136 5.43-8.378 1.518-4.438.085-7.546-1.61-9.3l.028-.06c.784-1.738 1.761-3.902 2.083-5.855.012-.075 1.162-7.46-.914-10.09-1.432-1.815-4.195-5.686-5.47-8.681C69.028 6.014 62.714 0 48.643 0a2.1 2.1 0 0 0-.147.005c-.62.039-15.298 1.1-22.907 13.462-4.565 8.245-2.914 15.909-1.928 20.487a.222.222 0 0 0 .008.036c-1.965 1.825-3.703 5.453-1.525 11.095.995 2.58 2.488 5.845 4.65 7.014.556 2.377 1.999 6.81 5.543 10.765-.156.47-.356 1.083-.61 1.88-4.24 1.147-16.818 4.705-21.008 7.671-5.231 3.703-7.5 6.944-10.582 26.382-.41 2.106.103 4.113 1.485 5.805 2.9 3.556 10.939 8.281 47.117 8.281 36.148 0 44.204-4.194 47.186-7.849 1.33-1.63 1.818-3.583 1.43-5.566" mask="url(#f)"/>
        </g>
    </g>
</svg>
