<?xml version="1.0" encoding="utf-8"?>
<!-- Generator: Adobe Illustrator 22.1.0, SVG Export Plug-In . SVG Version: 6.00 Build 0)  -->
<svg version="1.1" id="Layer_1" xmlns="http://www.w3.org/2000/svg" xmlns:xlink="http://www.w3.org/1999/xlink" x="0px" y="0px"
	 viewBox="0 0 24 24" style="enable-background:new 0 0 24 24;" xml:space="preserve">
<style type="text/css">
	.st0{fill:#EEEEEE;}
</style>
<path class="st0" d="M10.5,12l-3.7,3.7c-0.4,0.4-0.4,1.1,0,1.5c0.2,0.2,0.5,0.3,0.8,0.3V17v0.5c0.3,0,0.6-0.1,0.8-0.3l3.7-3.7
	l3.7,3.7c0.4,0.4,1.1,0.4,1.5,0c0,0,0,0,0,0c0.4-0.4,0.4-1.1,0-1.5L13.5,12l3.7-3.7c0.4-0.4,0.4-1.1-0.1-1.5c-0.4-0.4-1-0.4-1.4,0
	L12,10.5L8.3,6.8C7.9,6.4,7.2,6.4,6.8,6.9c-0.4,0.4-0.4,1.1,0,1.5L10.5,12L10.5,12z M12,23C5.9,23,1,18.1,1,12S5.9,1,12,1
	s11,4.9,11,11S18.1,23,12,23z"/>
</svg>
