<?xml version="1.0" standalone="no"?>
<!DOCTYPE svg PUBLIC "-//W3C//DTD SVG 1.1//EN" "http://www.w3.org/Graphics/SVG/1.1/DTD/svg11.dtd" >
<svg xmlns="http://www.w3.org/2000/svg">
<metadata>Generated by IcoMoon</metadata>
<defs>
<font id="icomoon" horiz-adv-x="1024">
<font-face units-per-em="1024" ascent="960" descent="-64" />
<missing-glyph horiz-adv-x="1024" />
<glyph unicode="&#x20;" horiz-adv-x="512" d="" />
<glyph unicode="&#xe900;" glyph-name="live-casino-holdem" d="M837.818 321.164h-188.509v-46.545h193.164c23.273 0 41.891 18.618 41.891 41.891v544.582c0 23.273-18.618 41.891-41.891 41.891h-404.945c-23.273 0-41.891-18.618-41.891-41.891v-207.127h46.545v202.473h395.636v-535.273zM260.655 381.673c-18.618-53.527 4.655-90.764 58.182-128 4.655-2.327 18.618-13.964 18.618-13.964 6.982-4.655 11.636-9.309 16.291-11.636 4.655-4.655 6.982-6.982 9.309-9.309 9.309-16.291 32.582-16.291 41.891 0 0 2.327 4.655 4.655 9.309 9.309 4.655 2.327 9.309 6.982 16.291 11.636 0 0 13.964 11.636 18.618 13.964 53.527 37.236 74.473 74.473 58.182 128-18.618 55.855-86.109 69.818-123.345 41.891-37.236 27.927-104.727 13.964-123.345-41.891zM365.382 276.945c-2.327 0-13.964 11.636-18.618 13.964-39.564 27.927-51.2 46.545-41.891 76.8s51.2 30.255 55.855 11.636c4.655-25.6 39.564-25.6 46.545 0 4.655 20.945 46.545 18.618 55.855-11.636s-2.327-48.873-41.891-76.8c-4.655-2.327-18.618-11.636-18.618-13.964-6.982-4.655-13.964-9.309-18.618-13.964-4.655 4.655-11.636 9.309-18.618 13.964zM586.473 623.709h-404.945c-23.273 0-41.891-18.618-41.891-41.891v-521.309c0-23.273 18.618-41.891 41.891-41.891h402.618c23.273 0 41.891 18.618 41.891 41.891v521.309c2.327 23.273-16.291 41.891-39.564 41.891zM581.818 65.164h-395.636v512h395.636v-512zM598.109 653.964c20.945 16.291 34.909 27.927 41.891 37.236 9.309-9.309 23.273-20.945 41.891-37.236 39.564-32.582 48.873-46.545 48.873-60.509 0-20.945-9.309-34.909-25.6-44.218-4.655-2.327-11.636-4.655-20.945-4.655-6.982 0-16.291 0-23.273 2.327l-11.636 4.655v-39.564c23.273-6.982 53.527-6.982 72.145 2.327 30.255 13.964 46.545 41.891 46.545 76.8 0 32.582-18.618 55.855-62.836 90.764-34.909 27.927-41.891 34.909-44.218 41.891-6.982 20.945-37.236 20.945-44.218 0-2.327-6.982-9.309-13.964-44.218-41.891-13.964-9.309-23.273-18.618-32.582-27.927h58.182zM649.309 505.018c2.327 0 4.655 0 6.982 0 4.655-2.327 9.309-2.327 16.291-4.655 4.655-2.327 11.636-4.655 11.636-4.655 11.636-4.655 18.618-18.618 13.964-30.255s-18.618-18.618-30.255-13.964c0 0-9.309 4.655-11.636 4.655s-2.327 0-4.655 2.327z" />
<glyph unicode="&#xe901;" glyph-name="casino-oyunlar" d="M681.891 560.873c-148.945 0-272.291-121.018-272.291-272.291 0-148.945 121.018-272.291 272.291-272.291 151.273 2.327 272.291 123.345 272.291 274.618 0 148.945-121.018 269.964-272.291 269.964zM681.891 65.164c-123.345 0-225.745 100.073-225.745 225.745s100.073 225.745 225.745 225.745 225.745-102.4 225.745-225.745-100.073-225.745-225.745-225.745zM374.691 251.345c-53.527 6.982-100.073 25.6-137.309 55.855l46.545 46.545c23.273-16.291 51.2-25.6 83.782-32.582l6.982 46.545c-86.109 13.964-130.327 72.145-130.327 169.891 0 104.727 83.782 188.509 188.509 188.509 97.745 0 155.927-44.218 169.891-130.327l46.545 6.982c-4.655 32.582-16.291 60.509-32.582 83.782l46.545 46.545c30.255-37.236 51.2-83.782 55.855-137.309l46.545 4.655c-16.291 169.891-151.273 279.273-330.473 279.273-188.509 0-342.109-153.6-342.109-342.109 0-179.2 109.382-314.182 276.945-332.8l4.655 46.545zM200.145 560.873h-58.182c4.655 65.164 30.255 123.345 69.818 167.564l41.891-41.891c-30.255-34.909-48.873-76.8-53.527-125.673zM286.255 719.127l-41.891 44.218c46.545 39.564 104.727 65.164 167.564 69.818v-60.509c-48.873-4.655-90.764-23.273-125.673-53.527zM458.473 833.164c69.818-4.655 128-25.6 174.545-65.164l-44.218-44.218c-32.582 27.927-76.8 44.218-130.327 48.873v60.509zM139.636 514.327h60.509c4.655-53.527 20.945-97.745 48.873-130.327l-44.218-44.218c-37.236 46.545-60.509 104.727-65.164 174.545zM409.6 100.073c-30.255-16.291-69.818-4.655-86.109 25.6l18.618-4.655 13.964 44.218-93.091 30.255-30.255-93.091 44.218-13.964 6.982 18.618c30.255-53.527 95.418-74.473 148.945-46.545l32.582 16.291-23.273 39.564-32.582-16.291zM856.436 630.691l-11.636 16.291-37.236-25.6 55.855-81.455 81.455 55.855-25.6 37.236-16.291-11.636c9.309 60.509-30.255 116.364-90.764 128l-34.909 6.982-9.309-46.545 34.909-6.982c34.909-6.982 58.182-37.236 53.527-72.145zM679.564 195.491c-9.309 0-18.618-2.327-23.273-9.309s-9.309-13.964-9.309-23.273c0-9.309 2.327-16.291 9.309-23.273s13.964-9.309 23.273-9.309 18.618 2.327 23.273 9.309 9.309 13.964 9.309 23.273c0 9.309-2.327 16.291-9.309 23.273s-13.964 9.309-23.273 9.309zM684.218 437.527c-27.927 0-51.2-6.982-67.491-20.945s-25.6-34.909-25.6-60.509h58.182c0 11.636 2.327 18.618 9.309 25.6s13.964 9.309 23.273 9.309c20.945 0 32.582-11.636 32.582-34.909 0-6.982-2.327-13.964-6.982-20.945s-11.636-16.291-25.6-27.927-20.945-23.273-25.6-32.582-6.982-25.6-6.982-46.545h51.2v11.636c2.327 13.964 6.982 25.6 18.618 34.909l16.291 16.291c13.964 11.636 20.945 23.273 27.927 34.909s6.982 20.945 6.982 32.582c0 25.6-6.982 44.218-23.273 58.182s-34.909 20.945-62.836 20.945z" />
<glyph unicode="&#xe902;" glyph-name="casino-favoriler" d="M346.764 728.436c-37.236 0-72.145-16.291-100.073-48.873-30.255-34.909-48.873-86.109-46.545-137.309 0-18.618 2.327-39.564 6.982-55.855 6.982-30.255 37.236-95.418 195.491-232.727 30.255-27.927 76.8-62.836 102.4-83.782 25.6 20.945 58.182 48.873 97.745 83.782 153.6 141.964 183.855 207.127 188.509 235.055 4.655 20.945 6.982 39.564 6.982 60.509 0 100.073-67.491 181.527-146.618 181.527 0 0-2.327 0-2.327 0-51.2 0-97.745-32.582-125.673-83.782-4.655-11.636-16.291-16.291-25.6-16.291s-20.945 6.982-25.6 16.291c-27.927 51.2-74.473 81.455-125.673 81.455zM505.018 95.418c-4.655 0-9.309 2.327-13.964 4.655-2.327 0-2.327 2.327-4.655 2.327l-9.309 6.982c-23.273 18.618-74.473 58.182-109.382 90.764-134.982 118.691-204.8 202.473-218.764 267.636-6.982 20.945-9.309 46.545-9.309 74.473 0 69.818 23.273 137.309 65.164 186.182 37.236 44.218 88.436 67.491 141.964 67.491v0c60.509 0 114.036-27.927 153.6-74.473 37.236 48.873 93.091 76.8 151.273 79.127h4.655c111.709 0 204.8-111.709 207.127-249.018 0-25.6-2.327-51.2-9.309-76.8-11.636-62.836-79.127-151.273-209.455-272.291-48.873-46.545-90.764-81.455-121.018-102.4-6.982-2.327-13.964-4.655-18.618-4.655zM730.764 488.727c0 0-2.327 0-2.327 0-9.309 2.327-13.964 11.636-11.636 20.945l2.327 9.309c2.327 9.309 4.655 20.945 4.655 30.255 0 53.527-32.582 95.418-72.145 95.418-9.309 0-16.291 6.982-16.291 16.291s6.982 16.291 16.291 16.291c55.855 0 102.4-58.182 102.4-130.327 0-13.964-2.327-27.927-4.655-41.891l-2.327-6.982c-2.327-4.655-9.309-9.309-16.291-9.309z" />
<glyph unicode="&#xe903;" glyph-name="casino-klasik-slotlar" d="M279.273 833.164l-162.909-242.036 407.273-525.964 407.273 525.964-162.909 242.036h-488.727zM546.909 793.6h179.2l-76.8-160.582-102.4 160.582zM321.164 793.6h179.2l-102.4-160.582-76.8 160.582zM761.018 774.982l109.382-160.582h-186.182l76.8 160.582zM286.255 774.982l79.127-160.582h-186.182l107.055 160.582zM523.636 756.364l90.764-144.291h-183.855l93.091 144.291zM665.6 572.509h200.145l-297.891-386.327 97.745 386.327zM421.236 572.509h204.8l-102.4-395.636-102.4 395.636zM181.527 572.509h200.145l100.073-388.655-300.218 388.655z" />
<glyph unicode="&#xe904;" glyph-name="casino-mini-oyunlar" d="M169.891 514.327h-46.545c0-118.691 174.545-207.127 388.655-207.127 211.782 0 388.655 88.436 388.655 207.127h-46.545c0-83.782-151.273-160.582-342.109-160.582s-342.109 74.473-342.109 160.582zM977.455 530.618c-30.255 107.055-104.727 176.873-239.709 209.455l-11.636-46.545c118.691-27.927 176.873-83.782 204.8-174.545v-169.891c-23.273-97.745-202.473-190.836-418.909-190.836s-397.964 93.091-418.909 193.164v169.891c30.255 90.764 88.436 146.618 204.8 174.545l-11.636 44.218c-132.655-32.582-204.8-100.073-239.709-209.455v-186.182c23.273-128 225.745-232.727 465.455-232.727 237.382 0 437.527 104.727 465.455 232.727v186.182zM560.873 670.255l-4.655-46.545c111.709-11.636 188.509-62.836 188.509-111.709 0-11.636-4.655-25.6-13.964-37.236l37.236-27.927c16.291 20.945 23.273 41.891 23.273 65.164 0 81.455-97.745 144.291-230.4 158.255zM444.509 623.709l-4.655 46.545c-132.655-13.964-230.4-72.145-230.4-148.945 0-27.927 13.964-55.855 37.236-76.8l32.582 34.909c-16.291 13.964-23.273 27.927-23.273 41.891 0 44.218 76.8 90.764 188.509 102.4zM395.636 716.8h93.091v-128l-46.545-37.236v-160.582h46.545v137.309l23.273 18.618 23.273-18.618v-137.309h46.545v160.582l-46.545 37.236v128h93.091v-23.273h46.545v93.091h-46.545v-23.273h-93.091v23.273h23.273v46.545h-93.091v-46.545h23.273v-23.273h-93.091v23.273h-46.545v-93.091h46.545z" />
<glyph unicode="&#xe905;" glyph-name="casino-populer" d="M512 302.545c6.982 0 13.964-2.327 18.618-6.982l146.618-111.709-55.855 181.527c-4.655 13.964 0 27.927 11.636 37.236l146.618 111.709h-181.527c-13.964 0-25.6 9.309-30.255 23.273l-55.855 179.2-55.855-181.527c-4.655-13.964-16.291-23.273-30.255-23.273h-181.527l146.618-111.709c11.636-9.309 16.291-23.273 11.636-37.236l-55.855-181.527 146.618 111.709c4.655 6.982 11.636 9.309 18.618 9.309zM737.745 65.164c-6.982 0-13.964 2.327-18.618 6.982l-207.127 155.927-207.127-158.255c-11.636-9.309-25.6-9.309-37.236 0s-16.291 23.273-11.636 37.236l79.127 253.673-207.127 158.255c-11.636 9.309-16.291 23.273-11.636 37.236s16.291 23.273 30.255 23.273h256l79.127 253.673c4.655 13.964 16.291 23.273 30.255 23.273s25.6-9.309 30.255-23.273l79.127-253.673h256c13.964 0 25.6-9.309 30.255-23.273s0-27.927-11.636-37.236l-207.127-158.255 79.127-253.673c4.655-13.964 0-27.927-11.636-37.236-6.982-2.327-11.636-4.655-18.618-4.655z" />
<glyph unicode="&#xe906;" glyph-name="casino-video-slots" d="M912.291 702.836c-2.327 13.964-16.291 25.6-30.255 25.6-242.036 30.255-486.4 30.255-728.436 0-13.964 0-25.6-11.636-30.255-25.6-41.891-172.218-41.891-346.764 0-518.982 4.655-13.964 16.291-25.6 30.255-27.927 121.018-13.964 242.036-20.945 363.055-20.945s242.036 6.982 363.055 20.945c13.964 2.327 25.6 11.636 30.255 25.6 44.218 174.545 44.218 349.091 2.327 521.309zM863.418 211.782c-230.4-25.6-463.127-25.6-693.527 0-32.582 153.6-32.582 307.2 0 460.8 230.4 25.6 463.127 25.6 693.527 0 34.909-151.273 34.909-307.2 0-460.8zM667.927 495.709l-214.109 121.018c-9.309 4.655-20.945 9.309-30.255 9.309-30.255 0-51.2-23.273-51.2-53.527v-242.036c0-30.255 20.945-53.527 51.2-53.527 9.309 0 20.945 2.327 30.255 9.309l214.109 121.018c18.618 9.309 30.255 27.927 30.255 46.545 0 13.964-11.636 30.255-30.255 41.891zM430.545 342.109v211.782l209.455-107.055-209.455-104.727z" />
<glyph unicode="&#xe907;" glyph-name="casino-yeni" d="M512 856.436c-218.764 0-395.636-176.873-395.636-395.636s176.873-395.636 395.636-395.636 395.636 176.873 395.636 395.636-176.873 395.636-395.636 395.636zM488.727 190.836v-76.8c-46.545 2.327-90.764 16.291-130.327 34.909l39.564 67.491c27.927-13.964 58.182-23.273 90.764-25.6zM535.273 190.836c32.582 2.327 62.836 11.636 90.764 25.6l39.564-67.491c-39.564-18.618-83.782-32.582-130.327-34.909v76.8zM512 235.055c-123.345 0-225.745 100.073-225.745 225.745s100.073 225.745 225.745 225.745 225.745-100.073 225.745-225.745-102.4-225.745-225.745-225.745zM242.036 484.073h-76.8c2.327 46.545 16.291 90.764 34.909 130.327l67.491-39.564c-13.964-27.927-23.273-58.182-25.6-90.764zM242.036 437.527c2.327-32.582 11.636-62.836 25.6-90.764l-67.491-39.564c-20.945 39.564-32.582 83.782-34.909 130.327h76.8zM535.273 730.764v76.8c46.545-2.327 90.764-16.291 130.327-34.909l-39.564-67.491c-27.927 13.964-58.182 23.273-90.764 25.6zM488.727 730.764c-32.582-2.327-62.836-11.636-90.764-25.6l-39.564 67.491c39.564 20.945 83.782 32.582 130.327 34.909v-76.8zM781.964 437.527h76.8c-2.327-46.545-16.291-90.764-34.909-130.327l-67.491 39.564c13.964 27.927 23.273 58.182 25.6 90.764zM781.964 484.073c-2.327 32.582-11.636 62.836-25.6 90.764l67.491 39.564c18.618-39.564 32.582-83.782 34.909-130.327h-76.8zM802.909 653.964l-67.491-39.564c-18.618 25.6-41.891 48.873-67.491 67.491l39.564 67.491c37.236-23.273 69.818-55.855 95.418-95.418zM318.836 751.709l39.564-67.491c-25.6-18.618-48.873-41.891-67.491-67.491l-67.491 39.564c23.273 37.236 55.855 69.818 95.418 95.418zM221.091 267.636l67.491 39.564c18.618-25.6 41.891-48.873 67.491-67.491l-39.564-67.491c-37.236 23.273-69.818 55.855-95.418 95.418zM705.164 169.891l-39.564 67.491c25.6 18.618 48.873 41.891 67.491 67.491l67.491-39.564c-23.273-37.236-55.855-69.818-95.418-95.418z" />
<glyph unicode="&#xe908;" glyph-name="casino-bakara" d="M842.473 623.709h-404.945c-23.273 0-41.891-18.618-41.891-41.891v-521.309c0-23.273 18.618-41.891 41.891-41.891h402.618c23.273 0 41.891 18.618 41.891 41.891v521.309c2.327 23.273-16.291 41.891-39.564 41.891zM837.818 65.164h-395.636v512h395.636v-512zM186.182 856.436h395.636v-202.473h46.545v207.127c0 23.273-18.618 41.891-41.891 41.891h-404.945c-23.273 0-41.891-18.618-41.891-41.891v-544.582c0-23.273 18.618-41.891 41.891-41.891h193.164v46.545h-188.509v535.273zM684.218 216.436c0 0-6.982 2.327-11.636 4.655s-11.636 4.655-16.291 4.655c-6.982 2.327-11.636 2.327-16.291 2.327s-9.309 0-16.291-2.327c-4.655-2.327-9.309-2.327-16.291-4.655-4.655-2.327-11.636-4.655-11.636-4.655-11.636-4.655-18.618-18.618-13.964-30.255s18.618-18.618 30.255-13.964c0 0 9.309 4.655 11.636 4.655 4.655 2.327 6.982 2.327 9.309 2.327s4.655 0 4.655 0 2.327 0 4.655 0 6.982-2.327 9.309-2.327c2.327 0 11.636-4.655 11.636-4.655 11.636-4.655 25.6 2.327 30.255 13.964 6.982 11.636 2.327 25.6-9.309 30.255zM558.545 235.055c20.945-9.309 55.855-9.309 81.455 0 25.6-11.636 60.509-11.636 81.455 0 30.255 13.964 46.545 41.891 46.545 76.8 0 32.582-18.618 55.855-62.836 90.764-34.909 27.927-41.891 34.909-44.218 41.891-6.982 20.945-37.236 20.945-44.218 0-2.327-6.982-9.309-13.964-44.218-41.891-41.891-34.909-62.836-55.855-62.836-90.764 2.327-34.909 18.618-60.509 48.873-76.8zM602.764 367.709c16.291 13.964 27.927 23.273 37.236 30.255 9.309-6.982 20.945-16.291 37.236-30.255 32.582-25.6 44.218-39.564 44.218-53.527 0-18.618-6.982-27.927-20.945-34.909-9.309-4.655-37.236-2.327-44.218 2.327-9.309 6.982-23.273 6.982-30.255 0s-34.909-6.982-44.218-2.327c-13.964 6.982-20.945 18.618-20.945 34.909-2.327 11.636 9.309 27.927 41.891 53.527zM535.273 653.964v100.073h-23.273c-20.945 0-34.909 13.964-34.909 32.582v23.273h-183.855v-23.273c0-18.618-16.291-32.582-34.909-32.582h-23.273v-328.145h23.273c20.945 0 34.909-13.964 34.909-32.582v-23.273h81.455v46.545h-39.564c-6.982 25.6-27.927 46.545-55.855 53.527v239.709c25.6 6.982 46.545 27.927 55.855 53.527h97.745c6.982-25.6 27.927-46.545 55.855-53.527v-55.855h46.545zM209.455 833.164h46.545v-46.545h-46.545v46.545zM209.455 390.982h46.545v-46.545h-46.545v46.545zM488.727 833.164h46.545v-46.545h-46.545v46.545z" />
<glyph unicode="&#xe909;" glyph-name="live-casino-blackjack" d="M721.455 574.836c46.545-41.891 134.982-20.945 155.927 55.855 20.945 74.473-6.982 123.345-74.473 179.2-4.655 4.655-23.273 18.618-25.6 20.945-9.309 6.982-16.291 13.964-20.945 18.618-6.982 6.982-11.636 13.964-13.964 18.618-6.982 18.618-34.909 18.618-41.891 0-2.327-4.655-6.982-11.636-13.964-18.618-4.655-4.655-11.636-11.636-20.945-18.618-2.327-2.327-20.945-16.291-25.6-20.945-67.491-55.855-95.418-104.727-74.473-179.2 20.945-76.8 109.382-97.745 155.927-55.855zM667.927 772.655c4.655 4.655 23.273 18.618 25.6 20.945 9.309 9.309 18.618 13.964 23.273 20.945 2.327 2.327 2.327 2.327 4.655 4.655 2.327-2.327 2.327-2.327 4.655-4.655 6.982-6.982 13.964-11.636 23.273-20.945 2.327-2.327 20.945-16.291 25.6-20.945 55.855-44.218 72.145-76.8 58.182-130.327-13.964-48.873-74.473-55.855-90.764-18.618-6.982 18.618-34.909 18.618-44.218 0-13.964-37.236-76.8-30.255-90.764 18.618-11.636 51.2 6.982 86.109 60.509 130.327zM325.818 828.509c-48.873 51.2-153.6 30.255-179.2-58.182-23.273-83.782 6.982-139.636 83.782-202.473 6.982-4.655 27.927-23.273 30.255-23.273 11.636-9.309 18.618-13.964 25.6-20.945 9.309-9.309 13.964-16.291 18.618-23.273 9.309-18.618 34.909-18.618 41.891 0 2.327 6.982 9.309 13.964 18.618 23.273 6.982 6.982 13.964 11.636 25.6 20.945 2.327 2.327 23.273 18.618 30.255 23.273 76.8 62.836 109.382 118.691 83.782 202.473-25.6 88.436-130.327 109.382-179.2 58.182zM390.982 602.764c-6.982-4.655-27.927-20.945-30.255-23.273-11.636-9.309-20.945-16.291-27.927-23.273-2.327-2.327-4.655-4.655-6.982-6.982-2.327 2.327-4.655 4.655-6.982 6.982-6.982 6.982-16.291 13.964-27.927 23.273-2.327 2.327-23.273 18.618-30.255 23.273-65.164 53.527-86.109 93.091-69.818 153.6 18.618 65.164 100.073 69.818 111.709 16.291 4.655-25.6 41.891-25.6 46.545 0 9.309 53.527 93.091 48.873 111.709-16.291 16.291-62.836-4.655-102.4-69.818-153.6zM498.036 272.291c-51.2 18.618-130.327 97.745-148.945 148.945-6.982 20.945-34.909 20.945-44.218 0-18.618-51.2-97.745-130.327-148.945-148.945-20.945-6.982-20.945-34.909 0-44.218 51.2-18.618 130.327-97.745 148.945-148.945 6.982-20.945 34.909-20.945 44.218 0 18.618 51.2 97.745 130.327 148.945 148.945 18.618 9.309 18.618 37.236 0 44.218zM325.818 137.309c-27.927 41.891-72.145 86.109-114.036 114.036 41.891 27.927 86.109 72.145 114.036 114.036 27.927-41.891 72.145-86.109 114.036-114.036-41.891-27.927-86.109-72.145-114.036-114.036zM768 111.709h-93.091c-13.964 0-23.273-9.309-23.273-23.273s9.309-23.273 23.273-23.273h93.091c13.964 0 23.273 9.309 23.273 23.273s-9.309 23.273-23.273 23.273zM674.909 530.618c-13.964 0-23.273-9.309-23.273-23.273s9.309-23.273 23.273-23.273h93.091c13.964 0 23.273 9.309 23.273 23.273s-9.309 23.273-23.273 23.273h-93.091zM805.236 330.473c2.327 6.982 2.327 11.636 2.327 18.618 0 48.873-37.236 88.436-86.109 88.436s-86.109-39.564-86.109-88.436c0-6.982 0-11.636 2.327-18.618-44.218-9.309-79.127-48.873-79.127-97.745 0-53.527 41.891-97.745 93.091-97.745 25.6 0 51.2 11.636 69.818 27.927 18.618-16.291 44.218-27.927 69.818-27.927 51.2 0 93.091 44.218 93.091 97.745 0 48.873-34.909 88.436-79.127 97.745zM791.273 181.527c-18.618 0-39.564 13.964-46.545 30.255-6.982 18.618-34.909 18.618-41.891 0-6.982-16.291-27.927-30.255-46.545-30.255-25.6 0-46.545 23.273-46.545 51.2s20.945 51.2 46.545 51.2c4.655 0 9.309 0 13.964-2.327 23.273-6.982 39.564 18.618 25.6 37.236-6.982 6.982-11.636 18.618-11.636 27.927 0 23.273 18.618 41.891 39.564 41.891s39.564-18.618 39.564-41.891c0-11.636-4.655-20.945-11.636-27.927-16.291-18.618 2.327-44.218 25.6-37.236 4.655 2.327 9.309 2.327 13.964 2.327 25.6 0 46.545-23.273 46.545-51.2s-20.945-51.2-46.545-51.2z" />
<glyph unicode="&#xe90a;" glyph-name="live-casino-canli-oyunlar" d="M758.691 833.164h-493.382c-69.818 0-125.673-58.182-125.673-130.327v-484.073c0-72.145 55.855-130.327 125.673-130.327h493.382c69.818 0 125.673 58.182 125.673 130.327v484.073c0 72.145-55.855 130.327-125.673 130.327zM837.818 218.764c0-46.545-34.909-83.782-79.127-83.782h-493.382c-44.218 0-79.127 37.236-79.127 83.782v484.073c0 46.545 34.909 83.782 79.127 83.782h493.382c44.218 0 79.127-37.236 79.127-83.782v-484.073zM337.455 553.891c44.218 0 81.455 37.236 81.455 81.455s-37.236 81.455-81.455 81.455-81.455-37.236-81.455-81.455 37.236-81.455 81.455-81.455zM337.455 670.255c18.618 0 34.909-16.291 34.909-34.909s-16.291-34.909-34.909-34.909-34.909 16.291-34.909 34.909 16.291 34.909 34.909 34.909zM337.455 367.709c-44.218 0-81.455-37.236-81.455-81.455s37.236-81.455 81.455-81.455 81.455 37.236 81.455 81.455-37.236 81.455-81.455 81.455zM337.455 251.345c-18.618 0-34.909 16.291-34.909 34.909s16.291 34.909 34.909 34.909 34.909-16.291 34.909-34.909-16.291-34.909-34.909-34.909zM686.545 716.8c-44.218 0-81.455-37.236-81.455-81.455s37.236-81.455 81.455-81.455 81.455 37.236 81.455 81.455-37.236 81.455-81.455 81.455zM686.545 600.436c-18.618 0-34.909 16.291-34.909 34.909s16.291 34.909 34.909 34.909 34.909-16.291 34.909-34.909-16.291-34.909-34.909-34.909zM686.545 367.709c-44.218 0-81.455-37.236-81.455-81.455s37.236-81.455 81.455-81.455 81.455 37.236 81.455 81.455-37.236 81.455-81.455 81.455zM686.545 251.345c-18.618 0-34.909 16.291-34.909 34.909s16.291 34.909 34.909 34.909 34.909-16.291 34.909-34.909-16.291-34.909-34.909-34.909zM500.364 553.891c-44.218 0-81.455-37.236-81.455-81.455s37.236-81.455 81.455-81.455 81.455 37.236 81.455 81.455-37.236 81.455-81.455 81.455zM500.364 437.527c-18.618 0-34.909 16.291-34.909 34.909s16.291 34.909 34.909 34.909 34.909-16.291 34.909-34.909-16.291-34.909-34.909-34.909z" />
<glyph unicode="&#xe90b;" glyph-name="live-casino-poker" d="M940.218 623.709l-158.255 44.218v95.418c0 23.273-18.618 41.891-41.891 41.891h-225.745l-11.636 27.927c-9.309 20.945-32.582 32.582-55.855 23.273l-367.709-148.945c-20.945-9.309-32.582-32.582-23.273-55.855l200.145-491.055c9.309-20.945 32.582-32.582 55.855-23.273l41.891 18.618 407.273-118.691c20.945-6.982 46.545 4.655 51.2 27.927l155.927 507.345c6.982 20.945-4.655 44.218-27.927 51.2zM735.418 758.691v-521.309h-176.873l121.018 48.873c20.945 9.309 32.582 32.582 23.273 55.855l-169.891 416.582h202.473zM297.891 183.855l-195.491 481.745 360.727 146.618 195.491-481.745-360.727-146.618zM770.327 83.782l-346.764 100.073 20.945 9.309h295.564c23.273 0 41.891 18.618 41.891 41.891v384l141.964-39.564-153.6-495.709zM470.109 416.582c0 0-9.309-2.327-11.636-2.327-6.982 0-13.964-2.327-18.618-4.655-6.982-2.327-13.964-4.655-20.945-6.982-2.327-2.327-6.982-2.327-9.309-4.655-4.655-2.327-9.309-4.655-16.291-9.309s-23.273-16.291-18.618-13.964c-11.636-6.982-13.964-20.945-4.655-32.582 6.982-9.309 20.945-13.964 32.582-4.655-2.327 0 13.964 9.309 18.618 13.964 4.655 2.327 6.982 4.655 11.636 6.982 2.327 0 4.655 2.327 4.655 2.327 2.327 2.327 6.982 2.327 13.964 4.655 4.655 0 9.309 2.327 16.291 2.327 2.327 0 11.636 2.327 11.636 2.327 11.636 2.327 20.945 13.964 18.618 25.6s-16.291 23.273-27.927 20.945zM486.4 446.836c23.273 25.6 27.927 55.855 13.964 90.764-11.636 30.255-37.236 44.218-88.436 60.509-2.327-2.327-16.291 2.327-16.291 2.327-25.6 6.982-37.236 11.636-39.564 16.291-13.964 16.291-41.891 6.982-41.891-16.291 0-6.982-4.655-16.291-23.273-51.2-6.982-11.636-9.309-18.618-13.964-25.6-16.291-32.582-20.945-58.182-11.636-83.782 13.964-32.582 39.564-51.2 72.145-53.527 23.273-2.327 55.855 11.636 74.473 30.255 27.927 0 60.509 11.636 74.473 30.255zM381.673 451.491c-4.655-9.309-27.927-20.945-39.564-18.618-16.291 0-25.6 9.309-32.582 25.6-4.655 9.309 0 23.273 9.309 46.545 2.327 6.982 6.982 13.964 11.636 23.273 9.309 18.618 16.291 30.255 20.945 39.564 9.309-2.327 18.618-6.982 30.255-9.309 0 0 13.964-4.655 18.618-4.655 34.909-11.636 53.527-20.945 58.182-32.582 6.982-16.291 4.655-27.927-6.982-41.891-6.982-6.982-32.582-16.291-41.891-13.964s-23.273-2.327-27.927-13.964z" />
<glyph unicode="&#xe90c;" glyph-name="live-casino-populer" d="M905.309 556.218c-4.655 13.964-16.291 23.273-30.255 23.273h-256l-76.8 253.673c-4.655 13.964-16.291 23.273-30.255 23.273s-25.6-9.309-30.255-23.273l-79.127-253.673h-256c-13.964 0-25.6-9.309-30.255-23.273s0-27.927 11.636-37.236l207.127-158.255-79.127-253.673c-4.655-13.964 0-27.927 11.636-37.236s25.6-9.309 37.236 0l207.127 158.255 207.127-158.255c4.655-4.655 11.636-6.982 18.618-6.982s13.964 2.327 18.618 6.982c11.636 9.309 16.291 23.273 11.636 37.236l-79.127 253.673 207.127 158.255c9.309 9.309 13.964 23.273 9.309 37.236zM633.018 402.618c-11.636-9.309-16.291-23.273-11.636-37.236l55.855-181.527-146.618 111.709c-4.655 4.655-11.636 6.982-18.618 6.982s-13.964-2.327-18.618-6.982l-146.618-111.709 55.855 181.527c4.655 13.964 0 27.927-11.636 37.236l-146.618 111.709h181.527c13.964 0 25.6 9.309 30.255 23.273l55.855 179.2 55.855-181.527c4.655-13.964 16.291-23.273 30.255-23.273h181.527l-146.618-109.382z" />
<glyph unicode="&#xe90d;" glyph-name="casino-masa-oyunlar" d="M940.218 646.982l-158.255 44.218v95.418c0 23.273-18.618 41.891-41.891 41.891h-225.745l-11.636 27.927c-9.309 20.945-32.582 32.582-55.855 23.273l-367.709-148.945c-20.945-9.309-32.582-32.582-23.273-55.855l200.145-491.055c9.309-20.945 32.582-32.582 55.855-23.273l41.891 18.618 407.273-118.691c20.945-6.982 46.545 4.655 51.2 27.927l155.927 507.345c6.982 20.945-4.655 44.218-27.927 51.2zM735.418 781.964v-521.309h-176.873l121.018 48.873c20.945 9.309 32.582 32.582 23.273 55.855l-169.891 416.582h202.473zM297.891 207.127l-195.491 481.745 360.727 146.618 195.491-481.745-360.727-146.618zM770.327 107.055l-346.764 100.073 20.945 9.309h295.564c23.273 0 41.891 18.618 41.891 41.891v384l141.964-39.564-153.6-495.709zM470.109 439.855c0 0-9.309-2.327-11.636-2.327-6.982 0-13.964-2.327-18.618-4.655-6.982-2.327-13.964-4.655-20.945-6.982-2.327-2.327-6.982-2.327-9.309-4.655-4.655-2.327-9.309-4.655-16.291-9.309s-23.273-16.291-18.618-13.964c-11.636-6.982-13.964-20.945-4.655-32.582 6.982-9.309 20.945-13.964 32.582-4.655-2.327 0 13.964 9.309 18.618 13.964 4.655 2.327 6.982 4.655 11.636 6.982 2.327 0 4.655 2.327 4.655 2.327 2.327 2.327 6.982 2.327 13.964 4.655 4.655 0 9.309 2.327 16.291 2.327 2.327 0 11.636 2.327 11.636 2.327 11.636 2.327 20.945 13.964 18.618 25.6s-16.291 23.273-27.927 20.945zM486.4 470.109c23.273 25.6 27.927 55.855 13.964 90.764-11.636 30.255-37.236 44.218-88.436 60.509-2.327-2.327-16.291 2.327-16.291 2.327-25.6 6.982-37.236 11.636-39.564 16.291-13.964 16.291-41.891 6.982-41.891-16.291 0-6.982-4.655-16.291-23.273-51.2-6.982-11.636-9.309-18.618-13.964-25.6-16.291-32.582-20.945-58.182-11.636-83.782 13.964-32.582 39.564-51.2 72.145-53.527 23.273-2.327 55.855 11.636 74.473 30.255 27.927 0 60.509 11.636 74.473 30.255zM381.673 474.764c-4.655-9.309-27.927-20.945-39.564-18.618-16.291 0-25.6 9.309-32.582 25.6-4.655 9.309 0 23.273 9.309 46.545 2.327 6.982 6.982 13.964 11.636 23.273 9.309 18.618 16.291 30.255 20.945 39.564 9.309-2.327 18.618-6.982 30.255-9.309 0 0 13.964-4.655 18.618-4.655 34.909-11.636 53.527-20.945 58.182-32.582 6.982-16.291 4.655-27.927-6.982-41.891-6.982-6.982-32.582-16.291-41.891-13.964s-23.273-2.327-27.927-13.964z" />
<glyph unicode="&#xe90e;" glyph-name="live-casino-rulet" d="M169.891 514.327h-46.545c0-118.691 174.545-207.127 388.655-207.127 211.782 0 388.655 88.436 388.655 207.127h-46.545c0-83.782-151.273-160.582-342.109-160.582s-342.109 74.473-342.109 160.582zM977.455 530.618c-30.255 107.055-104.727 176.873-239.709 209.455l-11.636-46.545c118.691-27.927 176.873-83.782 204.8-174.545v-169.891c-23.273-97.745-202.473-190.836-418.909-190.836s-397.964 93.091-418.909 193.164v169.891c30.255 90.764 88.436 146.618 204.8 174.545l-11.636 44.218c-132.655-32.582-204.8-100.073-239.709-209.455v-186.182c23.273-128 225.745-232.727 465.455-232.727 237.382 0 437.527 104.727 465.455 232.727v186.182zM560.873 670.255l-4.655-46.545c111.709-11.636 188.509-62.836 188.509-111.709 0-11.636-4.655-25.6-13.964-37.236l37.236-27.927c16.291 20.945 23.273 41.891 23.273 65.164 0 81.455-97.745 144.291-230.4 158.255zM444.509 623.709l-4.655 46.545c-132.655-13.964-230.4-72.145-230.4-148.945 0-27.927 13.964-55.855 37.236-76.8l32.582 34.909c-16.291 13.964-23.273 27.927-23.273 41.891 0 44.218 76.8 90.764 188.509 102.4zM395.636 716.8h93.091v-128l-46.545-37.236v-160.582h46.545v137.309l23.273 18.618 23.273-18.618v-137.309h46.545v160.582l-46.545 37.236v128h93.091v-23.273h46.545v93.091h-46.545v-23.273h-93.091v23.273h23.273v46.545h-93.091v-46.545h23.273v-23.273h-93.091v23.273h-46.545v-93.091h46.545z" />
<glyph unicode="&#xe90f;" glyph-name="profile-balance" d="M921.6 788.48c0 46.080-35.84 81.92-81.92 81.92h-655.36c-46.080 0-81.92-35.84-81.92-81.92v-189.44c0 0 0-5.12 0-5.12 0-5.12 0-5.12 0-10.24v-445.44c0-46.080 35.84-87.040 81.92-87.040h655.36c46.080 0 81.92 40.96 81.92 87.040v440.32c0 5.12 0 5.12 0 10.24 0 0 0 5.12 0 5.12v194.56zM855.040 368.64h-117.76c-5.12 0-10.24 5.12-10.24 10.24v61.44c0 5.12 5.12 10.24 10.24 10.24h117.76v-81.92zM168.96 788.48c0 10.24 5.12 15.36 15.36 15.36h655.36c10.24 0 15.36-5.12 15.36-15.36v-20.48h-634.88c-5.12 0-15.36-10.24-15.36-25.6s10.24-25.6 15.36-25.6h629.76v-51.2c-5.12 0-10.24 0-15.36 0h-650.24c-5.12 0-10.24 0-15.36 0v122.88zM839.68 122.88h-655.36c-10.24 0-15.36 5.12-15.36 15.36v440.32c0 10.24 5.12 15.36 15.36 15.36h655.36c10.24 0 15.36-5.12 15.36-15.36v-66.56h-117.76c-40.96 0-71.68-30.72-71.68-71.68v-61.44c0-40.96 30.72-71.68 71.68-71.68h117.76v-168.96c0-10.24-10.24-15.36-15.36-15.36z" />
<glyph unicode="&#xe910;" glyph-name="profile-deposit" d="M675.84 512h-112.64v112.64c0 20.48-20.48 40.96-51.2 40.96s-51.2-20.48-51.2-40.96v-112.64h-112.64c-20.48 0-40.96-20.48-40.96-51.2s20.48-51.2 40.96-51.2h112.64v-112.64c0-20.48 20.48-40.96 51.2-40.96s51.2 20.48 51.2 40.96v112.64h112.64c20.48 0 40.96 20.48 40.96 51.2s-20.48 51.2-40.96 51.2zM512 824.32c-97.28 0-189.44-40.96-256-107.52s-107.52-158.72-107.52-256c0-97.28 35.84-189.44 107.52-256s158.72-107.52 256-107.52c97.28 0 189.44 35.84 256 107.52 143.36 143.36 143.36 368.64 0 512-66.56 66.56-158.72 107.52-256 107.52zM512 25.6c-117.76 0-225.28 46.080-307.2 128s-128 189.44-128 307.2c0 117.76 46.080 225.28 128 307.2s189.44 128 307.2 128c117.76 0 225.28-46.080 307.2-128 168.96-168.96 168.96-445.44 0-614.4-81.92-81.92-189.44-128-307.2-128z" />
<glyph unicode="&#xe911;" glyph-name="profile-account" d="M819.2 768c-81.92 81.92-189.44 128-307.2 128s-225.28-46.080-307.2-128c-81.92-81.92-128-189.44-128-307.2s46.080-225.28 128-307.2c81.92-81.92 189.44-128 307.2-128s225.28 46.080 307.2 128c168.96 168.96 168.96 445.44 0 614.4zM256 716.8c66.56 66.56 158.72 107.52 256 107.52s189.44-35.84 256-107.52c122.88-122.88 138.24-312.32 46.080-455.68-5.12 5.12-15.36 10.24-20.48 15.36-51.2 25.6-107.52 40.96-168.96 51.2 15.36 15.36 25.6 30.72 25.6 51.2v15.36c15.36 5.12 25.6 20.48 25.6 35.84l5.12 66.56c0 15.36-5.12 30.72-15.36 40.96v15.36c0 25.6 5.12 76.8-35.84 117.76-20.48 30.72-66.56 46.080-117.76 46.080s-97.28-15.36-128-46.080c-40.96-35.84-35.84-92.16-35.84-117.76v-15.36c-5.12-10.24-15.36-25.6-10.24-40.96l5.12-66.56c0-15.36 10.24-30.72 25.6-35.84 0-5.12 0-10.24 0-15.36 0-15.36 10.24-35.84 25.6-51.2-56.32-10.24-112.64-25.6-168.96-51.2-5.12-5.12-15.36-10.24-20.48-15.36-40.96 56.32-61.44 128-61.44 199.68 5.12 97.28 46.080 189.44 112.64 256zM465.92 353.28c0 10.24-5.12 20.48-15.36 25.6-5.12 5.12-10.24 10.24-10.24 10.24 0 15.36-5.12 30.72-5.12 46.080s-10.24 25.6-25.6 30.72v25.6c0 0 0 0 0 0 10.24 5.12 15.36 20.48 15.36 30.72l-5.12 40.96c0 20.48-5.12 46.080 15.36 61.44 15.36 15.36 46.080 25.6 76.8 25.6s61.44-10.24 81.92-25.6c15.36-15.36 15.36-35.84 15.36-61.44l-5.12-46.080c0-10.24 5.12-25.6 15.36-30.72 0 0 0 0 0 0-5.12-20.48-5.12-25.6-5.12-25.6-10.24-5.12-20.48-15.36-25.6-30.72l-5.12-40.96c0 0-5.12-5.12-10.24-10.24-10.24-5.12-15.36-15.36-15.36-25.6l-5.12-46.080c0-10.24 0-20.48 5.12-25.6s15.36-10.24 25.6-15.36c61.44-5.12 117.76-25.6 168.96-46.080 0 0 0 0 0 0-61.44-61.44-148.48-97.28-240.64-97.28s-174.080 35.84-240.64 97.28v0c51.2 25.6 112.64 40.96 168.96 46.080 10.24 0 15.36 5.12 25.6 15.36 5.12 5.12 10.24 15.36 5.12 25.6l-5.12 46.080z" />
<glyph unicode="&#xe912;" glyph-name="profile-refresh" d="M153.6 384l-51.2-61.44c-15.36-15.36-30.72-15.36-46.080 5.12-10.24 15.36-10.24 46.080 0 61.44l97.28 117.76c10.24 15.36 30.72 15.36 40.96 0l97.28-117.76c15.36-15.36 15.36-40.96 0-61.44 0-15.36-10.24-20.48-15.36-20.48s-15.36 5.12-20.48 10.24l-25.6 30.72c30.72-128 148.48-225.28 281.6-225.28 102.4 0 189.44 51.2 245.76 143.36 10.24 15.36 30.72 20.48 46.080 10.24s20.48-30.72 10.24-46.080c-66.56-112.64-179.2-179.2-302.080-179.2-184.32 0-332.8 143.36-358.4 332.8zM803.84 460.8c-10.24 158.72-138.24 286.72-291.84 286.72-102.4 0-189.44-51.2-245.76-143.36-10.24-10.24-30.72-15.36-46.080-5.12s-20.48 30.72-10.24 46.080c66.56 107.52 179.2 174.080 302.080 174.080 199.68 0 358.4-168.96 358.4-373.76 0 0 0-5.12 0-5.12l51.2 61.44c15.36 15.36 30.72 15.36 46.080-5.12 10.24-15.36 10.24-46.080 0-61.44l-97.28-117.76c-5.12-5.12-15.36-10.24-20.48-10.24s-15.36 5.12-20.48 10.24l-97.28 117.76c-15.36 15.36-15.36 40.96 0 61.44 10.24 15.36 30.72 20.48 46.080 5.12l25.6-40.96zM844.8 409.6v0 0c0 0 0 0 0 0z" />
<glyph unicode="&#xe913;" glyph-name="Account" d="M512 665.6c-85.333 0-153.6-68.267-153.6-153.6s68.267-153.6 153.6-153.6c85.333 0 153.6 68.267 153.6 153.6s-68.267 153.6-153.6 153.6zM512 887.467c-235.52 0-426.667-191.147-426.667-426.667s191.147-426.667 426.667-426.667c235.52 0 426.667 191.147 426.667 426.667s-191.147 426.667-426.667 426.667zM757.76 163.84c-40.96 98.987-136.533 167.253-245.76 167.253-112.64 0-208.213-68.267-245.76-167.253-85.333 71.68-139.947 177.493-139.947 296.96 0 215.040 170.667 385.707 385.707 385.707s385.707-174.080 385.707-385.707c0-119.467-54.613-225.28-139.947-296.96z" />
<glyph unicode="&#xe914;" glyph-name="arrow" d="M507.026 192.686c-12.383 0.076-23.644 4.816-32.128 12.55l0.038-0.034-463.704 427.442c-7.026 8.311-11.296 19.148-11.296 30.982 0 26.584 21.551 48.135 48.135 48.135 10.224 0 19.703-3.187 27.498-8.622l-0.157 0.104 431.614-396.956 431.935 396.956c8.896 10.551 22.123 17.208 36.904 17.208 26.606 0 48.175-21.569 48.175-48.175 0-11.825-4.261-22.656-11.331-31.039l0.059 0.072c-2.883-3.192-6.035-6.039-9.453-8.543l-0.174-0.121-463.704-427.442c-8.426-7.759-19.722-12.516-32.128-12.516-0.1 0-0.199 0-0.298 0.001h0.015z" />
<glyph unicode="&#xe915;" glyph-name="My-Account_Top-Icon" horiz-adv-x="1023" d="M873.091 822.532c-92.797 92.936-221.070 150.428-362.771 150.428-283.124 0-512.641-229.517-512.641-512.641s229.517-512.641 512.641-512.641c141.701 0 269.973 57.492 362.764 150.422l0.006 0.006c93.225 92.456 150.938 220.595 150.938 362.213s-57.713 269.756-150.903 362.178l-0.035 0.034zM234.854 117.651c1.971 93.815 78.32 169.153 172.343 169.492h207.332c93.907-0.156 170.225-75.239 172.372-168.651l0.004-0.2c-74.836-60.693-171.238-97.443-276.224-97.443-104.806 0-201.059 36.624-276.656 97.773l0.83-0.65zM847.78 178.207c-28.927 103.539-122.336 178.26-233.229 178.463h-207.322c-111.118-0.169-204.657-75.233-232.852-177.404l-0.4-1.699c-64.36 76.002-103.489 175.155-103.489 283.447 0 242.956 196.954 439.91 439.91 439.91s439.91-196.954 439.91-439.91c0-108.291-39.129-207.444-104.020-284.090l0.531 0.643zM512.641 390.953c95.554 0 173.016 77.462 173.016 173.016s-77.462 173.016-173.016 173.016c-95.554 0-173.016-77.462-173.016-173.016v0c0-95.554 77.462-173.016 173.016-173.016v0zM512.641 667.458c57.333 0 103.81-46.477 103.81-103.81s-46.477-103.81-103.81-103.81c-57.333 0-103.81 46.477-103.81 103.81v0c0 57.333 46.477 103.81 103.81 103.81v0z" />
<glyph unicode="&#xe916;" glyph-name="Messages" horiz-adv-x="952" d="M156.16 972.8h536.64c86.203-0.541 155.939-70.277 156.48-156.428v-184.692c-0.542-86.138-70.316-155.799-156.445-156.16h-352.035l-51.2-100.16c-8.5-15.824-24.935-26.401-43.84-26.401s-35.34 10.577-43.71 26.136l-0.13 0.264-50.24 100.16c-84.030 3.17-151.030 71.735-151.68 156.097v184.703c0.361 86.164 70.022 155.938 156.108 156.48h0.052zM692.8 893.12h-536.64c-42.133-0.538-76.124-34.641-76.48-76.766v-184.674c0.897-41.545 34.787-74.88 76.463-74.88 0.006 0 0.012 0 0.018 0h13.759c19.246-0.142 35.919-11.014 44.347-26.926l0.133-0.274 32-64 32 64c7.896 15.562 23.398 26.252 41.479 27.195l0.121 0.005h372.8c0.002 0 0.004 0 0.006 0 42.255 0 76.572 33.983 77.114 76.109l0.001 0.051v183.36c-0.711 42.238-34.855 76.27-77.069 76.8h-0.051zM826.56 336.64h-361.92c-24.886-0.359-44.943-20.528-45.12-45.423v-128.017c0 0 0-0.001 0-0.001 0-24.983 20.162-45.257 45.103-45.439h239.377c0.007 0 0.016 0 0.025 0 19.182 0 35.77-11.103 43.688-27.234l0.127-0.286 12.8-26.24 13.12 26.24c8.22 16.434 24.923 27.521 44.216 27.521 0.093 0 0.186 0 0.278-0.001h8.306c0.095-0.001 0.207-0.001 0.32-0.001 25.096 0 45.44 20.344 45.44 45.44 0 0 0 0.001 0 0.001v0 128c-0.181 25.135-20.599 45.44-45.759 45.44 0 0-0.001 0-0.001 0v0zM464.64 416.32h361.92c0 0 0 0 0 0 69.166 0 125.258-55.979 125.44-125.102v-128.018c0-0.015 0-0.032 0-0.050 0-65.546-50.531-119.291-114.763-124.402l-0.437-0.028-32-64c-8.5-15.824-24.935-26.401-43.84-26.401s-35.34 10.577-43.71 26.136l-0.13 0.264-32 64h-220.8c-68.461 1.572-123.548 56.66-125.117 124.972l-0.003 0.148v128c0.539 68.884 56.236 124.581 125.069 125.12h0.051z" />
<glyph unicode="&#xe917;" glyph-name="Log-out" horiz-adv-x="890" d="M67.882 767.232v0c-6.981-6.232-16.241-10.040-26.391-10.040-21.928 0-39.705 17.776-39.705 39.705 0 9.99 3.69 19.119 9.781 26.097l-0.040-0.047c46.604 46.462 102.124 84.011 163.766 109.853l3.378 1.256c58.178 24.503 125.808 38.741 196.763 38.741s138.585-14.238 200.189-40.012l-3.426 1.271c187.837-78.771 317.373-261.148 317.373-473.78 0-70.258-14.142-137.213-39.736-198.173l1.257 3.375c-27.624-64.639-65.448-119.807-112.048-166.162l-0.022-0.022c-46.268-46.601-101.478-84.254-162.851-110.18l-3.333-1.25h-2.882c-57.871-24.2-125.115-38.258-195.642-38.258s-137.772 14.058-199.083 39.524l3.441-1.267c-64.993 26.911-120.513 64.251-167.182 110.506l0.038-0.037c-7.114 7.077-11.517 16.873-11.517 27.697s4.403 20.621 11.515 27.696l0.002 0.002c7.061 7.018 16.792 11.356 27.537 11.356s20.477-4.338 27.539-11.358l-0.002 0.002c78.976-78.963 188.074-127.802 308.578-127.802 58.884 0 115.044 11.661 166.298 32.801l-2.901-1.059c55.006 23.111 101.994 54.903 141.556 94.166l-0.027-0.027c40.317 39.024 72.793 85.873 95.018 138.132l1.042 2.756c20.262 47.922 32.037 103.642 32.037 162.113 0 1.319-0.006 2.636-0.018 3.952l0.001-0.201c0 0.008 0 0.018 0 0.027 0 119.972-48.983 228.503-128.041 306.685l-0.039 0.039c-79.17 79.254-188.586 128.279-309.453 128.279-59.396 0-116.026-11.839-167.66-33.286l2.897 1.067c-53.636-23.491-99.414-55.216-137.976-94.108l-0.031-0.031zM619.267 460.48l-1.601 13.769c-0.63 2.056-1.283 3.754-2.033 5.397l0.112-0.274v2.562c-1.293 2.57-2.677 4.773-4.24 6.831l0.078-0.107-256.16 256.16c-7.942 7.963-18.926 12.889-31.059 12.889s-23.117-4.926-31.059-12.888l-0.001-0.001c-7.646-8.025-12.351-18.913-12.351-30.899s4.704-22.874 12.368-30.918l-0.017 0.018 178.351-177.391h-445.719c-0.533 0.043-1.154 0.068-1.781 0.068-6.586 0-12.536-2.724-16.784-7.106l-0.006-0.006c-4.318-5.851-6.91-13.204-6.91-21.163 0-2.712 0.301-5.354 0.872-7.894l-0.045 0.239v-9.286c0-11.207 0-43.227 32.020-43.227h436.113l-178.992-178.992c-7.576-8.056-12.23-18.934-12.23-30.899s4.655-22.844 12.252-30.923l-0.022 0.023c7.79-7.922 18.623-12.831 30.602-12.831 0.499 0 0.996 0.009 1.49 0.025l-0.072-0.002c0.288-0.007 0.627-0.010 0.966-0.010 12.062 0 23.011 4.764 31.068 12.512l-0.015-0.014 251.997 252.318 2.241 2.562 2.241 2.882 2.562 4.163 2.241 4.483v4.163z" />
<glyph unicode="&#xe918;" glyph-name="History" d="M512.16 972.8c0.12 0 0.261 0 0.403 0 282.858 0 512.16-229.302 512.16-512.16 0-141.37-57.278-269.362-149.892-362.036l0.002 0.002c-92.722-92.761-220.837-150.139-362.353-150.139-282.953 0-512.332 229.379-512.332 512.332 0 141.437 57.312 269.487 149.98 362.195l-0.002-0.002c92.663 92.563 220.622 149.807 361.95 149.807 0.029 0 0.058 0 0.088 0h-0.005zM473.108 783.301v0-322.661c0 0 0-0.001 0-0.001 0-21.632 17.446-39.19 39.035-39.371h259.298c21.745 0 39.372 17.628 39.372 39.372s-17.628 39.372-39.372 39.372h-219.909v283.289c0.102 1.063 0.16 2.298 0.16 3.546 0 21.745-17.628 39.372-39.372 39.372s-39.372-17.628-39.372-39.372c0-1.249 0.058-2.484 0.172-3.703l-0.012 0.156zM818.816 767.296v0c-78.49 78.198-186.767 126.545-306.336 126.545s-227.846-48.347-306.349-126.559l0.013 0.013c-78.323-78.414-126.76-186.694-126.76-306.286 0-239.369 194.047-433.415 433.415-433.415s433.415 194.047 433.415 433.415c0 119.593-48.437 227.872-126.764 306.291l0.004-0.004z" />
<glyph unicode="&#xe919;" glyph-name="Expand_Colaps" d="M512.16 972.8c0.12 0 0.261 0 0.403 0 282.858 0 512.16-229.302 512.16-512.16 0-141.37-57.278-269.362-149.892-362.036l0.002 0.002c-92.722-92.761-220.837-150.139-362.353-150.139-282.953 0-512.332 229.379-512.332 512.332 0 141.437 57.312 269.487 149.98 362.195l-0.002-0.002c92.663 92.563 220.622 149.807 361.95 149.807 0.029 0 0.058 0 0.088 0h-0.005zM473.108 731.445v0-270.805c2.258-18.184 17.616-32.119 36.229-32.119 0.994 0 1.978 0.040 2.952 0.118l-0.128-0.008h259.281c0.952-0.088 2.059-0.137 3.178-0.137 18.686 0 34.12 13.923 36.495 31.961l0.020 0.187c-2.394 18.224-17.829 32.147-36.515 32.147-1.119 0-2.226-0.050-3.319-0.148l0.141 0.010h-219.909v238.795c-1.637 18.786-17.291 33.415-36.361 33.415-1.060 0-2.109-0.045-3.146-0.134l0.135 0.009c-0.941 0.086-2.035 0.135-3.141 0.135-18.622 0-33.986-13.949-36.214-31.968l-0.018-0.177zM553.773 193.036v0 270.485c-2.246 18.197-17.61 32.145-36.232 32.145-1.106 0-2.2-0.049-3.28-0.145l0.14 0.010h-258.321c-1.036 0.105-2.24 0.164-3.457 0.164-18.632 0-34.003-13.964-36.217-31.998l-0.018-0.177c2.394-18.224 17.829-32.147 36.515-32.147 1.119 0 2.226 0.050 3.319 0.148l-0.141-0.010h220.229v-237.514c2.258-18.184 17.616-32.119 36.229-32.119 0.994 0 1.978 0.040 2.952 0.118l-0.128-0.008c0.857-0.071 1.854-0.111 2.861-0.111 18.677 0 34.105 13.909 36.491 31.934l0.020 0.187zM818.816 767.296v0c-78.49 78.198-186.767 126.545-306.336 126.545s-227.846-48.347-306.349-126.559l0.013 0.013c-78.323-78.414-126.76-186.694-126.76-306.286 0-239.369 194.047-433.415 433.415-433.415s433.415 194.047 433.415 433.415c0 119.593-48.437 227.872-126.764 306.291l0.004-0.004z" />
<glyph unicode="&#xe91a;" glyph-name="Cancel" d="M150.080 822.72c92.642 92.583 220.594 149.843 361.92 149.843 282.687 0 511.865-229.095 512-511.75v-0.013c0-282.77-229.23-512-512-512s-512 229.23-512 512v0 0c0.068 141.358 57.41 269.309 150.077 361.917l0.003 0.003zM292.8 624v0l192-192c6.292-5.179 14.431-8.319 23.304-8.319 11.131 0 21.108 4.942 27.856 12.752l0.040 0.047 182.72 184.32c8.058 6.796 13.142 16.898 13.142 28.188 0 8.886-3.149 17.036-8.393 23.395l0.050-0.063c-6.282 5.271-14.454 8.472-23.374 8.472-11.303 0-21.406-5.141-28.097-13.212l-0.049-0.060-155.84-155.84-167.68 168c-6.318 5.26-14.519 8.452-23.466 8.452-11.044 0-20.952-4.865-27.698-12.57l-0.036-0.043c-7.876-6.844-12.827-16.878-12.827-28.067 0-8.926 3.15-17.115 8.399-23.518l-0.052 0.065zM730.56 300.8v0l-192 192c-6.277 5.255-14.437 8.446-23.343 8.446-11.145 0-21.122-4.998-27.814-12.874l-0.043-0.052-182.72-184.32c-7.948-6.792-12.954-16.826-12.954-28.028 0-8.958 3.201-17.169 8.521-23.551l-0.048 0.059c6.265-5.099 14.343-8.188 23.143-8.188 11.219 0 21.265 5.020 28.015 12.936l0.043 0.051 155.84 155.84 168-167.68c6.285-5.414 14.527-8.711 23.539-8.711 11.074 0 20.984 4.978 27.617 12.817l0.044 0.053c7.747 6.782 12.612 16.69 12.612 27.734 0 8.947-3.193 17.147-8.5 23.525l0.048-0.060zM512 893.76v0c-239.182 0-433.098-193.804-433.28-432.943v-0.017c0-0.19 0-0.415 0-0.64 0-239.471 194.129-433.6 433.6-433.6s433.6 194.129 433.6 433.6c0 239.471-194.129 433.6-433.6 433.6-0.112 0-0.225 0-0.337 0h0.017z" />
<glyph unicode="&#xe91b;" glyph-name="calendar" d="M938.56 876.8h-138.56v64c0 17.673-14.327 32-32 32s-32-14.327-32-32v0-64h-192v64c0 17.673-14.327 32-32 32s-32-14.327-32-32v0-64h-192v64c0 17.673-14.327 32-32 32s-32-14.327-32-32v0-64h-138.56c-0.095 0-0.208 0.001-0.321 0.001-47.010 0-85.12-38.11-85.12-85.12 0-0.113 0-0.225 0.001-0.338v0.017-757.12c0-47.187 38.253-85.44 85.44-85.44v0h853.12c47.114 0.181 85.259 38.326 85.44 85.423v757.137c0 47.187-38.253 85.44-85.44 85.44v0zM960 34.24c0-11.841-9.599-21.44-21.44-21.44v0h-853.12c-11.841 0-21.44 9.599-21.44 21.44v0 757.12c0 11.841 9.599 21.44 21.44 21.44v0h138.56v-64c0-17.673 14.327-32 32-32s32 14.327 32 32v0 64h192v-64c0-17.673 14.327-32 32-32s32 14.327 32 32v0 64h192v-64c0-17.673 14.327-32 32-32s32 14.327 32 32v0 64h138.56c11.841 0 21.44-9.599 21.44-21.44v0zM224 588.8h128v-96h-128v96zM224 428.8h128v-96h-128v96zM224 268.8h128v-96h-128v96zM448 268.8h128v-96h-128v96zM448 428.8h128v-96h-128v96zM448 588.8h128v-96h-128v96zM672 268.8h128v-96h-128v96zM672 428.8h128v-96h-128v96zM672 588.8h128v-96h-128v96z" />
<glyph unicode="&#xe91c;" glyph-name="Bonus-Amout" d="M1022.364 384.941c0.001 0.062 0.001 0.135 0.001 0.208 0 13.295-10.663 24.099-23.903 24.329h-138.654l-41.917 131.067 37.010 26.377c6.136 4.285 10.125 11.276 10.223 19.205v0.015c0.002 0.122 0.003 0.266 0.003 0.41 0 13.255-10.688 24.013-23.916 24.127h-234.132l-72.792 221.444c-1.369 8.143-7.393 14.578-15.195 16.532l-0.141 0.030c-2.698 1.145-5.836 1.81-9.129 1.81-9.958 0-18.495-6.084-22.097-14.738l-0.058-0.158s0-1.431 0-2.249l-69.93-222.875h-233.712c-0.122 0.002-0.266 0.003-0.411 0.003-8.211 0-15.488-4-19.988-10.157l-0.049-0.070c-2.386-3.678-3.805-8.176-3.805-13.005 0-7.631 3.543-14.435 9.073-18.856l0.048-0.037 36.805-26.581-42.121-132.703h-137.406c-0.33 0.015-0.718 0.024-1.107 0.024-8.374 0-15.815-3.995-20.521-10.184l-0.046-0.063c-2.825-3.967-4.516-8.911-4.516-14.25 0-8.128 3.919-15.34 9.971-19.85l0.066-0.047 112.665-80.767-43.348-131.272c-0.632-1.942-0.997-4.177-0.997-6.497 0-5.329 1.923-10.208 5.113-13.982l-0.026 0.032c4.405-5.936 11.391-9.741 19.266-9.741 4.679 0 9.044 1.343 12.731 3.665l-0.099-0.058 112.46 81.789 110.62-81.789c4.269-3.893 9.973-6.277 16.233-6.277 13.325 0 24.128 10.802 24.128 24.128 0 3.218-0.63 6.29-1.774 9.097l0.058-0.161-18.607 55.617 152.741 110.006 151.719-110.211-17.789-55.617c-0.642-2.023-1.012-4.35-1.012-6.763 0-5.149 1.684-9.905 4.532-13.746l-0.044 0.062c4.405-5.936 11.391-9.741 19.266-9.741 4.679 0 9.044 1.343 12.731 3.665l-0.099-0.058 112.46 81.789 110.62-81.789c4.492-3.659 10.286-5.876 16.597-5.876 2.238 0 4.411 0.279 6.486 0.803l-0.182-0.039c10.015 3.468 17.077 12.819 17.077 23.819 0 2.892-0.488 5.669-1.386 8.255l0.053-0.177-42.53 132.089 112.051 80.767c6.11 4.787 10.004 12.161 10.019 20.445v0.002zM328.383 338.934v0l-35.987-26.581c-6.427-4.311-10.601-11.549-10.601-19.761 0-2.658 0.437-5.215 1.244-7.601l-0.049 0.167 14.109-40.895-6.952-20.447-47.233 33.329c-3.87 2.967-8.781 4.755-14.109 4.755s-10.238-1.788-14.164-4.796l0.056 0.041-66.045-47.438 25.559 77.086c0.641 2.131 1.011 4.581 1.011 7.116 0 8.238-3.897 15.565-9.948 20.239l-0.059 0.044-62.978 47.438h78.313c0.432-0.028 0.938-0.045 1.446-0.045 10.522 0 19.429 6.91 22.432 16.44l0.045 0.167 24.537 77.291 24.332-77.291c3.677-9.758 12.935-16.573 23.785-16.573 0.264 0 0.527 0.004 0.79 0.012l-0.038-0.001h57.252l-6.748-21.47zM294.236 408.455v0l-28.422 88.946 92.013-66.249-7.157-20.447zM525.904 367.56v0c-3.967 2.781-8.895 4.444-14.211 4.444s-10.244-1.663-14.291-4.497l0.080 0.053-142.109-103.872 17.176 52.141 20.447 60.319 15.949 54.799c0.771 2.247 1.216 4.837 1.216 7.53 0 7.991-3.918 15.067-9.938 19.412l-0.070 0.048-143.131 103.259h176.665c10.421 0.465 19.115 7.363 22.238 16.798l0.050 0.173 55.208 167.054 54.39-167.054c3.209-9.942 12.381-17.008 23.204-17.008 0.469 0 0.935 0.013 1.397 0.039l-0.064-0.003h174.415l-143.131-103.259c-5.713-4.416-9.356-11.271-9.356-18.977 0-2.873 0.506-5.628 1.435-8.18l-0.053 0.166 17.176-53.163 20.447-60.319 16.971-52.754-141.904 103.872zM670.875 408.455v0l-6.339 20.447 92.013 67.476-28.422-85.879zM856.946 312.762v0c-6.085-4.477-9.99-11.61-9.99-19.656 0-2.695 0.438-5.288 1.247-7.711l-0.050 0.172 25.968-76.473-65.431 48.051c-3.981 2.955-8.991 4.73-14.415 4.73s-10.435-1.775-14.481-4.776l0.066 0.046-47.233-34.76-7.157 20.447 14.109 40.895c0.733 2.234 1.156 4.804 1.156 7.474 0 8.267-4.055 15.587-10.284 20.080l-0.073 0.050-35.169 27.604-7.157 20.447h59.093c10.532 0.26 19.424 7.009 22.846 16.389l0.055 0.173 24.946 77.291 24.537-77.291c3.605-9.762 12.83-16.596 23.651-16.596 0.456 0 0.908 0.012 1.358 0.036l-0.063-0.003h79.335l-65.84-47.847z" />
<glyph unicode="&#xe91d;" glyph-name="Total_Amount" d="M631.36 575.36c0-0.003 0-0.006 0-0.010 0-11.664-9.456-21.12-21.12-21.12-0.225 0-0.449 0.004-0.673 0.011l0.033-0.001c-0.001 0-0.002 0-0.002 0-11.728 0-21.257 9.417-21.437 21.103v0.017c-0.037 6.259-2.6 11.912-6.719 15.999l-0.001 0.001c-4.037 3.958-9.572 6.4-15.677 6.4-0.001 0-0.002 0-0.003 0h-32v-115.52h34.24c17.375-0.527 32.932-7.901 44.143-19.502l0.017-0.018c12.044-11.653 19.52-27.961 19.52-46.017 0-0.022 0-0.045 0-0.067v0.003-70.72c-0.358-36.085-29.515-65.242-65.566-65.6h-32.034v-18.56c0.002-0.096 0.002-0.209 0.002-0.322 0-11.906-9.562-21.579-21.426-21.757h-0.017c-12.194 0-22.080 9.886-22.080 22.080v0 18.56h-32c-36.151 0.355-65.384 29.476-65.919 65.549l-0.001 0.051c0 12.018 9.742 21.76 21.76 21.76s21.76-9.742 21.76-21.76v0c0.127-6.142 2.672-11.666 6.718-15.678l0.002-0.002c3.918-4.142 9.452-6.72 15.588-6.72 0.032 0 0.064 0 0.096 0h31.995v115.52h-34.24c-35.398 1.234-63.667 30.062-64 65.568v69.792c0 0.023 0 0.049 0 0.076 0 18.211 7.606 34.646 19.815 46.3l0.025 0.024c11.625 11.854 27.808 19.201 45.706 19.201 0.131 0 0.263 0 0.394-0.001h31.98v19.84c0.179 11.704 9.708 21.122 21.438 21.122 0.113 0 0.226-0.001 0.339-0.003h-0.017c0.095 0.002 0.207 0.002 0.32 0.002 11.664 0 21.12-9.456 21.12-21.12 0-0.001 0-0.002 0-0.003v0-18.88h32c0.111 0.001 0.242 0.001 0.374 0.001 17.899 0 34.081-7.347 45.696-19.191l0.010-0.010c12.044-11.653 19.521-27.962 19.521-46.018 0-0.134 0-0.269-0.001-0.403v0.021zM512 833.92v0c206.065-0.005 373.111-167.054 373.111-373.12 0-206.068-167.052-373.12-373.12-373.12s-373.12 167.052-373.12 373.12c0 102.957 41.7 196.174 109.132 263.683l-0.003-0.003c67.342 67.607 160.516 109.44 263.46 109.44 0.19 0 0.379 0 0.569 0h-0.029zM512 972.8v0c0.111 0 0.241 0 0.372 0 141.151 0 268.903-57.369 361.211-150.063l0.017-0.017c92.488-92.626 149.683-220.514 149.683-361.76s-57.195-269.134-149.689-361.766l0.006 0.006c-92.577-92.202-220.272-149.204-361.28-149.204s-268.702 57.002-361.297 149.221l0.017-0.017c-92.392 92.61-149.523 220.433-149.523 361.6s57.131 268.99 149.533 361.61l-0.010-0.010c92.348 92.567 219.909 149.968 360.877 150.4h0.083zM823.040 771.84v0c-79.643 80.032-189.877 129.559-311.678 129.559-242.829 0-439.68-196.851-439.68-439.68s196.851-439.68 439.68-439.68c242.393 0 438.973 196.146 439.678 438.373v0.068c0.002 0.446 0.003 0.974 0.003 1.502 0 120.944-48.904 230.467-128.016 309.871l0.014-0.014zM745.28 693.76v0c-59.699 59.967-142.315 97.076-233.599 97.076-182.033 0-329.6-147.567-329.6-329.6s147.567-329.6 329.6-329.6c181.767 0 329.169 147.137 329.599 328.804v0.041c0.002 0.42 0.003 0.917 0.003 1.415 0 90.542-36.686 172.515-96.004 231.867l0.001-0.001zM489.28 597.76h-32c-0.001 0-0.002 0-0.003 0-6.105 0-11.64-2.442-15.68-6.404l0.004 0.004c-4.12-4.088-6.683-9.741-6.72-15.993v-69.767c0.11-6.246 2.655-11.877 6.723-16.003l-0.003 0.003c3.761-4.139 9.166-6.726 15.174-6.726 0.178 0 0.355 0.002 0.532 0.007l-0.026-0.001h32v114.88zM532.8 323.52h32c0.027 0 0.059 0 0.092 0 6.136 0 11.671 2.578 15.579 6.71l0.009 0.010c4.048 4.014 6.593 9.538 6.72 15.656v70.744c0 0.015 0 0.032 0 0.050 0 6.050-2.583 11.496-6.706 15.297l-0.014 0.013c-3.99 4.139-9.503 6.787-15.634 7.039l-0.046 0.001h-32v-115.52z" />
<glyph unicode="&#xe91e;" glyph-name="Withdrawlable" horiz-adv-x="927" d="M593.6 326.4c-0.145 19.796-8.050 37.718-20.819 50.899l0.019-0.019c-12.661 11.8-29.598 19.158-48.248 19.519l-0.072 0.001h-119.68c-6.862 0.136-13.050 2.918-17.605 7.365l0.005-0.005c-4.434 4.316-7.226 10.299-7.36 16.935v78.105c0.203 6.851 2.97 13.018 7.369 17.609l-0.009-0.009c4.633 4.249 10.794 6.899 17.572 7.040h117.148c6.816-0.077 12.995-2.741 17.615-7.054l-0.015 0.014c4.356-4.488 7.041-10.618 7.041-17.376 0-0.079 0-0.158-0.001-0.236v0.012c1.424-11.842 11.41-20.932 23.52-20.932s22.096 9.090 23.509 20.819l0.011 0.113c-0.074 19.808-7.995 37.751-20.815 50.895l0.015-0.015c-12.976 13.151-30.962 21.331-50.859 21.44h-35.221v20.48c0.006 0.191 0.009 0.415 0.009 0.64 0 12.725-10.315 23.040-23.040 23.040-0.003 0-0.006 0-0.009 0v0c-0.191 0.006-0.416 0.009-0.642 0.009-12.901 0-23.36-10.459-23.36-23.36 0-0.116 0.001-0.231 0.003-0.346v0.017-20.16h-34.88c-39.868-0.181-72.139-32.452-72.32-72.303v-77.137c0.125-19.655 8.176-37.405 21.115-50.235l0.005-0.005c12.546-12.453 29.601-20.379 48.502-21.116l0.138-0.004h119.68c6.785-0.004 12.91-2.823 17.273-7.353l0.007-0.007c4.507-4.389 7.317-10.502 7.36-17.272v-77.448c-0.148-6.601-2.804-12.554-7.048-16.968l0.008 0.008c-4.373-4.541-10.505-7.362-17.297-7.362-0.107 0-0.213 0.001-0.319 0.002h-117.104c-0.050 0-0.11-0.001-0.169-0.001-6.833 0-13.008 2.818-17.426 7.355l-0.005 0.005c-4.21 4.455-6.933 10.354-7.356 16.88l-0.004 0.080c0.001 0.098 0.002 0.213 0.002 0.329 0 12.854-10.241 23.316-23.009 23.671l-0.033 0.001c-13.255 0-24-10.745-24-24v0c0.034-19.772 8.103-37.652 21.115-50.555l0.005-0.005c13.129-12.805 31.072-20.726 50.866-20.8h34.894v-20.48c0-0.001 0-0.001 0-0.002 0-13.078 10.602-23.68 23.68-23.68 0.113 0 0.225 0.001 0.337 0.002h-0.017c12.764 0.179 23.042 10.568 23.042 23.358 0 0.113-0.001 0.226-0.002 0.339v-0.017 20.48h35.2c19.82 0.001 37.785 7.94 50.891 20.811l-0.011-0.011c12.852 12.855 20.801 30.612 20.801 50.227 0 0.117 0 0.234-0.001 0.351v-0.018 77.44zM918.080 12.8v0c-21.512 29.891-38.959 64.536-50.519 101.772l-0.681 2.548c-12.832 36.553-20.816 78.736-22.067 122.605l-0.013 0.595v185.28c-0.076 105.24-43.011 200.437-112.292 269.092l-0.028 0.028c-34.518 34.953-75.925 63.013-122.030 81.987l-2.45 0.893c-18.1 7.923-39.489 14.865-61.657 19.729l-2.343 0.431 106.88 107.84c6.746 7.369 10.88 17.227 10.88 28.051 0 0.038 0 0.077 0 0.115v-0.006c0.001 0.095 0.001 0.208 0.001 0.321 0 21.384-17.336 38.72-38.72 38.72-0.113 0-0.226 0-0.339-0.001h-319.983c-0.043 0-0.093 0-0.144 0-10.868 0-20.741-4.266-28.033-11.216l0.016 0.016c-7.146-7.175-11.564-17.071-11.564-28s4.418-20.825 11.565-28.001l-0.001 0.001 109.44-107.84c-25.341-5.040-47.626-12.004-68.83-21.017l2.27 0.857c-93.728-39.716-166.865-112.749-205.769-203.892l-0.951-2.508c-18.176-43.041-28.757-93.079-28.8-145.583v-185.617c-1.349-44.514-9.562-86.68-23.614-126.073l0.894 2.873c-11.716-38.906-28.523-72.819-50.018-103.178l0.738 1.098c-6.158-6.915-9.92-16.081-9.92-26.125 0-0.041 0-0.081 0-0.121v0.006c-0.008-0.286-0.012-0.622-0.012-0.96 0-21.384 17.336-38.72 38.72-38.72 0.004 0 0.008 0 0.013 0h848.639c0.395-0.014 0.859-0.022 1.325-0.022 21.738 0 39.36 17.622 39.36 39.36 0 9.371-3.275 17.977-8.743 24.737l0.058-0.074zM527.68 894.4v0l-64-64-64 64zM109.12 27.52v0c8.248 16.913 16.908 38.074 24.35 59.8l1.25 4.2c15.249 44.18 24.437 95.116 25.275 148.081l0.005 0.399v185.6c-0.001 0.342-0.002 0.746-0.002 1.15 0 41.292 8.473 80.604 23.776 116.294l-0.734-1.924c16.165 38.222 38.427 70.846 65.911 98.231l0.009 0.009c27.19 27.39 59.608 49.548 95.638 64.859l1.962 0.741c33.22 13.976 71.834 22.097 112.345 22.097 1.116 0 2.231-0.006 3.344-0.018l-0.169 0.001c1.017 0.013 2.217 0.020 3.42 0.020 40.427 0 78.957-8.122 114.047-22.824l-1.948 0.724c37.286-16.453 69.118-38.548 95.984-65.584l0.016-0.016c55.054-54.56 89.172-130.165 89.28-213.739v-185.621c1.164-53.136 10.563-103.694 26.964-150.979l-1.044 3.459c8.811-25.915 17.573-47.067 27.474-67.568l-1.554 3.568z" />
<glyph unicode="&#xe91f;" glyph-name="Withdraw" horiz-adv-x="1012" d="M971.84 737.28v0 0c-24.467 24.869-58.397 40.363-95.948 40.64h-32.052c0.125 0.889 0.196 1.916 0.196 2.96 0 3.708-0.901 7.205-2.495 10.284l0.059-0.125-101.76 169.92c-4.127 7.306-11.84 12.157-20.687 12.157-4.147 0-8.045-1.066-11.435-2.939l0.122 0.062-218.56-115.84-198.72 114.56c-3.809 2.659-8.536 4.249-13.634 4.249-8.937 0-16.733-4.885-20.864-12.13l-0.062-0.118-96-168.96c-2.14-2.845-3.427-6.437-3.427-10.329 0-0.986 0.083-1.952 0.241-2.892l-0.014 0.101h-18.24c-37.589-0.352-71.497-15.828-95.986-40.626l-0.014-0.014c-25.789-24.8-41.984-59.414-42.559-97.814l-0.001-0.106v-552.96c0.624-37.483 15.901-71.281 40.334-96.014l-0.014 0.014c24.655-26.189 59.537-42.512 98.231-42.56h736.009c76.452 0.182 138.378 62.109 138.56 138.543v552.977c-0.262 37.431-15.359 71.285-39.698 96.018l0.018-0.018zM710.72 918.080v0l80.32-139.2h-171.2l-83.2 47.36 174.080 91.84zM286.080 918.080v0l240.96-138.88h-320l80 138.88zM933.76 236.8h-293.76c-4.268 0.187-8.083 1.986-10.879 4.799l-0.001 0.001c-2.58 2.786-4.162 6.528-4.162 10.639 0 0.085 0.001 0.169 0.002 0.253v-0.013 224c-0.001 0.057-0.001 0.125-0.001 0.192 0 4.229 1.578 8.090 4.176 11.025l-0.015-0.018c2.68 2.766 6.428 4.483 10.578 4.483 0.106 0 0.212-0.001 0.318-0.003h293.424v-256zM933.76 538.24h-293.76c-17.092-0.251-32.523-7.164-43.851-18.251l0.011 0.011c-11.031-11.432-17.849-26.993-17.92-44.146v-224.014c0.159-17.051 6.961-32.483 17.938-43.859l-0.018 0.019c11.129-11.478 26.625-18.666 43.8-18.88h293.48v-102.080c-0.224-16.476-6.9-31.351-17.609-42.249l0.009 0.009c-10.944-11.047-26.11-17.894-42.875-17.92h-736.005c-16.049 0.662-30.411 7.383-40.961 17.921l0.001-0.001c-11.047 10.944-17.894 26.11-17.92 42.875v552.645c0 0.053 0 0.115 0 0.177 0 16.719 6.857 31.837 17.911 42.694l0.009 0.009c11.039 10.845 26.171 17.553 42.871 17.6h736.009c0.132 0.001 0.288 0.002 0.445 0.002 16.635 0 31.668-6.861 42.422-17.908l0.013-0.013c10.99-10.98 17.819-26.123 17.92-42.861v-102.419zM714.24 294.4v0c17.807-17.954 42.485-29.069 69.76-29.069s51.953 11.115 69.753 29.062l0.007 0.007c17.384 17.709 28.114 42.001 28.114 68.8s-10.73 51.091-28.129 68.815l0.015-0.015c-17.683 17.79-42.17 28.801-69.228 28.801-0.187 0-0.374-0.001-0.561-0.002h0.029c-26.576-0.097-50.688-10.562-68.52-27.558l0.040 0.038c-17.805-17.493-29.056-41.608-29.757-68.349l-0.003-0.131c-0.008-0.448-0.012-0.976-0.012-1.506 0-26.695 10.896-50.845 28.483-68.246l0.008-0.008zM746.24 400.96v0 0c9.199 8.864 21.714 14.343 35.509 14.4h0.011c14.318-0.101 27.281-5.818 36.814-15.054l-0.014 0.014c9.932-8.821 16.412-21.338 17.273-35.375l0.007-0.145c0.010-0.374 0.016-0.815 0.016-1.257 0-14.042-5.761-26.739-15.048-35.855l-0.008-0.008c-9.367-9.296-22.269-15.041-36.513-15.041-0.101 0-0.202 0-0.302 0.001h0.015c-0.007 0-0.016 0-0.025 0-14.327 0-27.312 5.741-36.783 15.047l0.008-0.007c-9.303 9.558-15.040 22.627-15.040 37.036 0 0.030 0 0.059 0 0.089v-0.005c0.305 14.284 5.974 27.187 15.066 36.827l-0.026-0.027z" />
<glyph unicode="&#xe920;" glyph-name="Respons_Gambaling" horiz-adv-x="972" d="M504-47.36c-5.115-2.42-11.113-3.832-17.44-3.832s-12.325 1.413-17.694 3.94l0.254-0.107c-295.68 142.72-469.12 463.36-469.12 786.56 0 6.72 0 16 0 28.8s0 20.16 0 27.84c0.649 19.753 15.524 35.841 34.676 38.378l0.204 0.022c50.261 5.312 89.185 47.118 89.919 98.166l0.001 0.074v1.6c0.178 21.425 17.588 38.725 39.039 38.725 0.225 0 0.451-0.002 0.675-0.006h643.806c0.19 0.003 0.415 0.005 0.64 0.005 21.384 0 38.72-17.336 38.72-38.72 0-0.002 0-0.004 0-0.006v0c0-0.029 0-0.064 0-0.099 0-51.208 38.306-93.469 87.826-99.691l0.494-0.051c18.712-2.591 33.167-17.814 34.552-36.669l0.008-0.131c0-8.32 0-17.92 0-29.44s0-22.080 0-28.8c0-323.2-173.12-643.2-468.16-786.56zM717.12 664.32v0c7.050 7.286 16.917 11.81 27.84 11.81s20.79-4.523 27.83-11.799l0.010-0.011c7.128-7.124 11.537-16.967 11.537-27.84s-4.409-20.716-11.536-27.84v0l-284.48-284.8c-7.139-7.224-17.047-11.698-28-11.698s-20.861 4.474-27.996 11.694l-155.844 155.844c-6.958 7.141-11.249 16.909-11.249 27.68s4.291 20.539 11.257 27.689l-0.008-0.009c7.26 7.090 17.199 11.463 28.16 11.463s20.9-4.374 28.168-11.471l127.992-127.992 256 256zM486.4 32v0c258.56 133.76 407.040 420.48 407.040 707.2v24c-60.074 20.058-105.445 69.029-120.069 129.963l-0.251 1.237h-573.44c-14.635-62.39-60.261-111.514-119.368-130.84l-1.272-0.36v-24c0-288 148.48-573.44 407.36-707.2z" />
<glyph unicode="&#xe921;" glyph-name="rejected" d="M874.24 822.72c-92.674 92.774-220.755 150.163-362.24 150.163-282.77 0-512-229.23-512-512s229.23-512 512-512c282.741 0 511.953 229.183 512 511.912v0.005c0 0.024 0 0.054 0 0.083 0 141.285-57.226 269.203-149.764 361.842l0.004-0.004zM512 26.88c-239.471 0-433.6 194.129-433.6 433.6s194.129 433.6 433.6 433.6v0 0c239.471 0 433.6-194.129 433.6-433.6s-194.129-433.6-433.6-433.6v0zM469.44 584.64h76.48v-420.8h-76.48v420.8zM506.24 750.72h-2.56c-25.11-0.882-45.13-21.449-45.13-46.693 0-0.347 0.004-0.693 0.011-1.039l-0.001 0.051c0-26.51 21.49-48 48-48s48 21.49 48 48v5.12c-1.684 23.893-21.479 42.638-45.653 42.638-0.938 0-1.87-0.028-2.794-0.084l0.127 0.006z" />
<glyph unicode="&#xe922;" glyph-name="Live_Casino" horiz-adv-x="1046" d="M882.759 623.947l-342.641 341.987c-4.157 4.241-9.945 6.869-16.347 6.869s-12.19-2.629-16.344-6.865l-0.004-0.004-343.949-341.987c-90.415-1.649-163.121-75.157-163.474-165.728v-343.329c0.369-91.465 74.323-165.535 165.71-166.089h714.761c91.513 0.371 165.578 74.55 165.762 166.072v343.313c-0.353 90.606-73.058 164.114-163.319 165.76l-0.155 0.002zM523.116 915.584l291.637-291.637h-582.948zM965.803 114.889c-0.184-47.12-38.24-85.291-85.298-85.66h-714.743c-0.001 0-0.002 0-0.003 0-46.767 0-84.679 37.912-84.679 84.679 0 0.23 0.001 0.46 0.003 0.689v-0.035 343.622c-0.002 0.194-0.003 0.424-0.003 0.655 0 46.834 37.874 84.821 84.664 85.006h714.726c47.094-0.369 85.15-38.54 85.333-85.643v-0.018zM303.734 198.588h-96.45v170.994c0.035 0.565 0.055 1.225 0.055 1.889 0 7.429-2.478 14.28-6.652 19.77l0.059-0.081c-4.131 4.439-10.007 7.207-16.53 7.207-0.281 0-0.56-0.005-0.839-0.015l0.040 0.001c-0.279 0.013-0.607 0.020-0.937 0.020-6.48 0-12.313-2.773-16.377-7.196l-0.015-0.016c-4.116-5.41-6.594-12.26-6.594-19.689 0-0.665 0.020-1.325 0.059-1.979l-0.004 0.090v-181.456c-0.077-0.816-0.121-1.764-0.121-2.723 0-7.432 2.638-14.247 7.028-19.562l-0.042 0.052c5.496-4.336 12.521-6.954 20.159-6.954 0.845 0 1.682 0.032 2.511 0.095l-0.11-0.007h114.759c0.591-0.046 1.279-0.073 1.974-0.073 6.032 0 11.598 1.992 16.077 5.354l-0.069-0.050c3.63 3.409 5.891 8.239 5.891 13.596 0 0.163-0.002 0.325-0.006 0.486v-0.024c0.010 0.225 0.016 0.488 0.016 0.752 0 5.334-2.41 10.106-6.201 13.284l-0.027 0.022c-4.231 3.882-9.895 6.262-16.115 6.262-0.542 0-1.080-0.018-1.613-0.054l0.072 0.004zM384.49 398.353c-0.269 0.012-0.584 0.019-0.901 0.019-6.39 0-12.131-2.777-16.082-7.191l-0.018-0.021c-4.143-5.152-6.65-11.772-6.65-18.979 0-0.915 0.040-1.821 0.12-2.716l-0.008 0.116v-185.379c-0.071-0.779-0.111-1.685-0.111-2.6 0-7.206 2.507-13.827 6.696-19.038l-0.046 0.059c4.024-4.433 9.809-7.206 16.241-7.206 0.267 0 0.533 0.005 0.798 0.014l-0.038-0.001c0.279-0.013 0.607-0.020 0.937-0.020 6.48 0 12.313 2.773 16.377 7.196l0.015 0.016c4.149 5.114 6.661 11.702 6.661 18.877 0 0.951-0.044 1.892-0.131 2.821l0.009-0.119v185.379c0.071 0.779 0.111 1.685 0.111 2.6 0 7.206-2.507 13.827-6.696 19.038l0.046-0.059c-4.078 4.44-9.911 7.213-16.392 7.213-0.329 0-0.657-0.007-0.983-0.021l0.046 0.002zM640.49 395.41c-3.145 1.85-6.929 2.943-10.967 2.943-0.052 0-0.105 0-0.157-0.001h0.008c-0.315 0.017-0.684 0.027-1.054 0.027-4.525 0-8.704-1.483-12.078-3.989l0.054 0.039c-2.989-2.277-5.334-5.252-6.812-8.687l-0.054-0.14c-2.075-4.622-4.189-10.374-5.945-16.28l-0.267-1.048-53.619-158.897-53.292 157.589c-2.423 9.060-5.892 16.999-10.359 24.258l0.224-0.391c-3.623 4.645-9.22 7.604-15.509 7.604-0.641 0-1.274-0.031-1.899-0.091l0.080 0.006c-0.165 0.005-0.36 0.007-0.556 0.007-6.229 0-11.841-2.639-15.78-6.86l-0.012-0.013c-4.021-3.608-6.539-8.821-6.539-14.622 0-0.032 0-0.064 0-0.096v0.005c-0.134-1.177-0.211-2.541-0.211-3.923s0.077-2.746 0.226-4.089l-0.015 0.165c0.53-3.306 1.442-6.273 2.705-9.047l-0.089 0.219 2.943-8.174 55.908-152.358 5.885-16.347c2.143-5.403 4.558-10.031 7.382-14.368l-0.189 0.309c2.804-4.164 6.417-7.568 10.636-10.052l0.153-0.083c4.56-2.273 9.933-3.604 15.617-3.604 0.257 0 0.513 0.003 0.769 0.008l-0.038-0.001c0.153-0.002 0.333-0.004 0.514-0.004 5.757 0 11.203 1.328 16.050 3.696l-0.217-0.096c4.242 2.6 7.745 5.998 10.386 10.012l0.076 0.123c2.55 3.914 4.959 8.427 6.972 13.149l0.221 0.583 5.885 16.674 57.87 152.031 2.943 8.174c0.854 2.047 1.747 4.657 2.492 7.329l0.123 0.518c0.134 1.177 0.211 2.541 0.211 3.923s-0.077 2.746-0.226 4.089l0.015-0.165c-0.022 3.804-1.244 7.318-3.306 10.188l0.036-0.053c-1.605 3.928-4.060 7.223-7.151 9.775l-0.042 0.033zM846.14 197.28h-111.162v65.39h98.084c0.621-0.060 1.342-0.094 2.072-0.094 5.42 0 10.4 1.884 14.32 5.033l-0.045-0.035c3.426 3.228 5.559 7.795 5.559 12.861 0 0.076 0 0.153-0.001 0.229v-0.012c0.008 0.19 0.012 0.414 0.012 0.639 0 4.937-2.145 9.372-5.554 12.425l-0.016 0.014c-3.913 3.109-8.926 4.988-14.377 4.988-0.694 0-1.38-0.030-2.058-0.090l0.088 0.006h-98.084v58.851h107.239c0.689-0.074 1.489-0.116 2.299-0.116 5.614 0 10.755 2.021 14.737 5.375l-0.035-0.028c3.431 3.176 5.571 7.703 5.571 12.73 0 0.237-0.005 0.474-0.014 0.709l0.001-0.034c0.002 0.106 0.004 0.232 0.004 0.357 0 5.022-2.137 9.546-5.551 12.711l-0.011 0.010c-3.947 3.326-9.089 5.347-14.702 5.347-0.81 0-1.61-0.042-2.398-0.124l0.099 0.008h-125.548c-0.397 0.014-0.863 0.022-1.331 0.022-5.528 0-10.802-1.089-15.618-3.064l0.275 0.1c-4.147-2.054-7.427-5.334-9.428-9.362l-0.054-0.12c-1.876-4.64-2.964-10.020-2.964-15.655 0-0.473 0.008-0.945 0.023-1.415l-0.002 0.069v-176.879c-0.077-0.816-0.121-1.764-0.121-2.723 0-7.432 2.638-14.247 7.028-19.562l-0.042 0.052c5.184-4.36 11.933-7.009 19.301-7.009 1.032 0 2.053 0.052 3.058 0.154l-0.127-0.010h130.779c0.633-0.063 1.368-0.099 2.111-0.099 5.566 0 10.661 2.016 14.595 5.357l-0.032-0.027c3.618 3.135 5.893 7.737 5.893 12.871 0 0.188-0.003 0.375-0.009 0.561l0.001-0.027c0.010 0.221 0.015 0.48 0.015 0.74 0 5.273-2.27 10.016-5.886 13.306l-0.015 0.013c-4.177 3.532-9.625 5.678-15.573 5.678-0.848 0-1.687-0.044-2.513-0.129l0.104 0.009z" />
<glyph unicode="&#xe923;" glyph-name="Account---White" d="M215.199 103.943c-102.259 85.141-167.36 213.39-167.36 356.857 0 256.35 207.812 464.162 464.162 464.162s464.162-207.812 464.162-464.162c0-143.468-65.103-271.713-167.358-356.854-47.671 117.076-162.595 199.606-296.8 199.606-134.209 0-249.129-82.536-296.806-199.61zM512.001-51.2c282.772 0 511.999 229.229 511.999 512.001s-229.228 511.999-511.999 511.999c-282.772 0-512.001-229.228-512.001-511.999s229.229-512.001 512.001-512.001zM512.004 333.66c-102.834 0-186.191 83.355-186.191 186.189 0 102.82 83.357 186.177 186.191 186.177 102.83 0 186.182-83.357 186.182-186.177 0-102.834-83.352-186.189-186.182-186.189z" />
<glyph unicode="&#xe924;" glyph-name="Refresh" horiz-adv-x="1387" d="M980.647 174.236c9.631 9.524 22.878 15.407 37.5 15.407 29.459 0 53.341-23.882 53.341-53.341 0-14.838-6.058-28.26-15.836-37.929l-0.005-0.005c-22.364-23.108-47.226-43.562-74.221-60.998l-1.647-0.997c-24.809-16.834-53.268-32.761-83.079-46.223l-3.627-1.465c-27.693-11.839-60.349-22.019-94.199-28.911l-3.345-0.569c-30.553-6.616-65.652-10.405-101.635-10.405-0.086 0-0.172 0-0.258 0h0.013c-0.361-0.001-0.789-0.001-1.217-0.001-140.939 0-268.442 57.532-360.303 150.391l-0.045 0.045c-80.632 80.706-134.619 188.045-147.632 307.686l-0.202 2.289h-127.892c-0.709-0.032-1.54-0.051-2.376-0.051-15.081 0-28.767 5.969-38.826 15.674l0.017-0.016c-9.452 9.743-15.28 23.050-15.28 37.717s5.827 27.974 15.293 37.731l-0.013-0.014 88.874 86.706 2.168 2.601 90.174 89.307c9.904 9.631 23.442 15.57 38.367 15.57s28.463-5.939 38.38-15.582l-0.013 0.012 90.174-89.307 90.608-91.041c9.893-9.486 16.041-22.811 16.041-37.573 0-0.051 0-0.102 0-0.153v0.008c-0.963-28.695-24.456-51.59-53.296-51.59-0.010 0-0.020 0-0.030 0h-124.855c12.356-91.904 54.097-172.337 115.302-233.222l0.017-0.017c73.203-73.845 174.447-119.788 286.424-120.521l0.139-0.001c0.001 0 0.003 0 0.005 0 28.49 0 56.39 2.523 83.489 7.359l-2.857-0.423c29.634 6.241 55.583 14.609 80.284 25.312l-2.682-1.035c26.044 10.912 48.432 23.405 69.2 38.043l-1.135-0.759c22.659 15.527 42.492 31.919 60.747 49.908l-0.053-0.052zM1114.608 258.341v0c9.672-9.787 23.095-15.848 37.934-15.848s28.262 6.061 37.929 15.843l86.711 86.711 3.035 2.601 91.041 90.608c9.376 9.277 15.182 22.146 15.182 36.37 0 0.321-0.003 0.642-0.009 0.961l0.001-0.048c0.001 0.129 0.002 0.282 0.002 0.435 0 28.971-23.486 52.457-52.457 52.457-0.153 0-0.306-0.001-0.459-0.002h-132.637c-16.233 122.8-74.671 229.623-160.010 307.45l-0.397 0.357c-90.987 84.539-213.334 136.416-347.797 136.416-70.17 0-137.039-14.128-197.92-39.694l3.37 1.256c-64.731-27.646-120.082-65.071-166.996-111.069l0.087 0.085c-9.258-9.828-14.948-23.108-14.948-37.717s5.69-27.889 14.974-37.745l-0.026 0.028c9.672-9.787 23.095-15.848 37.934-15.848s28.262 6.061 37.929 15.843l0.005 0.005c73.405 73.267 174.739 118.575 286.656 118.575 199.215 0 364.9-143.557 399.251-332.864l0.373-2.476h-117.487c-1.653 0.182-3.57 0.286-5.511 0.286-29.45 0-53.324-23.874-53.324-53.324 0-14.657 5.914-27.933 15.485-37.572l180.779-180.779zM1099.434 423.95h106.215l-2.601-2.601-50.723-51.157-52.891 53.324zM232.373 514.124h55.058l-52.457 52.457-52.891-52.457z" />
<glyph unicode="&#xe925;" glyph-name="account-top" d="M215.199 103.943c-102.259 85.141-167.36 213.39-167.36 356.857 0 256.35 207.812 464.162 464.162 464.162s464.162-207.812 464.162-464.162c0-143.468-65.103-271.713-167.358-356.854-47.671 117.076-162.595 199.606-296.8 199.606-134.209 0-249.129-82.536-296.806-199.61zM512.001-51.2c282.772 0 511.999 229.229 511.999 512.001s-229.228 511.999-511.999 511.999c-282.772 0-512.001-229.228-512.001-511.999s229.229-512.001 512.001-512.001zM512.004 333.66c-102.834 0-186.191 83.355-186.191 186.189 0 102.82 83.357 186.177 186.191 186.177 102.83 0 186.182-83.357 186.182-186.177 0-102.834-83.352-186.189-186.182-186.189z" />
<glyph unicode="&#xe926;" glyph-name="X2" d="M1024 920.476l-52.324 52.324-459.86-459.86-459.492 459.86-52.324-52.324 459.86-459.492-459.86-459.86 52.324-52.324 459.492 459.86 459.86-459.86 52.324 52.324-459.86 459.86 459.86 459.492z" />
<glyph unicode="&#xe927;" glyph-name="X1" d="M1024 952.534l-20.635 20.266-491.549-491.549-491.549 491.549-20.266-20.266 491.549-491.549-491.549-491.918 20.266-20.266 491.549 491.549 491.549-491.549 20.635 20.266-491.549 491.918 491.549 491.549z" />
<glyph unicode="&#xe928;" glyph-name="Promotions" d="M544 957.76l77.12-96 114.88 45.12c4.207 1.724 9.091 2.725 14.208 2.725 16.442 0 30.47-10.334 35.945-24.861l0.087-0.264c0-3.52 1.92-6.72 2.88-9.92l18.56-120 120.32-18.56c18.574-3.393 32.467-19.45 32.467-38.752 0-2.135-0.17-4.23-0.497-6.273l0.030 0.225c-0.289-2.951-0.968-5.662-1.99-8.198l0.070 0.198-44.8-114.88 96-77.12c8.855-7.156 14.47-18.015 14.47-30.186 0-9.488-3.413-18.18-9.078-24.913l0.048 0.059c-1.721-2.351-3.729-4.359-6.003-6.026l-0.077-0.054-96-76.48 44.8-114.88c1.632-4.195 2.578-9.051 2.578-14.128 0-16.677-10.206-30.97-24.713-36.975l-0.265-0.097c-2.74-0.837-5.995-1.512-9.338-1.896l-0.262-0.024-120-18.56-17.92-122.24c-3.507-18.622-19.645-32.521-39.029-32.521-2.264 0-4.484 0.19-6.644 0.554l0.233-0.032-6.080 1.92-114.56 44.16-77.12-96c-7.333-8.953-18.387-14.621-30.766-14.621-9.326 0-17.901 3.218-24.675 8.603l0.081-0.062c-2.24 2.24-4.48 3.84-6.4 6.080l-76.48 96-116.48-44.16c-4.106-1.588-8.858-2.508-13.825-2.508-16.656 0-30.895 10.345-36.643 24.961l-0.093 0.267c-1.052 2.698-1.84 5.836-2.223 9.099l-0.017 0.181-18.56 120.32-122.24 18.56c-18.575 3.547-32.425 19.662-32.425 39.011 0 2.043 0.154 4.049 0.452 6.009l-0.027-0.22c0.569 3.133 1.457 5.923 2.652 8.544l-0.092-0.224 44.16 114.88-96.32 75.2c-8.82 7.273-14.4 18.202-14.4 30.434 0 9.346 3.257 17.931 8.699 24.682l-0.059-0.076c1.966 3.39 4.082 6.322 6.454 9.023l-0.054-0.063 96 76.8-44.8 113.6c-1.759 4.265-2.78 9.216-2.78 14.406 0 16.401 10.197 30.42 24.596 36.063l0.263 0.091c2.802 1.332 6.058 2.242 9.489 2.552l0.111 0.008 120.32 18.24 18.88 122.24c3.097 18.547 19.027 32.51 38.219 32.51 2.211 0 4.379-0.185 6.489-0.541l-0.228 0.032c3.050-0.472 5.747-1.141 8.345-2.022l-0.345 0.102 114.88-43.84 77.12 96c7.21 8.577 17.945 13.99 29.943 13.99 9.438 0 18.093-3.349 24.843-8.923l-0.066 0.053c2.445-1.846 4.554-3.955 6.342-6.32l0.058-0.080zM512 273.28v0c-21.738 0-39.36-17.622-39.36-39.36s17.622-39.36 39.36-39.36v0c21.738 0 39.36 17.622 39.36 39.36s-17.622 39.36-39.36 39.36v0zM418.88 556.8v0c0 0.074 0 0.162 0 0.25 0 24.866 10.022 47.391 26.247 63.757l-0.006-0.006c8.823 8.821 19.497 15.792 31.39 20.278l0.61 0.202c10.999 5.035 23.834 8.074 37.351 8.319l0.089 0.001c24.999-0.020 47.625-10.167 63.999-26.559l0.001-0.001c6.716-6.785 12.554-14.458 17.318-22.822l0.282-0.538c6.568-11.894 10.432-26.074 10.432-41.157 0-4.22-0.303-8.369-0.887-12.427l0.055 0.464c-2.52-18.705-11.099-35.055-23.665-47.346l-0.015-0.014c-6.056-6.652-13.269-12.127-21.341-16.132l-0.419-0.188c-22.882-10.879-42.106-26.007-57.375-44.518l-0.225-0.282c-17.968-25.509-28.717-57.229-28.717-91.459 0-3.061 0.086-6.101 0.256-9.12l-0.019 0.419c0-21.738 17.622-39.36 39.36-39.36s39.36 17.622 39.36 39.36v0c-0.242 2.397-0.379 5.181-0.379 7.997 0 16.604 4.79 32.089 13.064 45.149l-0.205-0.346c9.038 9.271 19.617 16.986 31.332 22.743l0.668 0.297c15.182 8.465 28.234 18.458 39.659 30.058l0.021 0.022c24.567 24.167 41.354 56.174 46.305 91.963l0.095 0.837c0.878 6.395 1.379 13.785 1.379 21.293 0 29.294-7.629 56.807-21.007 80.66l0.429-0.832c-8.561 15.661-18.666 29.132-30.412 40.972l0.012-0.012c-30.225 30.818-72.298 49.92-118.833 49.92-0.073 0-0.145 0-0.218 0h0.011c-1.012 0.023-2.204 0.037-3.399 0.037-23.093 0-45.028-4.962-64.795-13.878l0.995 0.401c-22.252-9.11-41.276-21.769-57.311-37.47l0.031 0.030c-30.646-30.587-49.606-72.875-49.606-119.591 0-0.481 0.002-0.962 0.006-1.443v0.074c0-21.561 17.479-39.040 39.040-39.040s39.040 17.479 39.040 39.040v0zM576 791.040v0l-64 80-64-80c-7.449-8.936-18.583-14.582-31.036-14.582-4.939 0-9.67 0.888-14.043 2.513l0.279-0.091-96 37.76-16.32-101.44c-3.023-16.311-15.689-28.977-31.755-31.962l-0.245-0.038-102.080-17.6 36.8-94.080c1.98-4.581 3.132-9.914 3.132-15.517 0-12.584-5.811-23.811-14.896-31.143l-0.076-0.060-80-64 80-64c9.099-7.152 14.89-18.159 14.89-30.518 0-5.143-1.003-10.051-2.823-14.541l0.093 0.259-37.12-96 101.12-16c16.311-3.023 28.977-15.689 31.962-31.755l0.038-0.245 16.32-101.44 94.72 34.24c4.629 2.069 10.031 3.273 15.715 3.273 12.553 0 23.734-5.877 30.941-15.029l0.064-0.084 64-79.36 64 79.36c7.51 9.155 18.823 14.949 31.49 14.949 5.007 0 9.802-0.905 14.231-2.561l-0.281 0.092 96-36.8 15.68 100.8c3.023 16.311 15.689 28.977 31.755 31.962l0.245 0.038 101.44 16-34.24 96.32c-2.359 4.926-3.737 10.707-3.737 16.81 0 12.084 5.402 22.906 13.922 30.184l0.055 0.046 80 64-80 64c-8.989 7.45-14.672 18.617-14.672 31.111 0 5.030 0.921 9.846 2.604 14.286l-0.092-0.277 37.12 96-101.44 16c-16.402 2.842-29.158 15.598-31.966 31.767l-0.034 0.233-16 101.76-94.72-34.88c-4.888-2.27-10.609-3.594-16.64-3.594-12.108 0-22.969 5.337-30.36 13.787l-0.040 0.047z" />
<glyph unicode="&#xe929;" glyph-name="Sports" horiz-adv-x="1025" d="M1007.344 593.885c-36.146 133.117-121.255 242.121-234.32 308.752l-2.382 1.298c-73.734 43.175-162.362 68.67-256.944 68.67-188.12 0-352.684-100.856-442.57-251.447l-1.303-2.356-1.602-2.242c-42.913-73.335-68.252-161.475-68.252-255.533 0-187.92 101.145-352.216 251.965-441.419l2.381-1.303h1.922c73.483-43.134 161.843-68.608 256.152-68.608 187.935 0 352.243 101.161 441.44 252.001l1.303 2.381v1.602c43.084 73.45 68.528 161.76 68.528 256.012 0 47.359-6.424 93.218-18.448 136.752l0.848-3.599zM251.115 496.193v0l167.197 34.272 133.245-160.15-55.732-147.018c-23.881-10.842-52.004-20.313-81.201-26.964l-3.038-0.582c-25.536-6.094-54.979-9.805-85.214-10.246l-0.307-0.004c-28.261 16.879-52.656 36.178-74.248 58.232l-0.062 0.063c-20.181 21.993-38.392 46.423-53.973 72.6l-1.119 2.030c6.406 32.030 14.093 64.060 23.062 93.528 9.626 33.269 20.525 61.537 33.506 88.618l-1.476-3.418zM200.188 669.155v0c37.54 45.976 83.602 83.441 135.98 110.349l2.39 1.115 106.34-35.553-40.678-169.439-154.385-32.030-49.647 125.558zM453.865 561.855v0c-1.118 1.34-2.381 2.502-3.782 3.482l-0.062 0.041 41.639 173.282 185.774 20.499 126.198-138.69-52.209-175.845-163.994-42.6-133.565 160.15zM691.528 856.211v0l-20.82-50.287-195.703-21.78-128.12 42.6-11.531 32.030c52.379 23.895 113.606 37.823 178.087 37.823s125.709-13.928 180.839-38.94l-2.752 1.118zM93.528 349.175v0c-9.6 33.923-15.119 72.881-15.119 113.128 0 71.528 17.432 138.985 48.28 198.353l-1.131-2.392 29.468-5.125 54.451-135.167c-12.998-26.32-25.002-57.476-34.243-89.799l-0.99-4.049c-8.648-30.108-16.015-60.216-22.101-90.645l-50.928-9.929c-2.883 8.328-5.445 16.656-7.687 25.624zM640.601 47.132v0c-4.447-1.901-9.79-3.66-15.304-4.981l-0.711-0.144c-33.347-9.252-71.639-14.569-111.173-14.569-71.154 0-138.285 17.225-197.451 47.732l2.416-1.132 18.577 64.060c30.692 1.136 59.824 5.16 87.935 11.821l-3.055-0.611c34.858 7.886 65.121 17.904 94.029 30.456l-3.384-1.308 135.487-70.466-7.367-60.857zM544.51 215.61v0l53.17 138.37 160.15 41.959 49.647-138.37c-16.596-22.357-34.917-41.897-55.231-59.161l-0.501-0.415c-23.117-18.957-49.030-36.28-76.562-50.966l-2.553-1.243-128.12 69.825zM917.34 302.091v0l-69.505-19.218-51.248 141.893 55.412 187.696 66.622 5.445c5.445-15.054 9.609-29.788 14.093-44.522 9.537-33.763 15.020-72.538 15.020-112.593 0-57.153-11.163-111.7-31.427-161.577l1.033 2.876zM357.455 391.775v0c-1.233 1.005-2.763 1.692-4.438 1.917l-0.046 0.005-22.101 170.72 162.072 82.958 162.713-82.317 13.453-176.485-134.526-96.090-177.126 98.973z" />
<glyph unicode="&#xe92a;" glyph-name="Virtual-SPorts" d="M39.68 892.8h944.64c0 0 0.001 0 0.001 0 21.802 0 39.497-17.583 39.679-39.343v-679.697c0 0 0-0.001 0-0.001 0-21.738-17.622-39.36-39.36-39.36-0.113 0-0.225 0-0.337 0.001h-433.263v-47.040h218.88c12.978-0.356 23.362-10.961 23.362-23.992 0-0.115-0.001-0.231-0.002-0.346v0.017c0-12.901-10.459-23.36-23.36-23.36v0h-515.84c-0.001 0-0.001 0-0.002 0-12.966 0-23.497 10.42-23.678 23.343v0.017c0 0.003 0 0.005 0 0.008 0 13.207 10.527 23.954 23.647 24.311l0.033 0.001h218.56v47.040h-432.96c0 0-0.001 0-0.001 0-21.802 0-39.497 17.583-39.679 39.343v679.697c0.358 21.705 17.949 39.183 39.663 39.36h0.017zM535.68 732.8v0c102.045-12.233 182.157-92.236 194.454-193.173l0.106-1.067h12.8c13.078 0 23.68-10.602 23.68-23.68s-10.602-23.68-23.68-23.68h-12.8c-12.288-102.057-92.461-182.121-193.511-194.138l-1.049-0.102v-12.8c0-13.078-10.602-23.68-23.68-23.68s-23.68 10.602-23.68 23.68v0 12.8c-101.72 11.705-181.705 91.362-193.817 191.91l-0.103 1.050h-13.44c-13.078 0-23.68 10.602-23.68 23.68s10.602 23.68 23.68 23.68h13.44c11.199 102.624 91.496 183.469 192.884 195.421l1.036 0.099v11.84c0 13.078 10.602 23.68 23.68 23.68s23.68-10.602 23.68-23.68v0-11.84zM535.68 685.12v0-32c0-13.078-10.602-23.68-23.68-23.68s-23.68 10.602-23.68 23.68v0 32c-75.965-11.292-135.268-70.595-146.444-145.612l-0.116-0.948h29.76c13.078 0 23.68-10.602 23.68-23.68s-10.602-23.68-23.68-23.68h-29.76c11.086-76.064 70.495-135.474 145.626-146.448l0.934-0.112v30.080c0 13.078 10.602 23.68 23.68 23.68s23.68-10.602 23.68-23.68v0-30.080c75.965 11.292 135.268 70.595 146.444 145.612l0.116 0.948h-30.080c-13.078 0-23.68 10.602-23.68 23.68s10.602 23.68 23.68 23.68h30.080c-11.495 75.867-70.693 135.065-145.598 146.44l-0.962 0.12zM874.24 323.52v0c21.376-0.342 38.659-17.4 39.358-38.655l0.002-0.065c0-21.738-17.622-39.36-39.36-39.36s-39.36 17.622-39.36 39.36v0c0 0.002 0 0.003 0 0.005 0 21.866 17.546 39.635 39.326 39.994h0.034zM945.28 813.76h-866.56v-600.64h866.56v600.64z" />
<glyph unicode="&#xe92b;" glyph-name="No-Success" d="M512 912.119c249.256 0 451.319-202.062 451.319-451.319s-202.062-451.319-451.319-451.319c-249.256 0-451.319 202.062-451.319 451.319v0c0.302 249.135 202.184 451.016 451.289 451.318h0.029zM512 972.8c-282.77 0-512-229.23-512-512s229.23-512 512-512c282.77 0 512 229.23 512 512v0c0 282.77-229.23 512-512 512v0zM642.844 646.94l-134.182-134.182-134.106 134.182-37.623-37.547 134.258-134.182-134.258-134.182 37.623-37.547 134.106 134.182 134.182-134.182 37.547 37.547-134.182 134.182 134.182 134.182-37.547 37.547z" />
<glyph unicode="&#xe92c;" glyph-name="Bonus-Amount2" d="M1024 364.16c0.001 0.096 0.002 0.209 0.002 0.322 0 13.32-10.708 24.139-23.985 24.318h-138.897l-42.56 131.2 37.12 26.56c6.141 4.273 10.137 11.259 10.24 19.184v0.016c0.001 0.095 0.002 0.207 0.002 0.32 0 13.432-10.888 24.32-24.32 24.32-0.001 0-0.001 0-0.002 0h-233.6l-72.96 221.76c-1.433 8.139-7.435 14.57-15.215 16.608l-0.145 0.032c-2.665 1.11-5.762 1.755-9.009 1.755-10.8 0-19.933-7.133-22.946-16.945l-0.045-0.17-70.080-223.36h-232.64c-0.329 0.015-0.715 0.024-1.103 0.024-8.309 0-15.681-4.008-20.289-10.197l-0.048-0.067c-2.349-3.675-3.744-8.157-3.744-12.964 0-7.687 3.567-14.542 9.135-18.998l0.048-0.037 36.8-26.56-42.56-132.8h-136.96c-0.329 0.015-0.715 0.023-1.103 0.023-8.405 0-15.875-4-20.611-10.201l-0.046-0.063c-2.818-3.987-4.504-8.947-4.504-14.302 0-8.12 3.878-15.335 9.882-19.893l0.062-0.045 112.64-80.96-43.2-131.52c-0.762-2.126-1.203-4.579-1.203-7.135 0-5.488 2.032-10.502 5.385-14.33l-0.022 0.025c4.421-5.926 11.412-9.721 19.291-9.721 4.709 0 9.102 1.356 12.808 3.7l-0.099-0.058 112.64 82.24 110.72-80.96c4.403-3.683 10.126-5.92 16.372-5.92 2.255 0 4.443 0.292 6.526 0.839l-0.178-0.040c10.138 3.445 17.303 12.88 17.303 23.988 0 2.866-0.477 5.621-1.356 8.189l0.053-0.178-18.56 55.68 152.96 109.76 152-110.4-17.92-55.68c-0.756-2.199-1.193-4.733-1.193-7.37 0-5.309 1.771-10.205 4.755-14.128l-0.042 0.057c4.421-5.926 11.412-9.721 19.291-9.721 4.709 0 9.102 1.356 12.808 3.7l-0.099-0.058 112.64 82.24 110.72-80.96c4.584-3.638 10.453-5.837 16.836-5.837 2.201 0 4.34 0.261 6.389 0.755l-0.186-0.038c9.988 3.529 17.016 12.889 17.016 23.891 0 2.902-0.489 5.691-1.389 8.287l0.054-0.178-43.2 131.84 112.32 80.96c5.959 4.648 9.791 11.783 9.92 19.819v0.021zM328.96 318.72v0l-36.16-26.56c-6.373-4.31-10.507-11.511-10.507-19.678 0-2.692 0.449-5.278 1.276-7.689l-0.050 0.167 14.080-41.92-7.040-21.44-47.36 33.92c-3.85 2.996-8.754 4.803-14.080 4.803s-10.23-1.807-14.132-4.842l0.052 0.039-66.24-46.72 25.6 77.12c0.66 2.162 1.040 4.648 1.040 7.222 0 8.24-3.893 15.572-9.941 20.254l-0.059 0.044-64 47.36h79.36c0.058-0.001 0.127-0.001 0.196-0.001 10.625 0 19.637 6.904 22.795 16.471l0.048 0.17 25.6 77.44 24.32-77.44c3.735-9.807 13.061-16.648 23.984-16.648 0.231 0 0.461 0.003 0.69 0.009l-0.034-0.001h57.28l-6.72-21.44zM294.72 388.48v0l-28.16 88.32 92.16-66.24-7.040-20.8zM526.72 347.2v0c-3.96 2.834-8.902 4.531-14.24 4.531s-10.28-1.698-14.315-4.582l0.075 0.051-142.4-104 17.28 52.16 19.52 60.48 17.28 54.4c0.817 2.313 1.288 4.98 1.288 7.758 0 7.968-3.883 15.030-9.86 19.395l-0.068 0.047-142.72 103.36h176.96c10.453 0.446 19.185 7.34 22.349 16.786l0.051 0.174 54.080 167.36 54.4-167.36c3.321-9.947 12.549-16.99 23.422-16.99 0.428 0 0.854 0.011 1.277 0.033l-0.059-0.002h174.72l-142.72-103.36c-6.045-4.413-9.928-11.474-9.928-19.442 0-2.778 0.472-5.445 1.34-7.926l-0.051 0.168 17.28-53.12 19.52-60.48 16.96-52.8-142.080 104zM672 388.48v0l-6.4 20.8 92.16 67.52-28.48-87.040zM858.24 292.48v0c-6.045-4.413-9.928-11.474-9.928-19.442 0-2.778 0.472-5.445 1.34-7.926l-0.051 0.168 25.92-76.48-65.6 47.68c-3.961 2.997-8.97 4.8-14.4 4.8s-10.439-1.803-14.46-4.844l0.060 0.044-47.36-34.88-7.040 21.44 14.080 41.92c0.721 2.212 1.137 4.757 1.137 7.399 0 8.278-4.082 15.602-10.342 20.070l-0.075 0.051-35.52 25.92-7.36 21.44h59.2c10.605 0.217 19.567 7.015 22.985 16.466l0.055 0.174 24.96 77.44 24.64-77.44c3.627-9.805 12.896-16.668 23.768-16.668 0.419 0 0.836 0.010 1.25 0.030l-0.058-0.002h79.36l-65.92-48z" />
<glyph unicode="&#xe92d;" glyph-name="In_play" horiz-adv-x="794" d="M584.32 46.72c7.835 3.846 14.331 7.571 20.576 11.651l-0.736-0.451c48.732 29.731 85.168 75.513 102.271 129.865l0.449 1.655c6.366 24.273 10.022 52.139 10.022 80.859 0 69.177-21.208 133.4-57.478 186.523l0.736-1.141c-42.336 67.5-67.468 149.53-67.52 237.426v0.014c-38.080-46.4-40.64-109.76-52.16-166.4-7.59-51.128-45.851-91.547-95.192-102.253l-0.808-0.147c-7.724-1.443-16.61-2.269-25.69-2.269-12.35 0-24.343 1.528-35.801 4.404l1.011-0.215c-21.060 5.476-39.333 15.342-54.559 28.616l0.159-0.136c-27.807 25.378-45.185 61.774-45.185 102.23 0 17.66 3.311 34.546 9.347 50.072l-0.322-0.942c8.512 22.732 13.439 49.001 13.439 76.421 0 58.767-22.63 112.248-59.652 152.205l0.133-0.145c10.88-130.88-33.6-243.84-104.32-352-27.994-43.064-48.925-93.531-59.704-147.658l-0.456-2.742c-18.88-100.16 0-213.76 92.16-272.32 5.155-3.694 11.027-7.208 17.182-10.232l0.738-0.328c-1.895 11.7-2.977 25.188-2.977 38.928 0 38.562 8.526 75.132 23.796 107.929l-0.659-1.577c17.979 39.334 45.177 71.769 78.935 95.504l0.745 0.496c25.305 17.588 56.026 29.143 89.238 31.953l0.682 0.047c0.988 0.091 2.137 0.143 3.298 0.143 20.068 0 36.51-15.523 37.974-35.217l0.008-0.126c0.031-0.596 0.049-1.294 0.049-1.997 0-12.73-5.853-24.093-15.015-31.544l-0.075-0.059c-4.984-3.986-9.143-8.757-12.348-14.16l-0.132-0.24c-5.702-10.157-9.060-22.293-9.060-35.214 0-1.346 0.036-2.683 0.108-4.011l-0.008 0.185c3.84-44.48 35.52-55.040 73.28-58.88 58.56-6.080 118.080-21.76 123.52-96zM644.8-6.4v0c-26.419-16.923-56.863-31.176-89.167-41.205l-2.673-0.715c-2.93-0.774-6.293-1.219-9.76-1.219s-6.83 0.445-10.036 1.28l0.276-0.061c-17.389 4.049-30.146 19.414-30.146 37.759 0 2.604 0.257 5.148 0.747 7.608l-0.041-0.247c11.84 57.6-8 64-50.88 69.44-74.56 7.68-134.72 46.72-141.44 128 0 4.16 0 8 0 12.8-11.272-12.905-20.908-27.662-28.324-43.657l-0.476-1.143c-10.559-20.771-16.745-45.293-16.745-71.261 0-29.756 8.123-57.614 22.272-81.479l-0.406 0.74c4.872-6.692 7.795-15.075 7.795-24.141 0-2.78-0.275-5.496-0.799-8.122l0.044 0.263c-4.092-17.332-19.429-30.032-37.733-30.032-2.384 0-4.719 0.216-6.984 0.628l0.237-0.036c-44.080 7.919-83.351 23.683-118.101 45.898l1.301-0.778c-118.4 76.8-150.4 220.48-126.080 351.040 13.428 67.283 38.243 126.969 72.572 179.914l-1.212-1.994c84.8 132.16 112.96 248.32 76.16 403.2v0c-0.659 2.696-1.037 5.792-1.037 8.975 0 8.647 2.788 16.643 7.515 23.137l-0.078-0.113c7.088 9.193 18.104 15.057 30.49 15.057 8.509 0 16.371-2.767 22.736-7.451l-0.106 0.075c131.2-96 200.64-220.8 150.72-384-3.221-7.484-5.094-16.195-5.094-25.344 0-17.774 7.069-33.897 18.549-45.711l-0.015 0.016c6.699-5.584 14.75-9.792 23.578-12.068l0.422-0.092c3.828-1.221 8.232-1.925 12.8-1.925s8.972 0.704 13.108 2.009l-0.308-0.084c20.146 4.495 35.281 21.367 37.107 42.060l0.013 0.18c24 119.68 32 200.32 152.96 267.84 5.958 3.532 13.132 5.62 20.794 5.62 2.261 0 4.48-0.182 6.643-0.532l-0.237 0.032c17.822-3.561 31.063-19.080 31.063-37.693 0-2.513-0.241-4.97-0.702-7.349l0.039 0.242c-4.812-22.651-7.567-48.676-7.567-75.344 0-73.489 20.923-142.092 57.137-200.176l-0.93 1.6c42.722-63.135 68.2-140.975 68.2-224.767 0-36.819-4.919-72.489-14.137-106.388l0.657 2.835c-22.918-73.971-70.708-134.534-133.395-173.317l-1.325-0.763z" />
<glyph unicode="&#xe92e;" glyph-name="Casino" d="M0-11.84v488.64c-0.001 0.095-0.001 0.208-0.001 0.321 0 21.738 17.622 39.36 39.36 39.36 0.113 0 0.226 0 0.339-0.001h268.463l-43.2 43.2c-6.977 7.192-11.278 17.014-11.278 27.84s4.301 20.648 11.288 27.85l346.23 346.23c7.141 6.958 16.909 11.249 27.68 11.249s20.539-4.291 27.689-11.257l-0.009 0.008 345.92-346.24c7.128-7.124 11.537-16.967 11.537-27.84s-4.409-20.716-11.536-27.84v0l-345.92-346.24c-7.141-6.958-16.909-11.249-27.68-11.249s-20.539 4.291-27.689 11.257l0.009-0.008-3.2 1.92-41.28 41.92v-269.12c0-0.010 0-0.021 0-0.033 0-21.175-16.722-38.445-37.68-39.325l-0.080-0.003h-489.28c-0.095-0.001-0.207-0.001-0.32-0.001-21.738 0-39.36 17.622-39.36 39.36 0 0 0 0.001 0 0.001v0zM386.24 374.72v0c-20.329-1.886-36.12-18.859-36.12-39.52s15.791-37.634 35.963-39.508l0.157-0.012c20.329 1.886 36.12 18.859 36.12 39.52s-15.791 37.634-35.963 39.508l-0.157 0.012zM181.76 169.92v0c-0.19 0.003-0.414 0.005-0.639 0.005-21.915 0-39.68-17.765-39.68-39.68s17.765-39.68 39.68-39.68c21.915 0 39.68 17.765 39.68 39.68 0 0.111 0 0.221-0.001 0.332v-0.017c0 0 0 0.001 0 0.001 0 21.625-17.44 39.177-39.023 39.359h-0.017zM284.16 272v0c-0.095 0.001-0.207 0.001-0.319 0.001-21.738 0-39.36-17.622-39.36-39.36s17.622-39.36 39.36-39.36c21.738 0 39.36 17.622 39.36 39.36 0 0.112 0 0.224-0.001 0.336v-0.017c-0.18 21.489-17.551 38.86-39.023 39.040h-0.017zM386.24 169.92v0c-0.095 0.001-0.207 0.001-0.319 0.001-21.915 0-39.68-17.765-39.68-39.68s17.765-39.68 39.68-39.68c21.915 0 39.68 17.765 39.68 39.68 0 0.112 0 0.224-0.001 0.336v-0.017c0 21.738-17.622 39.36-39.36 39.36v0zM465.6 615.36v0c-6.977-7.192-11.278-17.014-11.278-27.84s4.301-20.648 11.288-27.85l-0.010 0.010c7.153-7.193 17.057-11.645 28-11.645 21.807 0 39.485 17.678 39.485 39.485 0 10.864-4.387 20.703-11.487 27.842l0.002-0.002c-7.175 7.146-17.071 11.564-28 11.564s-20.825-4.418-28.001-11.565l0.001 0.001zM755.52 615.36v0c-7.128-7.124-11.537-16.967-11.537-27.84s4.409-20.716 11.536-27.84v0c7.050-7.286 16.917-11.81 27.84-11.81s20.79 4.523 27.83 11.799l0.010 0.011c7.125 7.125 11.532 16.968 11.532 27.84 0 21.744-17.627 39.372-39.372 39.372-10.872 0-20.715-4.407-27.84-11.532v0zM610.56 615.36v0c-7.022-7.105-11.36-16.877-11.36-27.662 0-21.738 17.622-39.36 39.36-39.36s39.36 17.622 39.36 39.36c0 10.785-4.338 20.557-11.364 27.666l0.004-0.004c-7.139 7.224-17.047 11.698-28 11.698s-20.861-4.474-27.996-11.694l-0.004-0.004zM610.56 470.080v0c-7.353-6.958-11.928-16.784-11.928-27.68s4.576-20.722 11.911-27.663l0.018-0.017c7.057-7.020 16.787-11.36 27.531-11.36 21.561 0 39.040 17.479 39.040 39.040s-17.479 39.040-39.040 39.040c-10.743 0-20.473-4.34-27.532-11.362l0.002 0.002zM610.56 760.32v0c-6.012-6.875-9.679-15.935-9.679-25.851 0-21.738 17.622-39.36 39.36-39.36 9.836 0 18.83 3.608 25.729 9.573l-0.050-0.042c9.523 7.261 15.607 18.612 15.607 31.385 0 21.738-17.622 39.36-39.36 39.36-12.532 0-23.695-5.856-30.904-14.982l-0.063-0.083zM181.76 374.72v0c-0.19 0.003-0.414 0.005-0.639 0.005-21.915 0-39.68-17.765-39.68-39.68s17.765-39.68 39.68-39.68c21.8 0 39.495 17.581 39.679 39.337v0.017c0.003 0.191 0.005 0.416 0.005 0.641 0 21.627-17.443 39.18-39.028 39.359h-0.017zM418.88 516.48h110.080c21.461-0.359 38.721-17.841 38.721-39.355 0-0.114 0-0.229-0.001-0.343v0.017-109.12l72.32-70.080 289.92 288-289.92 291.2-290.24-290.24 70.4-70.72zM78.72 438.4v0-410.88h410.56v410.88h-410.56z" />
<glyph unicode="&#xe92f;" glyph-name="Success" d="M512 912.119c249.256 0 451.319-202.062 451.319-451.319s-202.062-451.319-451.319-451.319c-249.256 0-451.319 202.062-451.319 451.319v0c0.302 249.135 202.184 451.016 451.289 451.318h0.029zM512 972.8c-282.77 0-512-229.23-512-512s229.23-512 512-512c282.77 0 512 229.23 512 512v0c0 282.77-229.23 512-512 512v0zM411.724 277.239h-0.607c-8.587 0.184-16.27 3.907-21.675 9.764l-0.019 0.021-136.533 147.911 44.601 41.188 115.143-124.7 296.201 296.201 42.932-42.856-318.578-318.578c-5.485-5.517-13.075-8.936-21.463-8.951h-0.003z" />
<glyph unicode="&#xe930;" glyph-name="Chat" horiz-adv-x="1029" d="M383.558 972.8c1.119 0.011 2.44 0.017 3.764 0.017 100.534 0 192.885-35.037 265.508-93.566l-0.813 0.634c64.511-51.748 107.422-128.125 114.386-214.649l0.070-1.082c70.548-19.506 130.891-56.321 178.314-105.648l0.122-0.128c51.332-52.514 83.219-124.224 83.912-203.38l0.001-0.134c-0.039-44.19-10.237-85.989-28.385-123.199l0.735 1.67c-16.724-35.109-38.286-65.1-64.256-90.621l-0.045-0.044v-154.323c0.003-0.179 0.004-0.391 0.004-0.602 0-7.988-2.276-15.444-6.214-21.755l0.101 0.174c-7.269-10.635-19.339-17.524-33.018-17.524-8.177 0-15.779 2.462-22.105 6.684l0.145-0.091-128.603 85.521c-13.503-3.215-27.971-5.787-41.796-7.716-18.329-2.531-39.624-4.046-61.247-4.179l-0.16-0.001c-1.185-0.012-2.585-0.019-3.987-0.019-100.462 0-192.74 35.040-265.279 93.565l0.808-0.63c-60.342 48.633-101.745 118.648-112.669 198.374l-0.18 1.604-109.955-74.268c-6.368-4.502-14.292-7.195-22.846-7.195-13.933 0-26.197 7.148-33.325 17.977l-0.093 0.15c-3.987 6.3-6.375 13.957-6.43 22.169v153.374c-25.83 25.575-47.362 55.43-63.457 88.425l-0.845 1.919c-16.267 34.526-25.762 74.992-25.762 117.675 0 1.694 0.015 3.385 0.045 5.073l-0.004-0.254c1.552 94.41 46.067 178.115 114.794 232.613l0.627 0.48c71.613 57.891 163.78 92.935 264.132 92.935 1.408 0 2.814-0.007 4.219-0.021l-0.214 0.002zM257.206 686.659v0c0.096 0.001 0.208 0.001 0.322 0.001 22.018 0 39.867-17.849 39.867-39.867s-17.849-39.867-39.867-39.867c-22.017 0-39.866 17.848-39.867 39.865v0c0 0 0 0.001 0 0.001 0 21.905 17.666 39.683 39.528 39.865h0.017zM383.879 686.659v0c22.018 0 39.867-17.849 39.867-39.867s-17.849-39.867-39.867-39.867c-22.018 0-39.867 17.849-39.867 39.867v0c0 0 0 0.001 0 0.001 0 21.905 17.666 39.683 39.528 39.865h0.017zM510.553 686.659v0c0.096 0.001 0.208 0.001 0.322 0.001 22.018 0 39.867-17.849 39.867-39.867s-17.849-39.867-39.867-39.867c-22.017 0-39.866 17.848-39.867 39.865v0c0 0.002 0 0.003 0 0.005 0 21.792 17.484 39.5 39.19 39.861h0.034zM760.364 583.455v0c-17.436-68.704-55.639-126.745-107.434-168.649l-0.592-0.464c-71.552-58.277-163.835-93.579-264.364-93.579-1.44 0-2.878 0.007-4.314 0.022l0.219-0.002c-13.503 0-26.685 0-40.188 2.251 10.593-57.228 40.892-106.019 83.456-140.144l0.458-0.355c57.731-46.303 131.868-74.311 212.546-74.311 1.911 0 3.819 0.016 5.722 0.047l-0.287-0.004c1.687-0.035 3.675-0.056 5.668-0.056 16.047 0 31.789 1.306 47.126 3.818l-1.674-0.226c18.432 2.249 34.885 5.632 50.835 10.207l-2.287-0.561c2.811 0.746 6.038 1.174 9.366 1.174 8.593 0 16.519-2.857 22.88-7.673l-0.095 0.069 79.734-53.37v98.060c-0.001 0.117-0.002 0.254-0.002 0.392 0 11.543 4.945 21.93 12.833 29.16l0.029 0.027c24.48 20.954 44.547 46.259 59.159 74.818l0.641 1.38c12.578 25.644 19.933 55.811 19.933 87.695 0 0.027 0 0.054 0 0.080v-0.004c-0.875 58.315-24.516 110.943-62.405 149.534l0.032-0.033c-34.78 35.619-77.989 62.851-126.412 78.48l-2.191 0.611zM601.861 819.12v0c-57.673 46.69-131.929 74.956-212.787 74.956-1.939 0-3.875-0.016-5.807-0.049l0.291 0.004c-1.818 0.035-3.961 0.056-6.109 0.056-80.459 0-154.312-28.282-212.16-75.448l0.609 0.481c-51.714-40.499-85.104-102.347-86.802-172.053l-0.005-0.275c0.075-31.804 7.422-61.873 20.465-88.659l-0.531 1.209c14.759-30.553 34.549-56.408 58.57-77.575l0.266-0.229c7.916-7.407 12.852-17.916 12.86-29.577v-96.454l79.734 53.049c6.447 4.75 14.547 7.603 23.313 7.603 3.834 0 7.541-0.546 11.046-1.563l-0.279 0.069c6.597-2.169 14.92-4.285 23.421-5.898l1.335-0.211h1.608c6.453-1.874 14.102-3.348 21.952-4.135l0.553-0.045c14.948-2.202 32.422-3.595 50.171-3.855l0.305-0.004c1.325-0.019 2.89-0.029 4.456-0.029 81.25 0 155.872 28.38 214.493 75.767l-0.646-0.506c51.265 40.594 84.287 102.291 85.838 171.753l0.004 0.254c-1.453 69.836-34.498 131.668-85.374 171.97l-0.468 0.358z" />
<glyph unicode="&#xe931;" glyph-name="world-cup" d="M776.641 708.165c0 145.923-118.716 264.635-264.643 264.635s-264.643-118.712-264.643-264.635c0-33.554 10.172-72.317 11.786-78.202l-0.020-0.008c9.548-32.943 23.825-64.593 38.94-98.099 33.744-74.805 71.987-159.585 71.987-291.797 0-127.805-44.29-221.316-57.863-246.932-4.955-9.355-4.649-20.629 0.809-29.702s15.276-14.624 25.866-14.624h346.279c10.59 0 20.404 5.551 25.866 14.624 5.458 9.073 5.768 20.348 0.809 29.702-13.573 25.613-57.863 119.127-57.863 246.932 0 132.213 38.244 216.996 71.987 291.797 15.119 33.506 29.392 65.161 38.94 98.099l-0.020 0.008c1.61 5.885 11.782 44.648 11.782 78.202zM511.998 912.421c112.63 0 204.265-91.63 204.265-204.257 0-17.115-3.933-37.773-6.726-50.315-16.664 14.217-37.576 22.022-59.718 22.022-23.938 0-46.443-9.125-63.679-25.621-37.197 77.764-84.353 151.055-134.753 166.89-21.306 6.698-42.386 3.764-60.962-8.489-23.902-15.767-45.63-52.944-19.575-124.649 0.398-1.091-0.423 1.147-0.016 0.060 0.008-0.020 0.012-0.040 0.016-0.060 7.088-22.28-4.822-45.799-19.369-50.472-16.995-5.458-35.334 10.458-39.355 31.606-2.25 11.822-4.396 26.397-4.396 39.033 0.004 112.622 91.639 204.253 204.269 204.253zM536.838 441.658c-2.355 81.998-24.82 118.024-55.911 167.885l-4.166 6.686c-74.072 119.119-59.36 141.882-53.085 146.015 3.353 2.21 5.692 2.528 9.612 1.288 26.881-8.445 77.651-76.403 130.498-209.196 0.068-0.169 0.153-0.322 0.221-0.487 4.581-11.637 11.488-22.336 20.593-31.441 16.129-16.133 37.205-25.444 59.791-26.752-26.631-65.805-50.815-146.563-50.815-255.603 0-42.241 4.283-80.927 10.755-115.395h-170.988c72.342 132.664 106.29 219.307 103.493 316.999zM672.355 565.112c-6.018-6.022-14.020-9.335-22.537-9.335-8.509 0-16.512 3.313-22.529 9.335-6.018 6.014-9.33 14.008-9.33 22.517s3.317 16.512 9.335 22.533c6.018 6.022 14.016 9.33 22.525 9.33s16.512-3.313 22.533-9.33 9.33-14.016 9.33-22.529c0.004-8.513-3.313-16.512-9.326-22.521zM353.098 556.683c-2.991 6.63-5.929 13.167-8.807 19.651 0.527-0.012 1.051-0.072 1.582-0.072 7.962 0 15.992 1.208 23.926 3.727 16.451 5.245 30.399 15.348 41.009 28.458 4.838-8.127 9.761-16.185 14.68-24.095l4.206-6.754c28.954-46.435 44.906-72.016 46.789-137.667 1.606-56.237-10.289-109.193-46.173-187.665-2.319 138.347-43.738 230.207-77.212 304.417zM386.036 9.179c6.344 15.638 12.997 34.114 19.168 55.101h213.587c6.171-20.992 12.824-39.467 19.168-55.101h-251.923z" />
<glyph unicode="&#xe932;" glyph-name="Live_Casino2" horiz-adv-x="1046" d="M882.759 623.947l-342.641 341.987c-4.157 4.241-9.945 6.869-16.347 6.869s-12.19-2.629-16.344-6.865l-0.004-0.004-343.949-341.987c-90.415-1.649-163.121-75.157-163.474-165.728v-343.329c0.369-91.465 74.323-165.535 165.71-166.089h714.761c91.513 0.371 165.578 74.55 165.762 166.072v343.313c-0.353 90.606-73.058 164.114-163.319 165.76l-0.155 0.002zM523.116 915.584l291.637-291.637h-582.948zM965.803 114.889c-0.184-47.12-38.24-85.291-85.298-85.66h-714.743c-0.001 0-0.002 0-0.003 0-46.767 0-84.679 37.912-84.679 84.679 0 0.23 0.001 0.46 0.003 0.689v-0.035 343.622c-0.002 0.194-0.003 0.424-0.003 0.655 0 46.834 37.874 84.821 84.664 85.006h714.726c47.094-0.369 85.15-38.54 85.333-85.643v-0.018zM303.734 198.588h-96.45v170.994c0.035 0.565 0.055 1.225 0.055 1.889 0 7.429-2.478 14.28-6.652 19.77l0.059-0.081c-4.131 4.439-10.007 7.207-16.53 7.207-0.281 0-0.56-0.005-0.839-0.015l0.040 0.001c-0.279 0.013-0.607 0.020-0.937 0.020-6.48 0-12.313-2.773-16.377-7.196l-0.015-0.016c-4.116-5.41-6.594-12.26-6.594-19.689 0-0.665 0.020-1.325 0.059-1.979l-0.004 0.090v-181.456c-0.077-0.816-0.121-1.764-0.121-2.723 0-7.432 2.638-14.247 7.028-19.562l-0.042 0.052c5.496-4.336 12.521-6.954 20.159-6.954 0.845 0 1.682 0.032 2.511 0.095l-0.11-0.007h114.759c0.591-0.046 1.279-0.073 1.974-0.073 6.032 0 11.598 1.992 16.077 5.354l-0.069-0.050c3.63 3.409 5.891 8.239 5.891 13.596 0 0.163-0.002 0.325-0.006 0.486v-0.024c0.010 0.225 0.016 0.488 0.016 0.752 0 5.334-2.41 10.106-6.201 13.284l-0.027 0.022c-4.231 3.882-9.895 6.262-16.115 6.262-0.542 0-1.080-0.018-1.613-0.054l0.072 0.004zM384.49 398.353c-0.269 0.012-0.584 0.019-0.901 0.019-6.39 0-12.131-2.777-16.082-7.191l-0.018-0.021c-4.143-5.152-6.65-11.772-6.65-18.979 0-0.915 0.040-1.821 0.12-2.716l-0.008 0.116v-185.379c-0.071-0.779-0.111-1.685-0.111-2.6 0-7.206 2.507-13.827 6.696-19.038l-0.046 0.059c4.024-4.433 9.809-7.206 16.241-7.206 0.267 0 0.533 0.005 0.798 0.014l-0.038-0.001c0.279-0.013 0.607-0.020 0.937-0.020 6.48 0 12.313 2.773 16.377 7.196l0.015 0.016c4.149 5.114 6.661 11.702 6.661 18.877 0 0.951-0.044 1.892-0.131 2.821l0.009-0.119v185.379c0.071 0.779 0.111 1.685 0.111 2.6 0 7.206-2.507 13.827-6.696 19.038l0.046-0.059c-4.078 4.44-9.911 7.213-16.392 7.213-0.329 0-0.657-0.007-0.983-0.021l0.046 0.002zM640.49 395.41c-3.145 1.85-6.929 2.943-10.967 2.943-0.052 0-0.105 0-0.157-0.001h0.008c-0.315 0.017-0.684 0.027-1.054 0.027-4.525 0-8.704-1.483-12.078-3.989l0.054 0.039c-2.989-2.277-5.334-5.252-6.812-8.687l-0.054-0.14c-2.075-4.622-4.189-10.374-5.945-16.28l-0.267-1.048-53.619-158.897-53.292 157.589c-2.423 9.060-5.892 16.999-10.359 24.258l0.224-0.391c-3.623 4.645-9.22 7.604-15.509 7.604-0.641 0-1.274-0.031-1.899-0.091l0.080 0.006c-0.165 0.005-0.36 0.007-0.556 0.007-6.229 0-11.841-2.639-15.78-6.86l-0.012-0.013c-4.021-3.608-6.539-8.821-6.539-14.622 0-0.032 0-0.064 0-0.096v0.005c-0.134-1.177-0.211-2.541-0.211-3.923s0.077-2.746 0.226-4.089l-0.015 0.165c0.53-3.306 1.442-6.273 2.705-9.047l-0.089 0.219 2.943-8.174 55.908-152.358 5.885-16.347c2.143-5.403 4.558-10.031 7.382-14.368l-0.189 0.309c2.804-4.164 6.417-7.568 10.636-10.052l0.153-0.083c4.56-2.273 9.933-3.604 15.617-3.604 0.257 0 0.513 0.003 0.769 0.008l-0.038-0.001c0.153-0.002 0.333-0.004 0.514-0.004 5.757 0 11.203 1.328 16.050 3.696l-0.217-0.096c4.242 2.6 7.745 5.998 10.386 10.012l0.076 0.123c2.55 3.914 4.959 8.427 6.972 13.149l0.221 0.583 5.885 16.674 57.87 152.031 2.943 8.174c0.854 2.047 1.747 4.657 2.492 7.329l0.123 0.518c0.134 1.177 0.211 2.541 0.211 3.923s-0.077 2.746-0.226 4.089l0.015-0.165c-0.022 3.804-1.244 7.318-3.306 10.188l0.036-0.053c-1.605 3.928-4.060 7.223-7.151 9.775l-0.042 0.033zM846.14 197.28h-111.162v65.39h98.084c0.621-0.060 1.342-0.094 2.072-0.094 5.42 0 10.4 1.884 14.32 5.033l-0.045-0.035c3.426 3.228 5.559 7.795 5.559 12.861 0 0.076 0 0.153-0.001 0.229v-0.012c0.008 0.19 0.012 0.414 0.012 0.639 0 4.937-2.145 9.372-5.554 12.425l-0.016 0.014c-3.913 3.109-8.926 4.988-14.377 4.988-0.694 0-1.38-0.030-2.058-0.090l0.088 0.006h-98.084v58.851h107.239c0.689-0.074 1.489-0.116 2.299-0.116 5.614 0 10.755 2.021 14.737 5.375l-0.035-0.028c3.431 3.176 5.571 7.703 5.571 12.73 0 0.237-0.005 0.474-0.014 0.709l0.001-0.034c0.002 0.106 0.004 0.232 0.004 0.357 0 5.022-2.137 9.546-5.551 12.711l-0.011 0.010c-3.947 3.326-9.089 5.347-14.702 5.347-0.81 0-1.61-0.042-2.398-0.124l0.099 0.008h-125.548c-0.397 0.014-0.863 0.022-1.331 0.022-5.528 0-10.802-1.089-15.618-3.064l0.275 0.1c-4.147-2.054-7.427-5.334-9.428-9.362l-0.054-0.12c-1.876-4.64-2.964-10.020-2.964-15.655 0-0.473 0.008-0.945 0.023-1.415l-0.002 0.069v-176.879c-0.077-0.816-0.121-1.764-0.121-2.723 0-7.432 2.638-14.247 7.028-19.562l-0.042 0.052c5.184-4.36 11.933-7.009 19.301-7.009 1.032 0 2.053 0.052 3.058 0.154l-0.127-0.010h130.779c0.633-0.063 1.368-0.099 2.111-0.099 5.566 0 10.661 2.016 14.595 5.357l-0.032-0.027c3.618 3.135 5.893 7.737 5.893 12.871 0 0.188-0.003 0.375-0.009 0.561l0.001-0.027c0.010 0.221 0.015 0.48 0.015 0.74 0 5.273-2.27 10.016-5.886 13.306l-0.015 0.013c-4.177 3.532-9.625 5.678-15.573 5.678-0.848 0-1.687-0.044-2.513-0.129l0.104 0.009z" />
<glyph unicode="&#xe933;" glyph-name="Thik" horiz-adv-x="1247" d="M1204.706 948.088c-19.283 15.349-43.994 24.627-70.873 24.627-35.429 0-67.093-16.12-88.057-41.427l-0.153-0.19-570.433-709.438-290.88 236.308c-19.255 14.8-43.701 23.718-70.23 23.718-36.175 0-68.476-16.582-89.719-42.56l-0.164-0.207c-15.040-19.289-24.114-43.87-24.114-70.571 0-36.046 16.538-68.23 42.44-89.377l0.208-0.164 373.768-299.632 5.663-5.148c19.218-15.882 44.108-25.515 71.248-25.515 35.761 0 67.616 16.726 88.169 42.781l0.181 0.238 639.936 797.474c15.849 19.207 25.461 44.072 25.461 71.182 0 35.507-16.488 67.162-42.226 87.728l-0.225 0.173z" />
</font>
</defs>
</svg>
